<svg
  version="1.1" id="orbit_x5F_app_1_"
  xmlns="http://www.w3.org/2000/svg"
  xmlns:xlink="http://www.w3.org/1999/xlink"
  viewBox="0 0 344.5 232.5"
  xml:space="preserve">

<style type="text/css">
	.primary{fill:#0F8BFE;}
	.white{fill:#FFFFFF;}
	.dark{fill:#031627;}
	.st0{fill:#FFF780;}
	.st1{fill:#FFC02E;}
	.st2{fill:#FFA73B;}
</style>

<g id="play">
	<circle class="white" cx="93.4" cy="208.5" r="24"/>
	<path class="primary" d="M101,207.3l-11.8-6.8c-0.9-0.5-2.1,0.1-2.1,1.2v13.6c0,1.1,1.2,1.7,2.1,1.2l11.8-6.8
		C101.9,209.2,101.9,207.8,101,207.3z"/>
</g>
<g id="crow">
	<path class="st0" d="M52.4,226.4H11.6c-0.6,0-1.2-0.3-1.6-0.8c-5.4-7.7-5.8-22.6-5.8-24.8c0-0.1,0-0.2,0-0.3c0-1,0.8-1.8,1.9-1.8h0
		c1,0,1.9,0.8,1.9,1.8c0,0,0,0.1,0,0.3c0.2,5.2,4.6,9.5,10,9.5c5.5,0,10-4.4,10-9.8c0-1,0.8-1.8,1.9-1.8h4.3c1,0,1.9,0.8,1.9,1.8
		c0,5.4,4.5,9.8,10,9.8c5.4,0,9.8-4.2,10-9.5c0-0.2,0-0.3,0-0.3c0-1,0.8-1.8,1.9-1.8h0c1,0,1.9,0.8,1.9,1.8c0,0.1,0,0.2,0,0.3
		c0,2.2-0.4,17-5.8,24.8C53.6,226.1,53,226.4,52.4,226.4z"/>
	<path class="st1" d="M57.9,198.7C57.9,198.7,57.9,198.7,57.9,198.7c-1,0-1.9,0.8-1.9,1.8c0,0,0,0.1,0,0.3c-0.2,5.2-4.6,9.5-10,9.5
		c-5.5,0-10-4.4-10-9.8c0-1-0.8-1.8-1.9-1.8H32v27.7h20.4c0.6,0,1.2-0.3,1.6-0.8c5.4-7.7,5.8-22.6,5.8-24.8c0-0.1,0-0.2,0-0.3
		C59.8,199.6,59,198.7,57.9,198.7z"/>
	<path class="st1" d="M32,192.5c-3.4,0-6.1,2.7-6.1,6s2.7,6,6.1,6s6.1-2.7,6.1-6S35.4,192.5,32,192.5z"/>
	<path class="st2" d="M32,192.5v11.9c3.4,0,6.1-2.7,6.1-6S35.4,192.5,32,192.5z"/>
	<path class="st1" d="M6.1,197.1c-3.4,0-6.1,2.7-6.1,6s2.7,6,6.1,6s6.1-2.7,6.1-6S9.4,197.1,6.1,197.1z"/>
	<path class="st2" d="M57.9,197.1c-3.4,0-6.1,2.7-6.1,6c0,3.3,2.7,6,6.1,6s6.1-2.7,6.1-6C64,199.7,61.3,197.1,57.9,197.1z"/>
	<path class="st1" d="M52.4,232.5H11.6c-1,0-1.9-0.8-1.9-1.8v-5.5h44.6v5.5C54.3,231.6,53.4,232.5,52.4,232.5z"/>
	<path class="st2" d="M32,232.5h20.4c1,0,1.9-0.8,1.9-1.8v-5.5H32V232.5z"/>
</g>
<g id="callcenter">
	<g>
		<path class="primary" d="M32,178.3l-0.4-2.1c-0.1-0.3-0.4-0.6-0.8-0.5c-0.4,0.1-0.6,0.4-0.5,0.8l0.4,2.1c0.1,0.7-0.4,1.4-1.2,1.4h-3.8
			v-2.9c0-0.4-0.3-0.6-0.7-0.6s-0.7,0.3-0.7,0.6v2.9H13c-0.4,0-0.7,0.3-0.7,0.6c0,0.4,0.3,0.6,0.7,0.6h16.5
			C31.1,181.3,32.3,179.9,32,178.3z"/>
		<path class="primary" d="M30.9,173.3l-0.2-1.1c-0.4-2.1-2-3-2.9-3.3c-0.3-0.1-0.9-0.3-7.6-1.9v-0.4h7.1c0.7,0,1.3-0.6,1.3-1.3v-8.4
			c0.4-0.6,0.7-1.3,0.7-2.1c0-0.8-0.3-1.5-0.7-2.1v-2.9c0-3.3-1.3-6.4-3.7-8.8c-4.5-4.4-11.5-4.8-16.5-1c-0.3,0.2-0.3,0.6-0.1,0.9
			c0.2,0.3,0.6,0.3,0.9,0.1c4.4-3.4,10.7-3,14.8,0.9c2.1,2.1,3.3,4.9,3.3,7.8v1.6c-0.2-0.5-0.6-0.9-1.1-1v-0.6c0-5.5-4.6-10-10.2-10
			s-10.2,4.5-10.2,10v0.6c-0.5,0.2-0.9,0.6-1.1,1v-1.5c0-2.5,0.8-4.9,2.4-6.9c0.2-0.3,0.2-0.7-0.1-0.9c-0.3-0.2-0.7-0.2-0.9,0.1
			c-1.7,2.2-2.7,4.9-2.7,7.7v2.8c-0.4,0.6-0.7,1.3-0.7,2.1c0,0.8,0.3,1.5,0.7,2.1v8.1c0,0.9,0.7,1.6,1.6,1.6h6.8v0.4
			c-0.6,0.1-6.8,1.7-7.5,1.9l0,0c0,0,0,0,0,0l0,0c-0.9,0.3-2.5,1.2-2.9,3.4c-0.5,2.6-0.9,4.4-1.3,6.3c-0.3,1.5,0.8,2.8,2.4,2.8H10
			c0.4,0,0.7-0.3,0.7-0.6c0-0.4-0.3-0.6-0.7-0.6H7.7v-2.9c0-0.4-0.3-0.6-0.7-0.6c-0.4,0-0.7,0.3-0.7,0.6v2.9H2.4
			c-0.7,0-1.2-0.6-1.1-1.3c0.5-2.3,0.8-3.9,1.3-6.3c0.4-2.1,2.4-2.5,2.6-2.5l4-1l1.8,2.1c0,0,0,0,0,0l2.4,2.7
			c0.7,0.8,1.6,1.3,2.6,1.3c0,0,0,0,0,0c1,0,1.9-0.5,2.6-1.3l4.2-4.9l4,1l0,0c0,0,0.1,0,0.5,0.1c0.7,0.2,1.8,0.9,2.1,2.4l0.2,1.1
			c0.1,0.3,0.4,0.6,0.8,0.5C30.8,174,31,173.6,30.9,173.3z M11.5,163.1h2c0.3,0.7,0.9,1.2,1.7,1.2h1.7c1,0,1.8-0.8,1.8-1.8
			c0-1-0.8-1.8-1.8-1.8h-1.7c-0.8,0-1.5,0.5-1.7,1.2h-2.1c-0.5,0-0.9-0.1-1.3-0.2c-1.1-1.3-1.6-3-1.6-4.7v-1.5
			c0-0.1,0.1-0.2,0.1-0.3c0.1-0.1,0.2-0.1,0.3-0.1c0,0,0,0,0,0c0.3,0,0.6,0,0.9,0c6,0,9.5-3.6,10.9-5.4c0.7,1.3,1.8,1.7,2.7,1.8
			c0.2,0,0.4,0.2,0.4,0.4v5.2C23.7,163.2,16.5,166.7,11.5,163.1z M14.6,162.4c0-0.3,0.2-0.5,0.5-0.5h1.7c0.3,0,0.5,0.2,0.5,0.5
			c0,0.3-0.2,0.5-0.5,0.5h-1.7C14.9,162.9,14.6,162.7,14.6,162.4z M27.4,153.2C27.4,153.2,27.5,153.2,27.4,153.2
			c0.4,0.5,0.6,1,0.6,1.5c0,0.5-0.2,1.1-0.5,1.5c0,0,0,0,0,0.1V153.2z M27.3,158.2v7.1c0,0,0,0,0,0h-7.1v-0.4
			c2.3-1.2,3.9-3.2,4.6-5.7c0.2,0.1,0.5,0.2,0.8,0.2C26.4,159.3,27,158.8,27.3,158.2z M25.1,151.9c0-0.3,0.2-0.5,0.5-0.5
			c0.3,0,0.5,0.2,0.5,0.5v0.1v5.5v0.1c0,0.3-0.2,0.5-0.5,0.5c-0.3,0-0.5-0.2-0.5-0.5V151.9z M16,140.9c4.9,0,8.9,3.9,8.9,8.7v0.6
			c-0.2,0.1-0.3,0.2-0.5,0.3c-0.3-0.2-0.6-0.4-0.9-0.4c-0.8-0.1-1.4-0.6-1.8-1.3c-0.4-0.8-1.4-0.9-1.9-0.2
			c-1.2,1.6-4.4,5.1-10.1,5.1c-0.3,0-0.5,0-0.8,0c-0.2,0-0.4,0-0.6,0.1v-1.8c0-0.8-0.5-1.4-1.2-1.7v-0.6h0
			C7.1,144.8,11.1,140.9,16,140.9z M7.5,159.7c-0.1-0.2-0.2-0.4-0.2-0.6c0,0,0,0,0.1,0C7.4,159.3,7.4,159.5,7.5,159.7z M6,157.5V152
			v-0.1c0-0.3,0.2-0.5,0.5-0.5c0.3,0,0.5,0.2,0.5,0.5v3.4v1.5v0.6c0,0.3-0.2,0.5-0.5,0.5C6.2,158,6,157.8,6,157.5L6,157.5z
			 M4.6,156.2C4.6,156.2,4.6,156.2,4.6,156.2c-0.4-0.5-0.6-1-0.6-1.5c0-0.5,0.2-1.1,0.5-1.5c0,0,0,0,0-0.1V156.2z M5.1,165.2
			c-0.2,0-0.3-0.1-0.3-0.3v-6.8c0.2,0.5,0.6,0.9,1.2,1.1c0.2,0.8,0.6,1.5,1.2,2.2c0.6,0.6,1.3,1,2.1,1.3c0.2,0.2,0.4,0.5,0.7,0.7
			c0.6,0.6,1.3,1,2,1.4v0.4H5.1L5.1,165.2z M19.1,171.3l-1.5,1.7c-0.5,0.5-1,0.8-1.6,0.8c0,0,0,0,0,0c-0.6,0-1.2-0.3-1.6-0.8
			l-1.5-1.7H19.1L19.1,171.3z M20.2,170h-8.4l-1.2-1.4l2-0.5c0.3-0.1,0.5-0.3,0.5-0.6c0,0,0,0,0,0l0-2.1c0.9,0.3,1.9,0.5,2.9,0.5
			c0.9,0,1.9-0.1,2.8-0.5v2.1c0,0,0,0,0,0c0,0.3,0.2,0.6,0.5,0.6l2.1,0.5L20.2,170z"/>
	</g>
	<g>
		<path class="primary" d="M32,178.3l-0.4-2.1c-0.1-0.3-0.4-0.6-0.8-0.5c-0.4,0.1-0.6,0.4-0.5,0.8l0.4,2.1c0.1,0.7-0.4,1.4-1.2,1.4
			h-3.8v-2.9c0-0.4-0.3-0.6-0.7-0.6s-0.7,0.3-0.7,0.6v2.9H13c-0.4,0-0.7,0.3-0.7,0.6c0,0.4,0.3,0.6,0.7,0.6h16.5
			C31.1,181.3,32.3,179.9,32,178.3z"/>
		<path class="primary" d="M30.9,173.3l-0.2-1.1c-0.4-2.1-2-3-2.9-3.3c-0.3-0.1-0.9-0.3-7.6-1.9v-0.4h7.1c0.7,0,1.3-0.6,1.3-1.3
			v-8.4c0.4-0.6,0.7-1.3,0.7-2.1c0-0.8-0.3-1.5-0.7-2.1v-2.9c0-3.3-1.3-6.4-3.7-8.8c-4.5-4.4-11.5-4.8-16.5-1
			c-0.3,0.2-0.3,0.6-0.1,0.9c0.2,0.3,0.6,0.3,0.9,0.1c4.4-3.4,10.7-3,14.8,0.9c2.1,2.1,3.3,4.9,3.3,7.8v1.6c-0.2-0.5-0.6-0.9-1.1-1
			v-0.6c0-5.5-4.6-10-10.2-10s-10.2,4.5-10.2,10v0.6c-0.5,0.2-0.9,0.6-1.1,1v-1.5c0-2.5,0.8-4.9,2.4-6.9c0.2-0.3,0.2-0.7-0.1-0.9
			c-0.3-0.2-0.7-0.2-0.9,0.1c-1.7,2.2-2.7,4.9-2.7,7.7v2.8c-0.4,0.6-0.7,1.3-0.7,2.1c0,0.8,0.3,1.5,0.7,2.1v8.1
			c0,0.9,0.7,1.6,1.6,1.6h6.8v0.4c-0.6,0.1-6.8,1.7-7.5,1.9l0,0c0,0,0,0,0,0l0,0c-0.9,0.3-2.5,1.2-2.9,3.4c-0.5,2.6-0.9,4.4-1.3,6.3
			c-0.3,1.5,0.8,2.8,2.4,2.8H10c0.4,0,0.7-0.3,0.7-0.6c0-0.4-0.3-0.6-0.7-0.6H7.7v-2.9c0-0.4-0.3-0.6-0.7-0.6
			c-0.4,0-0.7,0.3-0.7,0.6v2.9H2.4c-0.7,0-1.2-0.6-1.1-1.3c0.5-2.3,0.8-3.9,1.3-6.3c0.4-2.1,2.4-2.5,2.6-2.5l4-1l1.8,2.1
			c0,0,0,0,0,0l2.4,2.7c0.7,0.8,1.6,1.3,2.6,1.3c0,0,0,0,0,0c1,0,1.9-0.5,2.6-1.3l4.2-4.9l4,1l0,0c0,0,0.1,0,0.5,0.1
			c0.7,0.2,1.8,0.9,2.1,2.4l0.2,1.1c0.1,0.3,0.4,0.6,0.8,0.5C30.8,174,31,173.6,30.9,173.3z M11.5,163.1h2c0.3,0.7,0.9,1.2,1.7,1.2
			h1.7c1,0,1.8-0.8,1.8-1.8c0-1-0.8-1.8-1.8-1.8h-1.7c-0.8,0-1.5,0.5-1.7,1.2h-2.1c-0.5,0-0.9-0.1-1.3-0.2c-1.1-1.3-1.6-3-1.6-4.7
			v-1.5c0-0.1,0.1-0.2,0.1-0.3c0.1-0.1,0.2-0.1,0.3-0.1c0,0,0,0,0,0c0.3,0,0.6,0,0.9,0c6,0,9.5-3.6,10.9-5.4
			c0.7,1.3,1.8,1.7,2.7,1.8c0.2,0,0.4,0.2,0.4,0.4v5.2C23.7,163.2,16.5,166.7,11.5,163.1z M14.6,162.4c0-0.3,0.2-0.5,0.5-0.5h1.7
			c0.3,0,0.5,0.2,0.5,0.5c0,0.3-0.2,0.5-0.5,0.5h-1.7C14.9,162.9,14.6,162.7,14.6,162.4z M27.4,153.2
			C27.4,153.2,27.5,153.2,27.4,153.2c0.4,0.5,0.6,1,0.6,1.5c0,0.5-0.2,1.1-0.5,1.5c0,0,0,0,0,0.1V153.2z M27.3,158.2v7.1
			c0,0,0,0,0,0h-7.1v-0.4c2.3-1.2,3.9-3.2,4.6-5.7c0.2,0.1,0.5,0.2,0.8,0.2C26.4,159.3,27,158.8,27.3,158.2z M25.1,151.9
			c0-0.3,0.2-0.5,0.5-0.5c0.3,0,0.5,0.2,0.5,0.5v0.1v5.5v0.1c0,0.3-0.2,0.5-0.5,0.5c-0.3,0-0.5-0.2-0.5-0.5V151.9z M16,140.9
			c4.9,0,8.9,3.9,8.9,8.7v0.6c-0.2,0.1-0.3,0.2-0.5,0.3c-0.3-0.2-0.6-0.4-0.9-0.4c-0.8-0.1-1.4-0.6-1.8-1.3
			c-0.4-0.8-1.4-0.9-1.9-0.2c-1.2,1.6-4.4,5.1-10.1,5.1c-0.3,0-0.5,0-0.8,0c-0.2,0-0.4,0-0.6,0.1v-1.8c0-0.8-0.5-1.4-1.2-1.7v-0.6h0
			C7.1,144.8,11.1,140.9,16,140.9z M7.5,159.7c-0.1-0.2-0.2-0.4-0.2-0.6c0,0,0,0,0.1,0C7.4,159.3,7.4,159.5,7.5,159.7z M6,157.5V152
			v-0.1c0-0.3,0.2-0.5,0.5-0.5c0.3,0,0.5,0.2,0.5,0.5v3.4v1.5v0.6c0,0.3-0.2,0.5-0.5,0.5C6.2,158,6,157.8,6,157.5L6,157.5z
			 M4.6,156.2C4.6,156.2,4.6,156.2,4.6,156.2c-0.4-0.5-0.6-1-0.6-1.5c0-0.5,0.2-1.1,0.5-1.5c0,0,0,0,0-0.1V156.2z M5.1,165.2
			c-0.2,0-0.3-0.1-0.3-0.3v-6.8c0.2,0.5,0.6,0.9,1.2,1.1c0.2,0.8,0.6,1.5,1.2,2.2c0.6,0.6,1.3,1,2.1,1.3c0.2,0.2,0.4,0.5,0.7,0.7
			c0.6,0.6,1.3,1,2,1.4v0.4H5.1L5.1,165.2z M19.1,171.3l-1.5,1.7c-0.5,0.5-1,0.8-1.6,0.8c0,0,0,0,0,0c-0.6,0-1.2-0.3-1.6-0.8
			l-1.5-1.7H19.1L19.1,171.3z M20.2,170h-8.4l-1.2-1.4l2-0.5c0.3-0.1,0.5-0.3,0.5-0.6c0,0,0,0,0,0l0-2.1c0.9,0.3,1.9,0.5,2.9,0.5
			c0.9,0,1.9-0.1,2.8-0.5v2.1c0,0,0,0,0,0c0,0.3,0.2,0.6,0.5,0.6l2.1,0.5L20.2,170z"/>
	</g>
</g>
<g id="marker">
	<g>
		<path class="primary" d="M158.1,165.1c3.9-6,3.4-5.3,3.5-5.4c1.4-2,2.2-4.3,2.2-6.7c0-6.4-5.3-11.7-11.7-11.7
			c-6.5,0-11.7,5.3-11.7,11.7c0,2.4,0.8,4.8,2.2,6.8l3.4,5.3c-3.7,0.6-9.9,2.2-9.9,5.9c0,1.3,0.9,3.2,5.1,4.7
			c2.9,1,6.8,1.6,10.9,1.6c7.7,0,16-2.1,16-6.3C168,167.3,161.8,165.6,158.1,165.1z M144.3,158.6
			C144.3,158.6,144.2,158.5,144.3,158.6c-1.2-1.7-1.9-3.7-1.9-5.6c0-5.3,4.3-9.6,9.6-9.6c5.3,0,9.6,4.3,9.6,9.6c0,2-0.6,3.9-1.8,5.5
			c-0.1,0.1,0.4-0.7-7.8,12.2L144.3,158.6z M152,175.2c-8.4,0-13.9-2.4-13.9-4.2c0-1.2,2.8-3.2,9-3.9l3.9,6.1
			c0.2,0.3,0.5,0.5,0.9,0.5c0.4,0,0.7-0.2,0.9-0.5l3.9-6.1c6.2,0.8,9,2.7,9,3.9C165.9,172.7,160.4,175.2,152,175.2z"/>
		<path class="primary" d="M152,147.7c-2.9,0-5.3,2.4-5.3,5.3s2.4,5.3,5.3,5.3s5.3-2.4,5.3-5.3S154.9,147.7,152,147.7z M152,156.1
			c-1.8,0-3.2-1.4-3.2-3.2s1.4-3.2,3.2-3.2s3.2,1.4,3.2,3.2S153.8,156.1,152,156.1z"/>
	</g>
	<g>
		<path class="primary" d="M158.1,165.1c3.9-6,3.4-5.3,3.5-5.4c1.4-2,2.2-4.3,2.2-6.7c0-6.4-5.3-11.7-11.7-11.7
			c-6.5,0-11.7,5.3-11.7,11.7c0,2.4,0.8,4.8,2.2,6.8l3.4,5.3c-3.7,0.6-9.9,2.2-9.9,5.9c0,1.3,0.9,3.2,5.1,4.7
			c2.9,1,6.8,1.6,10.9,1.6c7.7,0,16-2.1,16-6.3C168,167.3,161.8,165.6,158.1,165.1z M144.3,158.6
			C144.3,158.6,144.2,158.5,144.3,158.6c-1.2-1.7-1.9-3.7-1.9-5.6c0-5.3,4.3-9.6,9.6-9.6c5.3,0,9.6,4.3,9.6,9.6c0,2-0.6,3.9-1.8,5.5
			c-0.1,0.1,0.4-0.7-7.8,12.2L144.3,158.6z M152,175.2c-8.4,0-13.9-2.4-13.9-4.2c0-1.2,2.8-3.2,9-3.9l3.9,6.1
			c0.2,0.3,0.5,0.5,0.9,0.5c0.4,0,0.7-0.2,0.9-0.5l3.9-6.1c6.2,0.8,9,2.7,9,3.9C165.9,172.7,160.4,175.2,152,175.2z"/>
		<path class="primary" d="M152,147.7c-2.9,0-5.3,2.4-5.3,5.3s2.4,5.3,5.3,5.3s5.3-2.4,5.3-5.3S154.9,147.7,152,147.7z M152,156.1
			c-1.8,0-3.2-1.4-3.2-3.2s1.4-3.2,3.2-3.2s3.2,1.4,3.2,3.2S153.8,156.1,152,156.1z"/>
	</g>
</g>
<g id="email">
	<g>
		<path class="primary" d="M107,145.5c-4.1,0-7.5,3.3-7.5,7.4c0,2.5,1.3,4.9,3.4,6.2c2.2,1.4,4.9,1.5,7.4,0.4c0.5-0.2,0.8-0.9,0.5-1.4
			c-0.2-0.5-0.9-0.8-1.4-0.5c-1.8,0.8-3.8,0.7-5.4-0.3c-1.5-1-2.5-2.6-2.5-4.4c0-2.9,2.4-5.3,5.3-5.3c2.9,0,5.3,2.4,5.3,5.3
			c0,0.6-0.5,1.1-1.1,1.1c-0.5,0-1-0.4-1.1-1c0,0,0,0,0,0c0-1.7-1.4-3.2-3.2-3.2c-1.8,0-3.2,1.4-3.2,3.2s1.4,3.2,3.2,3.2
			c0.8,0,1.6-0.3,2.1-0.8c0.6,0.5,1.3,0.8,2.1,0.8c1.8,0,3.2-1.4,3.2-3.2C114.5,148.8,111.1,145.5,107,145.5z M108.1,153.1
			c-0.1,0.5-0.5,0.9-1.1,0.9c-0.6,0-1.1-0.5-1.1-1.1s0.5-1.1,1.1-1.1c0.5,0,1,0.4,1.1,0.9C108,152.9,108,153,108.1,153.1z"/>
		<path class="primary" d="M123,155.1c0-0.3-0.1-0.5-0.3-0.7l-4-3.9v-8.1c0-0.6-0.5-1.1-1.1-1.1H96.3c-0.6,0-1.1,0.5-1.1,1.1v8.1l-4,3.9
			c0,0,0,0,0,0c-0.2,0.2-0.3,0.5-0.3,0.7c0,0,0,0,0,0v19c0,1.7,1.4,3.2,3.2,3.2h25.6c1.8,0,3.2-1.4,3.2-3.2L123,155.1
			C123,155.1,123,155.1,123,155.1z M118.7,153.5l1.7,1.7l-1.7,1.7V153.5z M97.4,150.9C97.4,150.9,97.4,150.9,97.4,150.9v-7.5h19.2
			v7.5c0,0,0,0,0,0v8l-5.8,5.7h-7.6l-5.8-5.7V150.9z M95.3,153.5v3.3l-1.7-1.7L95.3,153.5z M93.1,173.7v-16l8.1,8L93.1,173.7z
			 M94.6,175.2l8.5-8.4h7.6l8.5,8.4H94.6z M120.9,173.7l-8.1-8l8.1-8V173.7z"/>
	</g>
	<g>
		<path class="primary" d="M107,145.5c-4.1,0-7.5,3.3-7.5,7.4c0,2.5,1.3,4.9,3.4,6.2c2.2,1.4,4.9,1.5,7.4,0.4
			c0.5-0.2,0.8-0.9,0.5-1.4c-0.2-0.5-0.9-0.8-1.4-0.5c-1.8,0.8-3.8,0.7-5.4-0.3c-1.5-1-2.5-2.6-2.5-4.4c0-2.9,2.4-5.3,5.3-5.3
			c2.9,0,5.3,2.4,5.3,5.3c0,0.6-0.5,1.1-1.1,1.1c-0.5,0-1-0.4-1.1-1c0,0,0,0,0,0c0-1.7-1.4-3.2-3.2-3.2c-1.8,0-3.2,1.4-3.2,3.2
			s1.4,3.2,3.2,3.2c0.8,0,1.6-0.3,2.1-0.8c0.6,0.5,1.3,0.8,2.1,0.8c1.8,0,3.2-1.4,3.2-3.2C114.5,148.8,111.1,145.5,107,145.5z
			 M108.1,153.1c-0.1,0.5-0.5,0.9-1.1,0.9c-0.6,0-1.1-0.5-1.1-1.1s0.5-1.1,1.1-1.1c0.5,0,1,0.4,1.1,0.9
			C108,152.9,108,153,108.1,153.1z"/>
		<path class="primary" d="M123,155.1c0-0.3-0.1-0.5-0.3-0.7l-4-3.9v-8.1c0-0.6-0.5-1.1-1.1-1.1H96.3c-0.6,0-1.1,0.5-1.1,1.1v8.1
			l-4,3.9c0,0,0,0,0,0c-0.2,0.2-0.3,0.5-0.3,0.7c0,0,0,0,0,0v19c0,1.7,1.4,3.2,3.2,3.2h25.6c1.8,0,3.2-1.4,3.2-3.2L123,155.1
			C123,155.1,123,155.1,123,155.1z M118.7,153.5l1.7,1.7l-1.7,1.7V153.5z M97.4,150.9C97.4,150.9,97.4,150.9,97.4,150.9v-7.5h19.2
			v7.5c0,0,0,0,0,0v8l-5.8,5.7h-7.6l-5.8-5.7V150.9z M95.3,153.5v3.3l-1.7-1.7L95.3,153.5z M93.1,173.7v-16l8.1,8L93.1,173.7z
			 M94.6,175.2l8.5-8.4h7.6l8.5,8.4H94.6z M120.9,173.7l-8.1-8l8.1-8V173.7z"/>
	</g>
</g>
<g id="phone">
	<g>
		<path class="primary" d="M71.5,163c-1.4-1.4-3.3-1.4-4.8,0l-0.1,0.1c-0.7,0.7-1.3,1.3-2,2c-0.1-0.1-0.2-0.1-0.3-0.2
			c-0.3-0.1-0.6-0.3-0.8-0.4c-2-1.2-3.8-2.9-5.5-5c-0.8-1-1.4-1.9-1.8-2.8c0.6-0.6,1.2-1.1,1.7-1.7l0.3-0.3c1.5-1.5,1.5-3.4,0-4.8
			l-2.4-2.4c-0.4-0.4-0.8-0.8-1.3-1.3c-1.4-1.4-3.3-1.4-4.7,0c-0.3,0.3-0.6,0.6-0.9,0.9l-0.1,0.1c-0.4,0.4-0.9,0.9-1.3,1.3
			c-0.9,0.8-1.4,1.9-1.5,3.2c-0.2,2,0.4,3.7,0.9,5.1c1.1,3,2.8,5.8,5.2,8.6c3,3.5,6.5,6.3,10.6,8.3c2.3,1.1,4.2,1.6,6.1,1.8
			c0.1,0,0.3,0,0.4,0c1.6,0,2.9-0.6,4-1.7c0.4-0.5,0.9-0.9,1.3-1.4c0.3-0.2,0.5-0.5,0.7-0.7c1.5-1.5,1.5-3.4,0-4.8
			C74,165.4,72.8,164.2,71.5,163z M56.5,153.5c-0.6,0.7-1.3,1.3-2,1.9c-0.5,0.5-0.6,1.1-0.3,1.7c0.5,1.2,1.2,2.3,2.2,3.6
			c1.9,2.3,3.9,4.1,6,5.5c0.3,0.2,0.7,0.4,1.1,0.6c0.2,0.1,0.3,0.2,0.5,0.2c0.7,0.4,1.3,0.3,1.9-0.3c0.8-0.8,1.5-1.5,2.3-2.3
			c0.6-0.6,1.2-0.6,1.9,0c1.2,1.2,2.5,2.5,3.7,3.7c0.6,0.6,0.6,1.3,0,1.9c-0.2,0.2-0.5,0.5-0.7,0.7c-0.4,0.4-1,0.9-1.4,1.4
			c-0.7,0.8-1.6,1.1-2.8,1c-1.6-0.1-3.3-0.6-5.3-1.5c-3.8-1.8-7.1-4.5-9.9-7.8c-2.2-2.6-3.8-5.3-4.8-8c-0.6-1.7-0.9-3-0.8-4.2
			c0.1-0.8,0.3-1.4,0.9-1.9c0.5-0.5,0.9-0.9,1.4-1.4c0.3-0.3,0.6-0.6,0.9-0.9c0.6-0.6,1.2-0.6,1.9,0c0.4,0.4,0.8,0.8,1.2,1.2
			l2.4,2.4c0.7,0.7,0.7,1.3,0,1.9L56.5,153.5z"/>
		<path class="primary" d="M63.4,151.8c1.5,0.4,2.8,1.1,3.9,2.2c1,1,1.8,2.3,2.1,3.7c0.1,0.4,0.5,0.6,0.8,0.6c0,0,0.1,0,0.1,0l0.5-0.1
			c0.2,0,0.5-0.2,0.6-0.4c0.1-0.2,0.2-0.5,0.1-0.7c-0.5-1.8-1.4-3.4-2.7-4.7l0,0c-1.4-1.4-3.1-2.4-5-2.8c-0.2-0.1-0.5,0-0.7,0.1
			c-0.2,0.1-0.3,0.4-0.4,0.6l-0.1,0.5C62.7,151.2,62.9,151.6,63.4,151.8z"/>
		<path class="primary" d="M78,156.7c-0.7-3.2-2.4-6.2-4.8-8.5h0c-2.5-2.5-5.6-4.2-9.1-4.9c-0.2,0-0.5,0-0.7,0.1
			c-0.2,0.1-0.3,0.3-0.4,0.6l-0.1,0.5c-0.1,0.5,0.2,0.9,0.7,1c3,0.6,5.7,2.1,7.9,4.2c2.1,2.1,3.5,4.6,4.1,7.4
			c0.1,0.4,0.4,0.7,0.8,0.7c0,0,0.1,0,0.1,0l0.5-0.1c0.2,0,0.4-0.2,0.6-0.4C78,157.2,78,156.9,78,156.7z"/>
	</g>
	<g>
		<path class="primary" d="M71.5,163c-1.4-1.4-3.3-1.4-4.8,0l-0.1,0.1c-0.7,0.7-1.3,1.3-2,2c-0.1-0.1-0.2-0.1-0.3-0.2
			c-0.3-0.1-0.6-0.3-0.8-0.4c-2-1.2-3.8-2.9-5.5-5c-0.8-1-1.4-1.9-1.8-2.8c0.6-0.6,1.2-1.1,1.7-1.7l0.3-0.3c1.5-1.5,1.5-3.4,0-4.8
			l-2.4-2.4c-0.4-0.4-0.8-0.8-1.3-1.3c-1.4-1.4-3.3-1.4-4.7,0c-0.3,0.3-0.6,0.6-0.9,0.9l-0.1,0.1c-0.4,0.4-0.9,0.9-1.3,1.3
			c-0.9,0.8-1.4,1.9-1.5,3.2c-0.2,2,0.4,3.7,0.9,5.1c1.1,3,2.8,5.8,5.2,8.6c3,3.5,6.5,6.3,10.6,8.3c2.3,1.1,4.2,1.6,6.1,1.8
			c0.1,0,0.3,0,0.4,0c1.6,0,2.9-0.6,4-1.7c0.4-0.5,0.9-0.9,1.3-1.4c0.3-0.2,0.5-0.5,0.7-0.7c1.5-1.5,1.5-3.4,0-4.8
			C74,165.4,72.8,164.2,71.5,163z M56.5,153.5c-0.6,0.7-1.3,1.3-2,1.9c-0.5,0.5-0.6,1.1-0.3,1.7c0.5,1.2,1.2,2.3,2.2,3.6
			c1.9,2.3,3.9,4.1,6,5.5c0.3,0.2,0.7,0.4,1.1,0.6c0.2,0.1,0.3,0.2,0.5,0.2c0.7,0.4,1.3,0.3,1.9-0.3c0.8-0.8,1.5-1.5,2.3-2.3
			c0.6-0.6,1.2-0.6,1.9,0c1.2,1.2,2.5,2.5,3.7,3.7c0.6,0.6,0.6,1.3,0,1.9c-0.2,0.2-0.5,0.5-0.7,0.7c-0.4,0.4-1,0.9-1.4,1.4
			c-0.7,0.8-1.6,1.1-2.8,1c-1.6-0.1-3.3-0.6-5.3-1.5c-3.8-1.8-7.1-4.5-9.9-7.8c-2.2-2.6-3.8-5.3-4.8-8c-0.6-1.7-0.9-3-0.8-4.2
			c0.1-0.8,0.3-1.4,0.9-1.9c0.5-0.5,0.9-0.9,1.4-1.4c0.3-0.3,0.6-0.6,0.9-0.9c0.6-0.6,1.2-0.6,1.9,0c0.4,0.4,0.8,0.8,1.2,1.2
			l2.4,2.4c0.7,0.7,0.7,1.3,0,1.9L56.5,153.5z"/>
		<path class="primary" d="M63.4,151.8c1.5,0.4,2.8,1.1,3.9,2.2c1,1,1.8,2.3,2.1,3.7c0.1,0.4,0.5,0.6,0.8,0.6c0,0,0.1,0,0.1,0
			l0.5-0.1c0.2,0,0.5-0.2,0.6-0.4c0.1-0.2,0.2-0.5,0.1-0.7c-0.5-1.8-1.4-3.4-2.7-4.7l0,0c-1.4-1.4-3.1-2.4-5-2.8
			c-0.2-0.1-0.5,0-0.7,0.1c-0.2,0.1-0.3,0.4-0.4,0.6l-0.1,0.5C62.7,151.2,62.9,151.6,63.4,151.8z"/>
		<path class="primary" d="M78,156.7c-0.7-3.2-2.4-6.2-4.8-8.5h0c-2.5-2.5-5.6-4.2-9.1-4.9c-0.2,0-0.5,0-0.7,0.1
			c-0.2,0.1-0.3,0.3-0.4,0.6l-0.1,0.5c-0.1,0.5,0.2,0.9,0.7,1c3,0.6,5.7,2.1,7.9,4.2c2.1,2.1,3.5,4.6,4.1,7.4
			c0.1,0.4,0.4,0.7,0.8,0.7c0,0,0.1,0,0.1,0l0.5-0.1c0.2,0,0.4-0.2,0.6-0.4C78,157.2,78,156.9,78,156.7z"/>
	</g>
</g>
<path id="arrow-left" class="primary" d="M134.1,109.2h-26.5l4.4-4.5c0.5-0.5,0.5-1.3,0-1.8c-0.5-0.5-1.3-0.5-1.8,0l-6.5,6.7
	c0,0,0,0,0,0c-0.5,0.5-0.5,1.3,0,1.8c0,0,0,0,0,0l6.5,6.7c0.5,0.5,1.3,0.5,1.8,0c0.5-0.5,0.5-1.3,0-1.8l-4.4-4.5h26.5
	c0.7,0,1.3-0.6,1.3-1.3S134.8,109.2,134.1,109.2z"/>
<path id="arrow-right" class="primary" d="M156.3,111.8h26.5l-4.4,4.5c-0.5,0.5-0.5,1.3,0,1.8c0.5,0.5,1.3,0.5,1.8,0l6.5-6.7
	c0,0,0,0,0,0c0.5-0.5,0.5-1.3,0-1.8c0,0,0,0,0,0l-6.5-6.7c-0.5-0.5-1.3-0.5-1.8,0c-0.5,0.5-0.5,1.3,0,1.8l4.4,4.5h-26.5
	c-0.7,0-1.3,0.6-1.3,1.3C155.1,111.2,155.6,111.8,156.3,111.8z"/>
<g id="gear">
	<g>
		<path class="primary" d="M83.7,114.4v-7.8h-4.6c-0.2-0.5-0.4-0.9-0.6-1.4l3.2-3.2l-5.5-5.5L73,99.6c-0.5-0.2-0.9-0.4-1.4-0.6v-4.6
			h-7.8V99c-0.5,0.2-0.9,0.4-1.4,0.6l-3.2-3.2l-5.5,5.5l3.2,3.2c-0.2,0.5-0.4,0.9-0.6,1.4h-4.6v7.8h4.6c0.2,0.5,0.4,0.9,0.6,1.4
			l-3.2,3.2l5.5,5.5l3.2-3.2c0.5,0.2,0.9,0.4,1.4,0.6v4.6h7.8v-4.6c0.5-0.2,0.9-0.4,1.4-0.6l3.2,3.2l5.5-5.5l-3.2-3.2
			c0.2-0.5,0.4-0.9,0.6-1.4H83.7L83.7,114.4z M79,119l-2.8,2.8l-2.9-2.9l-0.6,0.4c-0.7,0.4-1.5,0.7-2.3,1l-0.7,0.2v4.1h-3.9v-4.1
			l-0.7-0.2c-0.8-0.2-1.6-0.5-2.3-1l-0.6-0.4l-2.9,2.9l-2.8-2.8l2.9-2.9l-0.4-0.6c-0.4-0.7-0.7-1.5-1-2.3l-0.2-0.7h-4.1v-3.9h4.1
			l0.2-0.7c0.2-0.8,0.5-1.6,1-2.3l0.4-0.6l-2.9-2.9l2.8-2.8L62,102l0.6-0.4c0.7-0.4,1.5-0.7,2.3-1l0.7-0.2v-4.1h3.9v4.1l0.7,0.2
			c0.8,0.2,1.6,0.5,2.3,1l0.6,0.4l2.9-2.9l2.8,2.8l-2.9,2.9l0.4,0.6c0.4,0.7,0.7,1.5,1,2.3l0.2,0.7h4.1v3.9h-4.1l-0.2,0.7
			c-0.2,0.8-0.5,1.6-1,2.3l-0.4,0.6L79,119z"/>
		<path class="primary" d="M67.7,104.3c-3.4,0-6.2,2.8-6.2,6.2c0,3.4,2.8,6.2,6.2,6.2s6.2-2.8,6.2-6.2C73.9,107,71.1,104.3,67.7,104.3z
			 M67.7,114.7c-2.3,0-4.2-1.9-4.2-4.2s1.9-4.2,4.2-4.2s4.2,1.9,4.2,4.2S70,114.7,67.7,114.7z"/>
	</g>
	<g>
		<path class="primary" d="M83.7,114.4v-7.8h-4.6c-0.2-0.5-0.4-0.9-0.6-1.4l3.2-3.2l-5.5-5.5L73,99.6c-0.5-0.2-0.9-0.4-1.4-0.6v-4.6
			h-7.8V99c-0.5,0.2-0.9,0.4-1.4,0.6l-3.2-3.2l-5.5,5.5l3.2,3.2c-0.2,0.5-0.4,0.9-0.6,1.4h-4.6v7.8h4.6c0.2,0.5,0.4,0.9,0.6,1.4
			l-3.2,3.2l5.5,5.5l3.2-3.2c0.5,0.2,0.9,0.4,1.4,0.6v4.6h7.8v-4.6c0.5-0.2,0.9-0.4,1.4-0.6l3.2,3.2l5.5-5.5l-3.2-3.2
			c0.2-0.5,0.4-0.9,0.6-1.4H83.7L83.7,114.4z M79,119l-2.8,2.8l-2.9-2.9l-0.6,0.4c-0.7,0.4-1.5,0.7-2.3,1l-0.7,0.2v4.1h-3.9v-4.1
			l-0.7-0.2c-0.8-0.2-1.6-0.5-2.3-1l-0.6-0.4l-2.9,2.9l-2.8-2.8l2.9-2.9l-0.4-0.6c-0.4-0.7-0.7-1.5-1-2.3l-0.2-0.7h-4.1v-3.9h4.1
			l0.2-0.7c0.2-0.8,0.5-1.6,1-2.3l0.4-0.6l-2.9-2.9l2.8-2.8L62,102l0.6-0.4c0.7-0.4,1.5-0.7,2.3-1l0.7-0.2v-4.1h3.9v4.1l0.7,0.2
			c0.8,0.2,1.6,0.5,2.3,1l0.6,0.4l2.9-2.9l2.8,2.8l-2.9,2.9l0.4,0.6c0.4,0.7,0.7,1.5,1,2.3l0.2,0.7h4.1v3.9h-4.1l-0.2,0.7
			c-0.2,0.8-0.5,1.6-1,2.3l-0.4,0.6L79,119z"/>
		<path class="primary" d="M67.7,104.3c-3.4,0-6.2,2.8-6.2,6.2c0,3.4,2.8,6.2,6.2,6.2s6.2-2.8,6.2-6.2
			C73.9,107,71.1,104.3,67.7,104.3z M67.7,114.7c-2.3,0-4.2-1.9-4.2-4.2s1.9-4.2,4.2-4.2s4.2,1.9,4.2,4.2S70,114.7,67.7,114.7z"/>
	</g>
</g>
<g id="tick">
	<g>
		<path class="primary" d="M31.1,98.8c-0.5-0.5-1.2-0.5-1.7,0l-14.5,14.4l-5.2-5.7c-0.5-0.5-1.2-0.5-1.7-0.1c-0.5,0.5-0.5,1.2-0.1,1.7
			l6.1,6.6c0.2,0.2,0.5,0.4,0.9,0.4c0,0,0,0,0,0c0.3,0,0.6-0.1,0.9-0.4l15.4-15.3C31.6,100.1,31.6,99.3,31.1,98.8z"/>
		<path class="primary" d="M30.8,109.3c-0.7,0-1.2,0.5-1.2,1.2c0,7.5-6.1,13.6-13.6,13.6c-7.5,0-13.6-6.1-13.6-13.6
			c0-7.5,6.1-13.6,13.6-13.6c0.7,0,1.2-0.5,1.2-1.2c0-0.7-0.5-1.2-1.2-1.2c-8.8,0-16,7.2-16,16c0,8.8,7.2,16,16,16
			c8.8,0,16-7.2,16-16C32,109.8,31.5,109.3,30.8,109.3z"/>
	</g>
	<g>
		<path class="primary" d="M31.1,98.8c-0.5-0.5-1.2-0.5-1.7,0l-14.5,14.4l-5.2-5.7c-0.5-0.5-1.2-0.5-1.7-0.1
			c-0.5,0.5-0.5,1.2-0.1,1.7l6.1,6.6c0.2,0.2,0.5,0.4,0.9,0.4c0,0,0,0,0,0c0.3,0,0.6-0.1,0.9-0.4l15.4-15.3
			C31.6,100.1,31.6,99.3,31.1,98.8z"/>
		<path class="primary" d="M30.8,109.3c-0.7,0-1.2,0.5-1.2,1.2c0,7.5-6.1,13.6-13.6,13.6c-7.5,0-13.6-6.1-13.6-13.6
			c0-7.5,6.1-13.6,13.6-13.6c0.7,0,1.2-0.5,1.2-1.2c0-0.7-0.5-1.2-1.2-1.2c-8.8,0-16,7.2-16,16c0,8.8,7.2,16,16,16
			c8.8,0,16-7.2,16-16C32,109.8,31.5,109.3,30.8,109.3z"/>
	</g>
</g>
<g id="feature-6">
	<g>
		<path class="primary" d="M317.3,69.4c1.3-1.2,2.1-2.9,2.1-4.8v-3.7c0.6-0.8,0.9-1.7,0.9-2.7v-3.8c0-0.5-0.4-0.9-0.9-0.9h-7.8
			c-3.2,0-5.7,2.6-5.7,5.7v5.5c0,1.9,0.8,3.6,2.1,4.8c-5.3,0.2-9.5,4.5-9.5,9.8v7.7c0,0.5,0.4,0.9,0.9,0.9h26.4
			c0.5,0,0.9-0.4,0.9-0.9v-7.7C326.8,73.9,322.5,69.6,317.3,69.4z M311.6,55.3h6.8v2.9c0,1.5-1.2,2.7-2.7,2.7h-8v-0.1v-1.6h0
			C307.7,57,309.5,55.3,311.6,55.3z M307.7,64.6v-1.9h8c0.6,0,1.2-0.1,1.7-0.3v2.2c0,2.7-2.2,4.8-4.9,4.8S307.7,67.2,307.7,64.6z
			 M316.4,71.3l-3.7,6.2l-3.7-6.2H316.4z M324.9,85.9L324.9,85.9h-2.1v-6.6c0-0.5-0.4-0.9-0.9-0.9s-0.9,0.4-0.9,0.9v6.6h-16.2v-6.6
			c0-0.5-0.4-0.9-0.9-0.9s-0.9,0.4-0.9,0.9v6.6h-2.4v-6.7c0-3.9,2.9-7.1,6.6-7.8l5,8.4c0.2,0.3,0.5,0.5,0.8,0.5
			c0.3,0,0.6-0.2,0.8-0.5l5-8.4c3.6,0.7,6.3,3.9,6.3,7.7V85.9L324.9,85.9z"/>
		<path class="primary" d="M339.7,39.8h-5.3c-0.5,0-0.9,0.4-0.9,0.9s0.4,0.9,0.9,0.9h5.3c1.6,0,2.8,1.3,2.8,2.8V57
			c0,1.6-1.3,2.8-2.8,2.8h-3.4c-0.3,0-0.5,0.1-0.7,0.3l-4.5,4.4v-3.8c0-0.5-0.4-0.9-0.9-0.9h-8c-0.5,0-0.9,0.4-0.9,0.9
			s0.4,0.9,0.9,0.9h7.1v5.1c0,0.4,0.2,0.7,0.6,0.9c0.1,0,0.2,0.1,0.4,0.1c0.2,0,0.5-0.1,0.7-0.3l5.8-5.8h3c2.6,0,4.7-2.1,4.7-4.7
			V44.5C344.5,41.9,342.3,39.8,339.7,39.8z"/>
		<path class="primary" d="M331.6,40c-0.2-0.2-0.4-0.3-0.7-0.3c-0.2,0-0.5,0.1-0.7,0.3c-0.2,0.2-0.3,0.4-0.3,0.7s0.1,0.5,0.3,0.7
			c0.2,0.2,0.4,0.3,0.7,0.3c0.2,0,0.5-0.1,0.7-0.3c0.2-0.2,0.3-0.4,0.3-0.7S331.8,40.2,331.6,40z"/>
		<path class="primary" d="M327.5,39.8h-5.3c-2.6,0-4.7,2.1-4.7,4.7v5.2c0,0.5,0.4,0.9,0.9,0.9s0.9-0.4,0.9-0.9v-5.2
			c0-1.6,1.3-2.8,2.8-2.8h5.3c0.5,0,0.9-0.4,0.9-0.9S328,39.8,327.5,39.8z"/>
		<path class="primary" d="M318.6,79.8h-1.3c-0.5,0-0.9,0.4-0.9,0.9c0,0.5,0.4,0.9,0.9,0.9h1.3c0.5,0,0.9-0.4,0.9-0.9
			C319.6,80.2,319.2,79.8,318.6,79.8z"/>
		<path class="primary" d="M311,64.3c-0.2-0.2-0.4-0.3-0.7-0.3c-0.2,0-0.5,0.1-0.7,0.3c-0.2,0.2-0.3,0.4-0.3,0.7c0,0.2,0.1,0.5,0.3,0.7
			c0.2,0.2,0.4,0.3,0.7,0.3c0.2,0,0.5-0.1,0.7-0.3c0.2-0.2,0.3-0.4,0.3-0.7C311.3,64.7,311.2,64.5,311,64.3z"/>
		<path class="primary" d="M315.5,64.3c-0.2-0.2-0.4-0.3-0.7-0.3c-0.2,0-0.5,0.1-0.7,0.3c-0.2,0.2-0.3,0.4-0.3,0.7
			c0,0.2,0.1,0.5,0.3,0.7c0.2,0.2,0.4,0.3,0.7,0.3c0.2,0,0.5-0.1,0.7-0.3c0.2-0.2,0.3-0.4,0.3-0.7C315.8,64.7,315.7,64.5,315.5,64.3
			z"/>
		<path class="primary" d="M334.5,48.2c-0.1-1.7-1.5-3.1-3.2-3.2c-1-0.1-1.9,0.3-2.6,0.9c-0.7,0.7-1.1,1.6-1.1,2.5
			c0,0.5,0.4,0.9,0.9,0.9s0.9-0.4,0.9-0.9c0-0.4,0.2-0.9,0.5-1.2c0.3-0.3,0.8-0.5,1.2-0.4c0.8,0.1,1.4,0.7,1.5,1.5
			c0.1,0.8-0.5,1.5-1.2,1.7c-0.8,0.2-1.3,0.8-1.3,1.6v1.9c0,0.5,0.4,0.9,0.9,0.9c0.5,0,0.9-0.4,0.9-0.9v-1.7
			C333.5,51.3,334.6,49.8,334.5,48.2z"/>
		<path class="primary" d="M331.6,55.9c-0.2-0.2-0.4-0.3-0.7-0.3c-0.2,0-0.5,0.1-0.7,0.3c-0.2,0.2-0.3,0.4-0.3,0.7
			c0,0.2,0.1,0.5,0.3,0.7c0.2,0.2,0.4,0.3,0.7,0.3c0.2,0,0.5-0.1,0.7-0.3s0.3-0.4,0.3-0.7C331.9,56.3,331.8,56.1,331.6,55.9z"/>
	</g>
	<g>
		<path class="primary" d="M317.3,69.4c1.3-1.2,2.1-2.9,2.1-4.8v-3.7c0.6-0.8,0.9-1.7,0.9-2.7v-3.8c0-0.5-0.4-0.9-0.9-0.9h-7.8
			c-3.2,0-5.7,2.6-5.7,5.7v5.5c0,1.9,0.8,3.6,2.1,4.8c-5.3,0.2-9.5,4.5-9.5,9.8v7.7c0,0.5,0.4,0.9,0.9,0.9h26.4
			c0.5,0,0.9-0.4,0.9-0.9v-7.7C326.8,73.9,322.5,69.6,317.3,69.4z M311.6,55.3h6.8v2.9c0,1.5-1.2,2.7-2.7,2.7h-8v-0.1v-1.6h0
			C307.7,57,309.5,55.3,311.6,55.3z M307.7,64.6v-1.9h8c0.6,0,1.2-0.1,1.7-0.3v2.2c0,2.7-2.2,4.8-4.9,4.8S307.7,67.2,307.7,64.6z
			 M316.4,71.3l-3.7,6.2l-3.7-6.2H316.4z M324.9,85.9L324.9,85.9h-2.1v-6.6c0-0.5-0.4-0.9-0.9-0.9s-0.9,0.4-0.9,0.9v6.6h-16.2v-6.6
			c0-0.5-0.4-0.9-0.9-0.9s-0.9,0.4-0.9,0.9v6.6h-2.4v-6.7c0-3.9,2.9-7.1,6.6-7.8l5,8.4c0.2,0.3,0.5,0.5,0.8,0.5
			c0.3,0,0.6-0.2,0.8-0.5l5-8.4c3.6,0.7,6.3,3.9,6.3,7.7V85.9L324.9,85.9z"/>
		<path class="primary" d="M339.7,39.8h-5.3c-0.5,0-0.9,0.4-0.9,0.9s0.4,0.9,0.9,0.9h5.3c1.6,0,2.8,1.3,2.8,2.8V57
			c0,1.6-1.3,2.8-2.8,2.8h-3.4c-0.3,0-0.5,0.1-0.7,0.3l-4.5,4.4v-3.8c0-0.5-0.4-0.9-0.9-0.9h-8c-0.5,0-0.9,0.4-0.9,0.9
			s0.4,0.9,0.9,0.9h7.1v5.1c0,0.4,0.2,0.7,0.6,0.9c0.1,0,0.2,0.1,0.4,0.1c0.2,0,0.5-0.1,0.7-0.3l5.8-5.8h3c2.6,0,4.7-2.1,4.7-4.7
			V44.5C344.5,41.9,342.3,39.8,339.7,39.8z"/>
		<path class="primary" d="M331.6,40c-0.2-0.2-0.4-0.3-0.7-0.3c-0.2,0-0.5,0.1-0.7,0.3c-0.2,0.2-0.3,0.4-0.3,0.7s0.1,0.5,0.3,0.7
			c0.2,0.2,0.4,0.3,0.7,0.3c0.2,0,0.5-0.1,0.7-0.3c0.2-0.2,0.3-0.4,0.3-0.7S331.8,40.2,331.6,40z"/>
		<path class="primary" d="M327.5,39.8h-5.3c-2.6,0-4.7,2.1-4.7,4.7v5.2c0,0.5,0.4,0.9,0.9,0.9s0.9-0.4,0.9-0.9v-5.2
			c0-1.6,1.3-2.8,2.8-2.8h5.3c0.5,0,0.9-0.4,0.9-0.9S328,39.8,327.5,39.8z"/>
		<path class="primary" d="M318.6,79.8h-1.3c-0.5,0-0.9,0.4-0.9,0.9c0,0.5,0.4,0.9,0.9,0.9h1.3c0.5,0,0.9-0.4,0.9-0.9
			C319.6,80.2,319.2,79.8,318.6,79.8z"/>
		<path class="primary" d="M311,64.3c-0.2-0.2-0.4-0.3-0.7-0.3c-0.2,0-0.5,0.1-0.7,0.3c-0.2,0.2-0.3,0.4-0.3,0.7
			c0,0.2,0.1,0.5,0.3,0.7c0.2,0.2,0.4,0.3,0.7,0.3c0.2,0,0.5-0.1,0.7-0.3c0.2-0.2,0.3-0.4,0.3-0.7C311.3,64.7,311.2,64.5,311,64.3z"
			/>
		<path class="primary" d="M315.5,64.3c-0.2-0.2-0.4-0.3-0.7-0.3c-0.2,0-0.5,0.1-0.7,0.3c-0.2,0.2-0.3,0.4-0.3,0.7
			c0,0.2,0.1,0.5,0.3,0.7c0.2,0.2,0.4,0.3,0.7,0.3c0.2,0,0.5-0.1,0.7-0.3c0.2-0.2,0.3-0.4,0.3-0.7C315.8,64.7,315.7,64.5,315.5,64.3
			z"/>
		<path class="primary" d="M334.5,48.2c-0.1-1.7-1.5-3.1-3.2-3.2c-1-0.1-1.9,0.3-2.6,0.9c-0.7,0.7-1.1,1.6-1.1,2.5
			c0,0.5,0.4,0.9,0.9,0.9s0.9-0.4,0.9-0.9c0-0.4,0.2-0.9,0.5-1.2c0.3-0.3,0.8-0.5,1.2-0.4c0.8,0.1,1.4,0.7,1.5,1.5
			c0.1,0.8-0.5,1.5-1.2,1.7c-0.8,0.2-1.3,0.8-1.3,1.6v1.9c0,0.5,0.4,0.9,0.9,0.9c0.5,0,0.9-0.4,0.9-0.9v-1.7
			C333.5,51.3,334.6,49.8,334.5,48.2z"/>
		<path class="primary" d="M331.6,55.9c-0.2-0.2-0.4-0.3-0.7-0.3c-0.2,0-0.5,0.1-0.7,0.3c-0.2,0.2-0.3,0.4-0.3,0.7
			c0,0.2,0.1,0.5,0.3,0.7c0.2,0.2,0.4,0.3,0.7,0.3c0.2,0,0.5-0.1,0.7-0.3s0.3-0.4,0.3-0.7C331.9,56.3,331.8,56.1,331.6,55.9z"/>
	</g>
</g>
<g id="feature-5">
	<g>
		<path class="primary" d="M254.8,40c-0.2-0.2-0.4-0.3-0.7-0.3c-0.2,0-0.5,0.1-0.7,0.3c-0.2,0.2-0.3,0.4-0.3,0.7
			c0,0.2,0.1,0.5,0.3,0.7c0.2,0.2,0.4,0.3,0.7,0.3s0.5-0.1,0.7-0.3c0.2-0.2,0.3-0.4,0.3-0.7S255,40.2,254.8,40z"/>
		<path class="primary" d="M285.6,57.3c0-0.3-0.1-0.5-0.4-0.7l-4.7-3.4V42.6c0-1.6-1.3-2.8-2.8-2.8h-19.8c-0.5,0-0.9,0.4-0.9,0.9
			s0.4,0.9,0.9,0.9h19.8c0.5,0,0.9,0.4,0.9,0.9V61l-11.4,9.3l-2.9-2.1c-1.6-1.2-3.9-1.2-5.5,0l-2.9,2.1L244.5,61V42.6
			c0-0.5,0.4-0.9,0.9-0.9h5.1c0.5,0,0.9-0.4,0.9-0.9s-0.4-0.9-0.9-0.9h-5.1c-1.6,0-2.8,1.3-2.8,2.8v10.6l-4.7,3.4c0,0,0,0,0,0
			c-0.2,0.2-0.4,0.4-0.4,0.8v25.8c0,2.6,2.1,4.7,4.7,4.7h38.6c2.6,0,4.7-2.1,4.7-4.7L285.6,57.3C285.6,57.3,285.6,57.3,285.6,57.3z
			 M280.5,55.5l2.6,1.9l-2.6,2.1V55.5z M242.6,55.5v4l-2.6-2.1L242.6,55.5z M239.4,59.3l14.9,12.2l-14.9,10.8V59.3z M280.9,85.9
			h-38.6c-1.1,0-2-0.6-2.5-1.5l20.2-14.6c1-0.7,2.3-0.7,3.3,0l16.1,11.6h-9.4c-0.5,0-0.9,0.4-0.9,0.9s0.4,0.9,0.9,0.9h12l1.5,1.1
			C282.9,85.3,282,85.9,280.9,85.9z M283.7,82.3l-14.9-10.8l14.9-12.2V82.3z"/>
		<path class="primary" d="M266.2,51c-0.4-0.4-1-0.4-1.3,0l-4.6,4.6l-2-2c-0.4-0.4-1-0.4-1.3,0c-0.4,0.4-0.4,1,0,1.3l2.7,2.7
			c0.2,0.2,0.4,0.3,0.7,0.3s0.5-0.1,0.7-0.3l5.3-5.3C266.5,51.9,266.5,51.3,266.2,51z"/>
		<path class="primary" d="M261.6,44.8c-5.2,0-9.4,4.2-9.4,9.4s4.2,9.4,9.4,9.4s9.4-4.2,9.4-9.4S266.8,44.8,261.6,44.8z M261.6,61.8
			c-4.2,0-7.5-3.4-7.5-7.5s3.4-7.5,7.5-7.5s7.5,3.4,7.5,7.5S265.7,61.8,261.6,61.8z"/>
		<path class="primary" d="M266.3,81.7c-0.2-0.2-0.4-0.3-0.7-0.3c-0.2,0-0.5,0.1-0.7,0.3c-0.2,0.2-0.3,0.4-0.3,0.7
			c0,0.2,0.1,0.5,0.3,0.7c0.2,0.2,0.4,0.3,0.7,0.3c0.2,0,0.5-0.1,0.7-0.3c0.2-0.2,0.3-0.4,0.3-0.7C266.6,82.1,266.5,81.8,266.3,81.7
			z"/>
	</g>
	<g>
		<path class="primary" d="M254.8,40c-0.2-0.2-0.4-0.3-0.7-0.3c-0.2,0-0.5,0.1-0.7,0.3c-0.2,0.2-0.3,0.4-0.3,0.7
			c0,0.2,0.1,0.5,0.3,0.7c0.2,0.2,0.4,0.3,0.7,0.3s0.5-0.1,0.7-0.3c0.2-0.2,0.3-0.4,0.3-0.7S255,40.2,254.8,40z"/>
		<path class="primary" d="M285.6,57.3c0-0.3-0.1-0.5-0.4-0.7l-4.7-3.4V42.6c0-1.6-1.3-2.8-2.8-2.8h-19.8c-0.5,0-0.9,0.4-0.9,0.9
			s0.4,0.9,0.9,0.9h19.8c0.5,0,0.9,0.4,0.9,0.9V61l-11.4,9.3l-2.9-2.1c-1.6-1.2-3.9-1.2-5.5,0l-2.9,2.1L244.5,61V42.6
			c0-0.5,0.4-0.9,0.9-0.9h5.1c0.5,0,0.9-0.4,0.9-0.9s-0.4-0.9-0.9-0.9h-5.1c-1.6,0-2.8,1.3-2.8,2.8v10.6l-4.7,3.4c0,0,0,0,0,0
			c-0.2,0.2-0.4,0.4-0.4,0.8v25.8c0,2.6,2.1,4.7,4.7,4.7h38.6c2.6,0,4.7-2.1,4.7-4.7L285.6,57.3C285.6,57.3,285.6,57.3,285.6,57.3z
			 M280.5,55.5l2.6,1.9l-2.6,2.1V55.5z M242.6,55.5v4l-2.6-2.1L242.6,55.5z M239.4,59.3l14.9,12.2l-14.9,10.8V59.3z M280.9,85.9
			h-38.6c-1.1,0-2-0.6-2.5-1.5l20.2-14.6c1-0.7,2.3-0.7,3.3,0l16.1,11.6h-9.4c-0.5,0-0.9,0.4-0.9,0.9s0.4,0.9,0.9,0.9h12l1.5,1.1
			C282.9,85.3,282,85.9,280.9,85.9z M283.7,82.3l-14.9-10.8l14.9-12.2V82.3z"/>
		<path class="primary" d="M266.2,51c-0.4-0.4-1-0.4-1.3,0l-4.6,4.6l-2-2c-0.4-0.4-1-0.4-1.3,0c-0.4,0.4-0.4,1,0,1.3l2.7,2.7
			c0.2,0.2,0.4,0.3,0.7,0.3s0.5-0.1,0.7-0.3l5.3-5.3C266.5,51.9,266.5,51.3,266.2,51z"/>
		<path class="primary" d="M261.6,44.8c-5.2,0-9.4,4.2-9.4,9.4s4.2,9.4,9.4,9.4s9.4-4.2,9.4-9.4S266.8,44.8,261.6,44.8z M261.6,61.8
			c-4.2,0-7.5-3.4-7.5-7.5s3.4-7.5,7.5-7.5s7.5,3.4,7.5,7.5S265.7,61.8,261.6,61.8z"/>
		<path class="primary" d="M266.3,81.7c-0.2-0.2-0.4-0.3-0.7-0.3c-0.2,0-0.5,0.1-0.7,0.3c-0.2,0.2-0.3,0.4-0.3,0.7
			c0,0.2,0.1,0.5,0.3,0.7c0.2,0.2,0.4,0.3,0.7,0.3c0.2,0,0.5-0.1,0.7-0.3c0.2-0.2,0.3-0.4,0.3-0.7C266.6,82.1,266.5,81.8,266.3,81.7
			z"/>
	</g>
</g>
<g id="feature-4">
	<g>
		<path class="primary" d="M190.8,69c0.7-0.4,1.5-0.1,1.9,0.6l2.6,4.9c0.2,0.4,0.6,0.6,1.1,0.5c0.4-0.1,0.7-0.5,0.7-0.9v-7.2
			c0-0.5-0.4-0.9-0.9-0.9c-0.5,0-0.9,0.4-0.9,0.9v3.4l-0.9-1.6c-0.9-1.6-2.8-2.2-4.4-1.4c-1.4,0.7-2.1,2.2-1.7,3.7l1.7,7.1
			c0.4,1.7,1.1,3.2,2.1,4.6l3.4,4.6c0.2,0.3,0.5,0.4,0.8,0.4c0.2,0,0.4-0.1,0.6-0.2c0.4-0.3,0.5-0.9,0.2-1.3l-3.4-4.6
			c-0.9-1.2-1.5-2.5-1.8-3.9l-1.7-7.1C189.9,70,190.2,69.3,190.8,69z"/>
		<path class="primary" d="M211.9,65c-0.6,0-1.1,0.1-1.5,0.4c-0.5-1.2-1.6-2.1-3-2.1c-0.6,0-1.1,0.2-1.6,0.4c-0.5-1.1-1.6-1.9-2.9-1.9
			c-0.5,0-0.9,0.1-1.3,0.3v-4.5c0-1.8-1.4-3.2-3.2-3.2c-1.8,0-3.2,1.4-3.2,3.2v1.6c0,0.5,0.4,0.9,0.9,0.9s0.9-0.4,0.9-0.9v-1.6
			c0-0.7,0.6-1.3,1.3-1.3c0.7,0,1.3,0.6,1.3,1.3V71c0,0.5,0.4,0.9,0.9,0.9s0.9-0.4,0.9-0.9v-5.8c0-0.7,0.6-1.3,1.3-1.3
			c0.7,0,1.3,0.6,1.3,1.3V71c0,0.5,0.4,0.9,0.9,0.9c0.5,0,0.9-0.4,0.9-0.9v-4.4c0-0.7,0.6-1.3,1.3-1.3c0.7,0,1.3,0.6,1.3,1.3V71
			c0,0.5,0.4,0.9,0.9,0.9c0.5,0,0.9-0.4,0.9-0.9v-2.8c0-0.7,0.6-1.3,1.3-1.3s1.3,0.6,1.3,1.3v7.9c0,2.1-0.3,4.2-1,6.2l-1.3,4.2
			c-0.2,0.5,0.1,1,0.6,1.2c0.1,0,0.2,0,0.3,0c0.4,0,0.8-0.3,0.9-0.7l1.3-4.2c0.7-2.2,1-4.5,1-6.8v-7.9C215.1,66.5,213.7,65,211.9,65
			z"/>
		<path class="primary" d="M224.6,44.7c-0.2-0.6-0.7-1-1.3-1.1l-2.9-0.4l-1.3-2.6c-0.3-0.5-0.8-0.9-1.4-0.9c0,0,0,0,0,0
			c-0.6,0-1.1,0.3-1.4,0.9l-1.3,2.6l-2.9,0.4c-0.6,0.1-1.1,0.5-1.3,1.1c-0.2,0.6,0,1.2,0.4,1.6l2.1,2l-0.5,2.9
			c-0.1,0.6,0.1,1.2,0.6,1.5c0.3,0.2,0.6,0.3,0.9,0.3c0.3,0,0.5-0.1,0.7-0.2l2.6-1.4l2.6,1.3c0.5,0.3,1.2,0.2,1.7-0.1
			c0.5-0.4,0.7-0.9,0.6-1.5l-0.5-2.9l2.1-2C224.6,45.9,224.8,45.3,224.6,44.7z M220.7,47.2c-0.4,0.4-0.5,0.9-0.5,1.4l0.4,2.4
			l-2.2-1.1c-0.5-0.2-1-0.2-1.5,0l-2.2,1.1l0.4-2.4c0.1-0.5-0.1-1-0.5-1.4l-1.8-1.7l2.4-0.4c0.5-0.1,1-0.4,1.2-0.9l1.1-2.2l1.1,2.2
			c0.2,0.5,0.7,0.8,1.2,0.9l2.4,0.4L220.7,47.2z"/>
		<path class="primary" d="M207.5,44.7c-0.2-0.6-0.7-1-1.3-1.1l-2.9-0.4l-1.3-2.6c-0.3-0.5-0.8-0.9-1.4-0.9c0,0,0,0,0,0
			c-0.6,0-1.1,0.3-1.4,0.9l-1.3,2.6l-2.9,0.4c-0.6,0.1-1.1,0.5-1.3,1.1c-0.2,0.6,0,1.2,0.4,1.6l2.1,2l-0.5,2.9
			c-0.1,0.6,0.1,1.2,0.6,1.5c0.3,0.2,0.6,0.3,0.9,0.3c0.3,0,0.5-0.1,0.7-0.2l2.6-1.4l2.6,1.3c0.5,0.3,1.2,0.2,1.7-0.1
			c0.5-0.4,0.7-0.9,0.6-1.5l-0.5-2.9l2.1-2C207.5,45.9,207.7,45.3,207.5,44.7z M203.6,47.2c-0.4,0.4-0.5,0.9-0.5,1.4l0.4,2.4
			l-2.2-1.1c-0.5-0.2-1-0.2-1.5,0l-2.2,1.1l0.4-2.4c0.1-0.5-0.1-1-0.5-1.4l-1.8-1.7l2.4-0.4c0.5-0.1,1-0.4,1.2-0.9l1.1-2.2l1.1,2.2
			c0.2,0.5,0.7,0.8,1.2,0.9l2.4,0.4L203.6,47.2z"/>
		<path class="primary" d="M190.4,44.7c-0.2-0.6-0.7-1-1.3-1.1l-2.9-0.4l-1.3-2.6c-0.3-0.5-0.8-0.9-1.4-0.9c0,0,0,0,0,0
			c-0.6,0-1.1,0.3-1.4,0.9l-1.3,2.6l-2.9,0.4c-0.6,0.1-1.1,0.5-1.3,1.1c-0.2,0.6,0,1.2,0.4,1.6l2.1,2l-0.5,2.9
			c-0.1,0.6,0.1,1.2,0.6,1.5c0.3,0.2,0.6,0.3,0.9,0.3c0.3,0,0.5-0.1,0.7-0.2l2.6-1.4l2.6,1.3c0.5,0.3,1.2,0.2,1.7-0.1
			c0.5-0.4,0.7-0.9,0.6-1.5l-0.5-2.9l2.1-2C190.5,45.9,190.6,45.3,190.4,44.7z M186.5,47.2c-0.4,0.4-0.5,0.9-0.5,1.4l0.4,2.4
			l-2.2-1.1c-0.5-0.2-1-0.2-1.5,0l-2.2,1.1l0.4-2.4c0.1-0.5-0.1-1-0.5-1.4l-1.8-1.7l2.4-0.4c0.5-0.1,1-0.4,1.2-0.9l1.1-2.2l1.1,2.2
			c0.2,0.5,0.7,0.8,1.2,0.9l2.4,0.4L186.5,47.2z"/>
		<path class="primary" d="M196.8,62.6c-0.2-0.2-0.4-0.3-0.7-0.3c-0.2,0-0.5,0.1-0.7,0.3s-0.3,0.4-0.3,0.7c0,0.2,0.1,0.5,0.3,0.7
			c0.2,0.2,0.4,0.3,0.7,0.3c0.2,0,0.5-0.1,0.7-0.3c0.2-0.2,0.3-0.4,0.3-0.7C197.1,63,197,62.7,196.8,62.6z"/>
	</g>
	<g>
		<path class="primary" d="M190.8,69c0.7-0.4,1.5-0.1,1.9,0.6l2.6,4.9c0.2,0.4,0.6,0.6,1.1,0.5c0.4-0.1,0.7-0.5,0.7-0.9v-7.2
			c0-0.5-0.4-0.9-0.9-0.9c-0.5,0-0.9,0.4-0.9,0.9v3.4l-0.9-1.6c-0.9-1.6-2.8-2.2-4.4-1.4c-1.4,0.7-2.1,2.2-1.7,3.7l1.7,7.1
			c0.4,1.7,1.1,3.2,2.1,4.6l3.4,4.6c0.2,0.3,0.5,0.4,0.8,0.4c0.2,0,0.4-0.1,0.6-0.2c0.4-0.3,0.5-0.9,0.2-1.3l-3.4-4.6
			c-0.9-1.2-1.5-2.5-1.8-3.9l-1.7-7.1C189.9,70,190.2,69.3,190.8,69z"/>
		<path class="primary" d="M211.9,65c-0.6,0-1.1,0.1-1.5,0.4c-0.5-1.2-1.6-2.1-3-2.1c-0.6,0-1.1,0.2-1.6,0.4
			c-0.5-1.1-1.6-1.9-2.9-1.9c-0.5,0-0.9,0.1-1.3,0.3v-4.5c0-1.8-1.4-3.2-3.2-3.2c-1.8,0-3.2,1.4-3.2,3.2v1.6c0,0.5,0.4,0.9,0.9,0.9
			s0.9-0.4,0.9-0.9v-1.6c0-0.7,0.6-1.3,1.3-1.3c0.7,0,1.3,0.6,1.3,1.3V71c0,0.5,0.4,0.9,0.9,0.9s0.9-0.4,0.9-0.9v-5.8
			c0-0.7,0.6-1.3,1.3-1.3c0.7,0,1.3,0.6,1.3,1.3V71c0,0.5,0.4,0.9,0.9,0.9c0.5,0,0.9-0.4,0.9-0.9v-4.4c0-0.7,0.6-1.3,1.3-1.3
			c0.7,0,1.3,0.6,1.3,1.3V71c0,0.5,0.4,0.9,0.9,0.9c0.5,0,0.9-0.4,0.9-0.9v-2.8c0-0.7,0.6-1.3,1.3-1.3s1.3,0.6,1.3,1.3v7.9
			c0,2.1-0.3,4.2-1,6.2l-1.3,4.2c-0.2,0.5,0.1,1,0.6,1.2c0.1,0,0.2,0,0.3,0c0.4,0,0.8-0.3,0.9-0.7l1.3-4.2c0.7-2.2,1-4.5,1-6.8v-7.9
			C215.1,66.5,213.7,65,211.9,65z"/>
		<path class="primary" d="M224.6,44.7c-0.2-0.6-0.7-1-1.3-1.1l-2.9-0.4l-1.3-2.6c-0.3-0.5-0.8-0.9-1.4-0.9c0,0,0,0,0,0
			c-0.6,0-1.1,0.3-1.4,0.9l-1.3,2.6l-2.9,0.4c-0.6,0.1-1.1,0.5-1.3,1.1c-0.2,0.6,0,1.2,0.4,1.6l2.1,2l-0.5,2.9
			c-0.1,0.6,0.1,1.2,0.6,1.5c0.3,0.2,0.6,0.3,0.9,0.3c0.3,0,0.5-0.1,0.7-0.2l2.6-1.4l2.6,1.3c0.5,0.3,1.2,0.2,1.7-0.1
			c0.5-0.4,0.7-0.9,0.6-1.5l-0.5-2.9l2.1-2C224.6,45.9,224.8,45.3,224.6,44.7z M220.7,47.2c-0.4,0.4-0.5,0.9-0.5,1.4l0.4,2.4
			l-2.2-1.1c-0.5-0.2-1-0.2-1.5,0l-2.2,1.1l0.4-2.4c0.1-0.5-0.1-1-0.5-1.4l-1.8-1.7l2.4-0.4c0.5-0.1,1-0.4,1.2-0.9l1.1-2.2l1.1,2.2
			c0.2,0.5,0.7,0.8,1.2,0.9l2.4,0.4L220.7,47.2z"/>
		<path class="primary" d="M207.5,44.7c-0.2-0.6-0.7-1-1.3-1.1l-2.9-0.4l-1.3-2.6c-0.3-0.5-0.8-0.9-1.4-0.9c0,0,0,0,0,0
			c-0.6,0-1.1,0.3-1.4,0.9l-1.3,2.6l-2.9,0.4c-0.6,0.1-1.1,0.5-1.3,1.1c-0.2,0.6,0,1.2,0.4,1.6l2.1,2l-0.5,2.9
			c-0.1,0.6,0.1,1.2,0.6,1.5c0.3,0.2,0.6,0.3,0.9,0.3c0.3,0,0.5-0.1,0.7-0.2l2.6-1.4l2.6,1.3c0.5,0.3,1.2,0.2,1.7-0.1
			c0.5-0.4,0.7-0.9,0.6-1.5l-0.5-2.9l2.1-2C207.5,45.9,207.7,45.3,207.5,44.7z M203.6,47.2c-0.4,0.4-0.5,0.9-0.5,1.4l0.4,2.4
			l-2.2-1.1c-0.5-0.2-1-0.2-1.5,0l-2.2,1.1l0.4-2.4c0.1-0.5-0.1-1-0.5-1.4l-1.8-1.7l2.4-0.4c0.5-0.1,1-0.4,1.2-0.9l1.1-2.2l1.1,2.2
			c0.2,0.5,0.7,0.8,1.2,0.9l2.4,0.4L203.6,47.2z"/>
		<path class="primary" d="M190.4,44.7c-0.2-0.6-0.7-1-1.3-1.1l-2.9-0.4l-1.3-2.6c-0.3-0.5-0.8-0.9-1.4-0.9c0,0,0,0,0,0
			c-0.6,0-1.1,0.3-1.4,0.9l-1.3,2.6l-2.9,0.4c-0.6,0.1-1.1,0.5-1.3,1.1c-0.2,0.6,0,1.2,0.4,1.6l2.1,2l-0.5,2.9
			c-0.1,0.6,0.1,1.2,0.6,1.5c0.3,0.2,0.6,0.3,0.9,0.3c0.3,0,0.5-0.1,0.7-0.2l2.6-1.4l2.6,1.3c0.5,0.3,1.2,0.2,1.7-0.1
			c0.5-0.4,0.7-0.9,0.6-1.5l-0.5-2.9l2.1-2C190.5,45.9,190.6,45.3,190.4,44.7z M186.5,47.2c-0.4,0.4-0.5,0.9-0.5,1.4l0.4,2.4
			l-2.2-1.1c-0.5-0.2-1-0.2-1.5,0l-2.2,1.1l0.4-2.4c0.1-0.5-0.1-1-0.5-1.4l-1.8-1.7l2.4-0.4c0.5-0.1,1-0.4,1.2-0.9l1.1-2.2l1.1,2.2
			c0.2,0.5,0.7,0.8,1.2,0.9l2.4,0.4L186.5,47.2z"/>
		<path class="primary" d="M196.8,62.6c-0.2-0.2-0.4-0.3-0.7-0.3c-0.2,0-0.5,0.1-0.7,0.3s-0.3,0.4-0.3,0.7c0,0.2,0.1,0.5,0.3,0.7
			c0.2,0.2,0.4,0.3,0.7,0.3c0.2,0,0.5-0.1,0.7-0.3c0.2-0.2,0.3-0.4,0.3-0.7C197.1,63,197,62.7,196.8,62.6z"/>
	</g>
</g>
<g id="feature-3">
	<g>
		<path class="primary" d="M159,64.9c0.4-0.6,0.7-1.4,0.7-2.2V62c0-2.2-1.8-3.9-3.9-3.9c-1.1,0-2.1,0.4-2.8,1.2c-1.8-5.5-7-9.5-13.2-9.5
			c-6.1,0-11.3,4-13.2,9.5c-0.7-0.7-1.7-1.2-2.8-1.2c-2.2,0-3.9,1.8-3.9,3.9v0.8c0,0.8,0.2,1.6,0.7,2.2c-2.7,0.6-4.8,3-4.8,5.9v1.9
			c0,0.5,0.4,0.9,0.9,0.9h4.9c0.5,0,0.9-0.4,0.9-0.9s-0.4-0.9-0.9-0.9h-3.9v-1c0-2.3,1.9-4.2,4.2-4.2h4.4c0.4,1.6,1,3.1,1.8,4.4
			l-10.7,10.7c-1.4,1.4-1.4,3.6,0,5c0.7,0.7,1.6,1,2.5,1s1.8-0.3,2.5-1l5.9-5.9c0.4-0.4,0.4-1,0-1.3c-0.4-0.4-1-0.4-1.3,0l-5.9,5.9
			c-0.6,0.6-1.7,0.6-2.3,0c-0.6-0.6-0.6-1.7,0-2.3l10.5-10.5c2.5,3,6.3,4.9,10.6,4.9c6.6,0,12.1-4.6,13.5-10.8h4.4
			c2.3,0,4.2,1.9,4.2,4.2v1h-8.8c-0.5,0-0.9,0.4-0.9,0.9s0.4,0.9,0.9,0.9h9.8c0.5,0,0.9-0.4,0.9-0.9v-1.9
			C163.8,67.9,161.7,65.5,159,64.9z M125.9,62.7c0,1.1-0.9,2.1-2.1,2.1s-2.1-0.9-2.1-2.1V62c0-1.1,0.9-2.1,2.1-2.1s2.1,0.9,2.1,2.1
			V62.7z M139.8,75.6c-6.6,0-12-5.4-12-12s5.4-12,12-12c6.6,0,12,5.4,12,12S146.4,75.6,139.8,75.6z M157.8,62.7
			c0,1.1-0.9,2.1-2.1,2.1c-1.1,0-2.1-0.9-2.1-2.1V62c0-1.1,0.9-2.1,2.1-2.1c1.1,0,2.1,0.9,2.1,2.1V62.7z"/>
		<path class="primary" d="M139.8,53.5c-5.6,0-10.1,4.5-10.1,10.1c0,2.9,1.2,5.5,3.2,7.4c0,0,0.1,0.1,0.1,0.1c1.8,1.7,4.2,2.7,6.8,2.7
			c2.6,0,5-1,6.8-2.7c0,0,0.1-0.1,0.1-0.1c2-1.8,3.2-4.5,3.2-7.4C149.9,58,145.3,53.5,139.8,53.5z M139.8,71.9
			c-1.9,0-3.7-0.7-5.1-1.8c1-1.9,2.9-3.1,5.1-3.1s4.1,1.2,5.1,3.1C143.5,71.2,141.7,71.9,139.8,71.9z M137.8,63.2v-0.7
			c0-1.1,0.9-2,2-2c1.1,0,2,0.9,2,2v0.7c0,1.1-0.9,2-2,2C138.7,65.1,137.8,64.3,137.8,63.2z M146.2,68.7c-0.9-1.4-2.1-2.4-3.6-3
			c0.6-0.7,1-1.6,1-2.5v-0.7c0-2.1-1.7-3.9-3.9-3.9c-2.1,0-3.9,1.7-3.9,3.9v0.7c0,1,0.4,1.9,1,2.5c-1.5,0.6-2.7,1.6-3.6,3
			c-1.1-1.4-1.8-3.2-1.8-5.1c0-4.5,3.7-8.3,8.3-8.3c4.5,0,8.3,3.7,8.3,8.3C148,65.5,147.3,67.3,146.2,68.7z"/>
		<path class="primary" d="M130.7,77c-0.2-0.2-0.4-0.3-0.7-0.3c-0.2,0-0.5,0.1-0.7,0.3c-0.2,0.2-0.3,0.4-0.3,0.7s0.1,0.5,0.3,0.7
			c0.2,0.2,0.4,0.3,0.7,0.3c0.2,0,0.5-0.1,0.7-0.3c0.2-0.2,0.3-0.4,0.3-0.7S130.9,77.2,130.7,77z"/>
		<path class="primary" d="M139.8,39.8c-0.5,0-0.9,0.4-0.9,0.9v3.2c0,0.5,0.4,0.9,0.9,0.9s0.9-0.4,0.9-0.9v-3.2
			C140.7,40.2,140.3,39.8,139.8,39.8z"/>
		<path class="primary" d="M140.4,46.3c-0.2-0.2-0.4-0.3-0.7-0.3c-0.2,0-0.5,0.1-0.7,0.3s-0.3,0.4-0.3,0.7c0,0.2,0.1,0.5,0.3,0.7
			c0.2,0.2,0.4,0.3,0.7,0.3c0.2,0,0.5-0.1,0.7-0.3c0.2-0.2,0.3-0.4,0.3-0.7C140.7,46.7,140.6,46.5,140.4,46.3z"/>
		<path class="primary" d="M147.7,43.4c-0.4-0.4-1-0.4-1.3,0l-1.6,1.6c-0.4,0.4-0.4,1,0,1.3c0.2,0.2,0.4,0.3,0.7,0.3
			c0.2,0,0.5-0.1,0.7-0.3l1.6-1.6C148.1,44.4,148.1,43.8,147.7,43.4z"/>
		<path class="primary" d="M134.8,45.1l-1.7-1.7c-0.4-0.4-1-0.4-1.3,0c-0.4,0.4-0.4,1,0,1.3l1.7,1.7c0.2,0.2,0.4,0.3,0.7,0.3
			c0.2,0,0.5-0.1,0.7-0.3C135.1,46.1,135.1,45.5,134.8,45.1z"/>
	</g>
	<g>
		<path class="primary" d="M159,64.9c0.4-0.6,0.7-1.4,0.7-2.2V62c0-2.2-1.8-3.9-3.9-3.9c-1.1,0-2.1,0.4-2.8,1.2
			c-1.8-5.5-7-9.5-13.2-9.5c-6.1,0-11.3,4-13.2,9.5c-0.7-0.7-1.7-1.2-2.8-1.2c-2.2,0-3.9,1.8-3.9,3.9v0.8c0,0.8,0.2,1.6,0.7,2.2
			c-2.7,0.6-4.8,3-4.8,5.9v1.9c0,0.5,0.4,0.9,0.9,0.9h4.9c0.5,0,0.9-0.4,0.9-0.9s-0.4-0.9-0.9-0.9h-3.9v-1c0-2.3,1.9-4.2,4.2-4.2
			h4.4c0.4,1.6,1,3.1,1.8,4.4l-10.7,10.7c-1.4,1.4-1.4,3.6,0,5c0.7,0.7,1.6,1,2.5,1s1.8-0.3,2.5-1l5.9-5.9c0.4-0.4,0.4-1,0-1.3
			c-0.4-0.4-1-0.4-1.3,0l-5.9,5.9c-0.6,0.6-1.7,0.6-2.3,0c-0.6-0.6-0.6-1.7,0-2.3l10.5-10.5c2.5,3,6.3,4.9,10.6,4.9
			c6.6,0,12.1-4.6,13.5-10.8h4.4c2.3,0,4.2,1.9,4.2,4.2v1h-8.8c-0.5,0-0.9,0.4-0.9,0.9s0.4,0.9,0.9,0.9h9.8c0.5,0,0.9-0.4,0.9-0.9
			v-1.9C163.8,67.9,161.7,65.5,159,64.9z M125.9,62.7c0,1.1-0.9,2.1-2.1,2.1s-2.1-0.9-2.1-2.1V62c0-1.1,0.9-2.1,2.1-2.1
			s2.1,0.9,2.1,2.1V62.7z M139.8,75.6c-6.6,0-12-5.4-12-12s5.4-12,12-12c6.6,0,12,5.4,12,12S146.4,75.6,139.8,75.6z M157.8,62.7
			c0,1.1-0.9,2.1-2.1,2.1c-1.1,0-2.1-0.9-2.1-2.1V62c0-1.1,0.9-2.1,2.1-2.1c1.1,0,2.1,0.9,2.1,2.1V62.7z"/>
		<path class="primary" d="M139.8,53.5c-5.6,0-10.1,4.5-10.1,10.1c0,2.9,1.2,5.5,3.2,7.4c0,0,0.1,0.1,0.1,0.1
			c1.8,1.7,4.2,2.7,6.8,2.7c2.6,0,5-1,6.8-2.7c0,0,0.1-0.1,0.1-0.1c2-1.8,3.2-4.5,3.2-7.4C149.9,58,145.3,53.5,139.8,53.5z
			 M139.8,71.9c-1.9,0-3.7-0.7-5.1-1.8c1-1.9,2.9-3.1,5.1-3.1s4.1,1.2,5.1,3.1C143.5,71.2,141.7,71.9,139.8,71.9z M137.8,63.2v-0.7
			c0-1.1,0.9-2,2-2c1.1,0,2,0.9,2,2v0.7c0,1.1-0.9,2-2,2C138.7,65.1,137.8,64.3,137.8,63.2z M146.2,68.7c-0.9-1.4-2.1-2.4-3.6-3
			c0.6-0.7,1-1.6,1-2.5v-0.7c0-2.1-1.7-3.9-3.9-3.9c-2.1,0-3.9,1.7-3.9,3.9v0.7c0,1,0.4,1.9,1,2.5c-1.5,0.6-2.7,1.6-3.6,3
			c-1.1-1.4-1.8-3.2-1.8-5.1c0-4.5,3.7-8.3,8.3-8.3c4.5,0,8.3,3.7,8.3,8.3C148,65.5,147.3,67.3,146.2,68.7z"/>
		<path class="primary" d="M130.7,77c-0.2-0.2-0.4-0.3-0.7-0.3c-0.2,0-0.5,0.1-0.7,0.3c-0.2,0.2-0.3,0.4-0.3,0.7s0.1,0.5,0.3,0.7
			c0.2,0.2,0.4,0.3,0.7,0.3c0.2,0,0.5-0.1,0.7-0.3c0.2-0.2,0.3-0.4,0.3-0.7S130.9,77.2,130.7,77z"/>
		<path class="primary" d="M139.8,39.8c-0.5,0-0.9,0.4-0.9,0.9v3.2c0,0.5,0.4,0.9,0.9,0.9s0.9-0.4,0.9-0.9v-3.2
			C140.7,40.2,140.3,39.8,139.8,39.8z"/>
		<path class="primary" d="M140.4,46.3c-0.2-0.2-0.4-0.3-0.7-0.3c-0.2,0-0.5,0.1-0.7,0.3s-0.3,0.4-0.3,0.7c0,0.2,0.1,0.5,0.3,0.7
			c0.2,0.2,0.4,0.3,0.7,0.3c0.2,0,0.5-0.1,0.7-0.3c0.2-0.2,0.3-0.4,0.3-0.7C140.7,46.7,140.6,46.5,140.4,46.3z"/>
		<path class="primary" d="M147.7,43.4c-0.4-0.4-1-0.4-1.3,0l-1.6,1.6c-0.4,0.4-0.4,1,0,1.3c0.2,0.2,0.4,0.3,0.7,0.3
			c0.2,0,0.5-0.1,0.7-0.3l1.6-1.6C148.1,44.4,148.1,43.8,147.7,43.4z"/>
		<path class="primary" d="M134.8,45.1l-1.7-1.7c-0.4-0.4-1-0.4-1.3,0c-0.4,0.4-0.4,1,0,1.3l1.7,1.7c0.2,0.2,0.4,0.3,0.7,0.3
			c0.2,0,0.5-0.1,0.7-0.3C135.1,46.1,135.1,45.5,134.8,45.1z"/>
	</g>
</g>
<g id="feature-2">
	<g>
		<path class="primary" d="M60.7,86.2c-0.2-0.2-0.4-0.3-0.7-0.3c-0.2,0-0.5,0.1-0.7,0.3c-0.2,0.2-0.3,0.4-0.3,0.7c0,0.2,0.1,0.5,0.3,0.7
			c0.2,0.2,0.4,0.3,0.7,0.3c0.2,0,0.5-0.1,0.7-0.3c0.2-0.2,0.3-0.4,0.3-0.7C61,86.6,60.9,86.3,60.7,86.2z"/>
		<path class="primary" d="M89.8,79.5c-0.2-0.2-0.4-0.3-0.7-0.3c-0.2,0-0.5,0.1-0.7,0.3s-0.3,0.4-0.3,0.7c0,0.2,0.1,0.5,0.3,0.7
			c0.2,0.2,0.4,0.3,0.7,0.3c0.2,0,0.5-0.1,0.7-0.3c0.2-0.2,0.3-0.4,0.3-0.7C90.1,80,90,79.7,89.8,79.5z"/>
		<path class="primary" d="M99.8,54.9c0.7-0.7,1.1-1.7,1.1-2.8v-0.8c0-2.2-1.8-3.9-3.9-3.9s-3.9,1.8-3.9,3.9v0.8c0,1.1,0.4,2.1,1.1,2.8
			c-1.5,0.8-2.7,2.4-2.9,4.2H87c-1.6,0-2.8,1.3-2.8,2.8c0,0.3,0.1,0.6,0.2,0.9h-11c0.1-0.3,0.2-0.6,0.2-0.9c0-1.6-1.3-2.8-2.8-2.8
			h-4.3c-0.3-1.8-1.4-3.3-2.9-4.2c0.7-0.7,1.1-1.7,1.1-2.8v-0.8c0-2.2-1.8-3.9-3.9-3.9c-2.2,0-3.9,1.8-3.9,3.9v0.8
			c0,1.1,0.4,2.1,1.1,2.8c-1.8,1-3,2.9-3,5.1v9.4v1.1c0,2.9,2.4,5.3,5.3,5.3h7.4v9c0,0.4,0.1,0.7,0.2,1.1h-3.7
			c-0.5,0-0.9,0.4-0.9,0.9c0,0.5,0.4,0.9,0.9,0.9h33.5c0.5,0,0.9-0.4,0.9-0.9c0-0.5-0.4-0.9-0.9-0.9h-7.7c0.1-0.3,0.2-0.7,0.2-1.1
			v-1.1c0-0.5-0.4-0.9-0.9-0.9s-0.9,0.4-0.9,0.9v1.1c0,0.6-0.5,1.1-1.1,1.1s-1.1-0.5-1.1-1.1V73c0-1.5,1.2-2.6,2.6-2.6h3.4h0.8h8.1
			v0.2c0,1.9-1.5,3.5-3.5,3.5h-8.4c-0.5,0-0.9,0.4-0.9,0.9v1.5c0,0.5,0.4,0.9,0.9,0.9s0.9-0.4,0.9-0.9v-0.6h7.4
			c2.9,0,5.3-2.4,5.3-5.3v-1.1V60C102.9,57.8,101.6,55.9,99.8,54.9z M95,51.4c0-1.1,0.9-2.1,2.1-2.1s2.1,0.9,2.1,2.1v0.8
			c0,1.1-0.9,2.1-2.1,2.1S95,53.3,95,52.1V51.4z M58.6,51.4c0-1.1,0.9-2.1,2.1-2.1c1.1,0,2.1,0.9,2.1,2.1v0.8c0,1.1-0.9,2.1-2.1,2.1
			c-1.1,0-2.1-0.9-2.1-2.1V51.4z M56.7,60c0-2.2,1.8-3.9,3.9-3.9c2.2,0,3.9,1.8,3.9,3.9c0,0.5,0.4,0.9,0.9,0.9h5.2
			c0.5,0,0.9,0.4,0.9,0.9c0,0.5-0.4,0.9-0.9,0.9h-5.5c-1.5,0-2.9-0.8-3.6-2.1c-0.2-0.5-0.8-0.6-1.3-0.4c-0.5,0.2-0.6,0.8-0.4,1.3
			c0.9,1.8,2.7,2.9,4.6,3.1c0,0.1-0.1,0.2-0.1,0.3v3.5h-7.9V60z M68.3,68.5h-1.8V65c0-0.1,0-0.2,0-0.3h1.9c-0.3,0.6-0.5,1.2-0.5,1.9
			C67.8,67.3,68,67.9,68.3,68.5z M71.6,84.8c0,0.6-0.5,1.1-1.1,1.1s-1.1-0.5-1.1-1.1v-9.9c0-0.5-0.4-0.9-0.9-0.9h-8.4
			c-1.9,0-3.5-1.5-3.5-3.5v-0.2h8.1h0.8H69c1.5,0,2.6,1.2,2.6,2.6V84.8z M76,85.9h-2.7c0.1-0.3,0.2-0.7,0.2-1.1V73
			c0-1-0.3-1.9-0.9-2.6H76V85.9z M79.8,85.9h-1.9V70.3h1.9V85.9z M84.4,85.9h-2.7V70.3h3.4c-0.5,0.7-0.9,1.7-0.9,2.6v11.8
			C84.2,85.2,84.3,85.6,84.4,85.9z M86.2,68.5H71.5c-1,0-1.9-0.8-1.9-1.9s0.8-1.9,1.9-1.9h14.6c1,0,1.9,0.8,1.9,1.9
			S87.2,68.5,86.2,68.5z M91.2,65v3.5h-1.8c0.3-0.6,0.5-1.2,0.5-1.9c0-0.7-0.2-1.3-0.5-1.9h1.9C91.2,64.8,91.2,64.9,91.2,65z
			 M101,68.5h-7.9V65c0-0.1,0-0.2-0.1-0.3c2-0.2,3.7-1.3,4.6-3.1c0.2-0.5,0.1-1-0.4-1.3c-0.5-0.2-1-0.1-1.3,0.4
			c-0.7,1.3-2.1,2.1-3.6,2.1H87c-0.5,0-0.9-0.4-0.9-0.9c0-0.5,0.4-0.9,0.9-0.9h5.2c0.5,0,0.9-0.4,0.9-0.9c0-2.2,1.8-3.9,3.9-3.9
			s3.9,1.8,3.9,3.9V68.5z"/>
		<path class="primary" d="M85.6,39.8H72.1c-1.6,0-2.8,1.3-2.8,2.8v9.2c0,1.6,1.3,2.8,2.8,2.8h3.3l2.8,2.8c0.2,0.2,0.4,0.3,0.7,0.3
			s0.5-0.1,0.7-0.3l2.8-2.8h3.3c1.6,0,2.8-1.3,2.8-2.8v-9.2C88.4,41,87.2,39.8,85.6,39.8z M86.5,51.8c0,0.5-0.4,0.9-0.9,0.9h-3.7
			c-0.2,0-0.5,0.1-0.7,0.3l-2.4,2.4L76.4,53c-0.2-0.2-0.4-0.3-0.7-0.3h-3.7c-0.5,0-0.9-0.4-0.9-0.9v-9.2c0-0.5,0.4-0.9,0.9-0.9h13.5
			c0.5,0,0.9,0.4,0.9,0.9V51.8z"/>
		<path class="primary" d="M75.1,46.2c-0.2-0.2-0.4-0.3-0.7-0.3c-0.2,0-0.5,0.1-0.7,0.3c-0.2,0.2-0.3,0.4-0.3,0.7c0,0.2,0.1,0.5,0.3,0.7
			c0.2,0.2,0.4,0.3,0.7,0.3c0.2,0,0.5-0.1,0.7-0.3c0.2-0.2,0.3-0.4,0.3-0.7C75.4,46.6,75.3,46.3,75.1,46.2z"/>
		<path class="primary" d="M79.5,46.2c-0.2-0.2-0.4-0.3-0.7-0.3c-0.2,0-0.5,0.1-0.7,0.3c-0.2,0.2-0.3,0.4-0.3,0.7c0,0.2,0.1,0.5,0.3,0.7
			c0.2,0.2,0.4,0.3,0.7,0.3c0.2,0,0.5-0.1,0.7-0.3c0.2-0.2,0.3-0.4,0.3-0.7C79.8,46.6,79.7,46.3,79.5,46.2z"/>
		<path class="primary" d="M83.9,46.2c-0.2-0.2-0.4-0.3-0.7-0.3c-0.2,0-0.5,0.1-0.7,0.3c-0.2,0.2-0.3,0.4-0.3,0.7c0,0.2,0.1,0.5,0.3,0.7
			c0.2,0.2,0.4,0.3,0.7,0.3c0.2,0,0.5-0.1,0.7-0.3c0.2-0.2,0.3-0.4,0.3-0.7C84.2,46.6,84.1,46.3,83.9,46.2z"/>
	</g>
	<g>
		<path class="primary" d="M60.7,86.2c-0.2-0.2-0.4-0.3-0.7-0.3c-0.2,0-0.5,0.1-0.7,0.3c-0.2,0.2-0.3,0.4-0.3,0.7
			c0,0.2,0.1,0.5,0.3,0.7c0.2,0.2,0.4,0.3,0.7,0.3c0.2,0,0.5-0.1,0.7-0.3c0.2-0.2,0.3-0.4,0.3-0.7C61,86.6,60.9,86.3,60.7,86.2z"/>
		<path class="primary" d="M89.8,79.5c-0.2-0.2-0.4-0.3-0.7-0.3c-0.2,0-0.5,0.1-0.7,0.3s-0.3,0.4-0.3,0.7c0,0.2,0.1,0.5,0.3,0.7
			c0.2,0.2,0.4,0.3,0.7,0.3c0.2,0,0.5-0.1,0.7-0.3c0.2-0.2,0.3-0.4,0.3-0.7C90.1,80,90,79.7,89.8,79.5z"/>
		<path class="primary" d="M99.8,54.9c0.7-0.7,1.1-1.7,1.1-2.8v-0.8c0-2.2-1.8-3.9-3.9-3.9s-3.9,1.8-3.9,3.9v0.8
			c0,1.1,0.4,2.1,1.1,2.8c-1.5,0.8-2.7,2.4-2.9,4.2H87c-1.6,0-2.8,1.3-2.8,2.8c0,0.3,0.1,0.6,0.2,0.9h-11c0.1-0.3,0.2-0.6,0.2-0.9
			c0-1.6-1.3-2.8-2.8-2.8h-4.3c-0.3-1.8-1.4-3.3-2.9-4.2c0.7-0.7,1.1-1.7,1.1-2.8v-0.8c0-2.2-1.8-3.9-3.9-3.9
			c-2.2,0-3.9,1.8-3.9,3.9v0.8c0,1.1,0.4,2.1,1.1,2.8c-1.8,1-3,2.9-3,5.1v9.4v1.1c0,2.9,2.4,5.3,5.3,5.3h7.4v9
			c0,0.4,0.1,0.7,0.2,1.1h-3.7c-0.5,0-0.9,0.4-0.9,0.9c0,0.5,0.4,0.9,0.9,0.9h33.5c0.5,0,0.9-0.4,0.9-0.9c0-0.5-0.4-0.9-0.9-0.9
			h-7.7c0.1-0.3,0.2-0.7,0.2-1.1v-1.1c0-0.5-0.4-0.9-0.9-0.9s-0.9,0.4-0.9,0.9v1.1c0,0.6-0.5,1.1-1.1,1.1s-1.1-0.5-1.1-1.1V73
			c0-1.5,1.2-2.6,2.6-2.6h3.4h0.8h8.1v0.2c0,1.9-1.5,3.5-3.5,3.5h-8.4c-0.5,0-0.9,0.4-0.9,0.9v1.5c0,0.5,0.4,0.9,0.9,0.9
			s0.9-0.4,0.9-0.9v-0.6h7.4c2.9,0,5.3-2.4,5.3-5.3v-1.1V60C102.9,57.8,101.6,55.9,99.8,54.9z M95,51.4c0-1.1,0.9-2.1,2.1-2.1
			s2.1,0.9,2.1,2.1v0.8c0,1.1-0.9,2.1-2.1,2.1S95,53.3,95,52.1V51.4z M58.6,51.4c0-1.1,0.9-2.1,2.1-2.1c1.1,0,2.1,0.9,2.1,2.1v0.8
			c0,1.1-0.9,2.1-2.1,2.1c-1.1,0-2.1-0.9-2.1-2.1V51.4z M56.7,60c0-2.2,1.8-3.9,3.9-3.9c2.2,0,3.9,1.8,3.9,3.9
			c0,0.5,0.4,0.9,0.9,0.9h5.2c0.5,0,0.9,0.4,0.9,0.9c0,0.5-0.4,0.9-0.9,0.9h-5.5c-1.5,0-2.9-0.8-3.6-2.1c-0.2-0.5-0.8-0.6-1.3-0.4
			c-0.5,0.2-0.6,0.8-0.4,1.3c0.9,1.8,2.7,2.9,4.6,3.1c0,0.1-0.1,0.2-0.1,0.3v3.5h-7.9V60z M68.3,68.5h-1.8V65c0-0.1,0-0.2,0-0.3h1.9
			c-0.3,0.6-0.5,1.2-0.5,1.9C67.8,67.3,68,67.9,68.3,68.5z M71.6,84.8c0,0.6-0.5,1.1-1.1,1.1s-1.1-0.5-1.1-1.1v-9.9
			c0-0.5-0.4-0.9-0.9-0.9h-8.4c-1.9,0-3.5-1.5-3.5-3.5v-0.2h8.1h0.8H69c1.5,0,2.6,1.2,2.6,2.6V84.8z M76,85.9h-2.7
			c0.1-0.3,0.2-0.7,0.2-1.1V73c0-1-0.3-1.9-0.9-2.6H76V85.9z M79.8,85.9h-1.9V70.3h1.9V85.9z M84.4,85.9h-2.7V70.3h3.4
			c-0.5,0.7-0.9,1.7-0.9,2.6v11.8C84.2,85.2,84.3,85.6,84.4,85.9z M86.2,68.5H71.5c-1,0-1.9-0.8-1.9-1.9s0.8-1.9,1.9-1.9h14.6
			c1,0,1.9,0.8,1.9,1.9S87.2,68.5,86.2,68.5z M91.2,65v3.5h-1.8c0.3-0.6,0.5-1.2,0.5-1.9c0-0.7-0.2-1.3-0.5-1.9h1.9
			C91.2,64.8,91.2,64.9,91.2,65z M101,68.5h-7.9V65c0-0.1,0-0.2-0.1-0.3c2-0.2,3.7-1.3,4.6-3.1c0.2-0.5,0.1-1-0.4-1.3
			c-0.5-0.2-1-0.1-1.3,0.4c-0.7,1.3-2.1,2.1-3.6,2.1H87c-0.5,0-0.9-0.4-0.9-0.9c0-0.5,0.4-0.9,0.9-0.9h5.2c0.5,0,0.9-0.4,0.9-0.9
			c0-2.2,1.8-3.9,3.9-3.9s3.9,1.8,3.9,3.9V68.5z"/>
		<path class="primary" d="M85.6,39.8H72.1c-1.6,0-2.8,1.3-2.8,2.8v9.2c0,1.6,1.3,2.8,2.8,2.8h3.3l2.8,2.8c0.2,0.2,0.4,0.3,0.7,0.3
			s0.5-0.1,0.7-0.3l2.8-2.8h3.3c1.6,0,2.8-1.3,2.8-2.8v-9.2C88.4,41,87.2,39.8,85.6,39.8z M86.5,51.8c0,0.5-0.4,0.9-0.9,0.9h-3.7
			c-0.2,0-0.5,0.1-0.7,0.3l-2.4,2.4L76.4,53c-0.2-0.2-0.4-0.3-0.7-0.3h-3.7c-0.5,0-0.9-0.4-0.9-0.9v-9.2c0-0.5,0.4-0.9,0.9-0.9h13.5
			c0.5,0,0.9,0.4,0.9,0.9V51.8z"/>
		<path class="primary" d="M75.1,46.2c-0.2-0.2-0.4-0.3-0.7-0.3c-0.2,0-0.5,0.1-0.7,0.3c-0.2,0.2-0.3,0.4-0.3,0.7
			c0,0.2,0.1,0.5,0.3,0.7c0.2,0.2,0.4,0.3,0.7,0.3c0.2,0,0.5-0.1,0.7-0.3c0.2-0.2,0.3-0.4,0.3-0.7C75.4,46.6,75.3,46.3,75.1,46.2z"
			/>
		<path class="primary" d="M79.5,46.2c-0.2-0.2-0.4-0.3-0.7-0.3c-0.2,0-0.5,0.1-0.7,0.3c-0.2,0.2-0.3,0.4-0.3,0.7
			c0,0.2,0.1,0.5,0.3,0.7c0.2,0.2,0.4,0.3,0.7,0.3c0.2,0,0.5-0.1,0.7-0.3c0.2-0.2,0.3-0.4,0.3-0.7C79.8,46.6,79.7,46.3,79.5,46.2z"
			/>
		<path class="primary" d="M83.9,46.2c-0.2-0.2-0.4-0.3-0.7-0.3c-0.2,0-0.5,0.1-0.7,0.3c-0.2,0.2-0.3,0.4-0.3,0.7
			c0,0.2,0.1,0.5,0.3,0.7c0.2,0.2,0.4,0.3,0.7,0.3c0.2,0,0.5-0.1,0.7-0.3c0.2-0.2,0.3-0.4,0.3-0.7C84.2,46.6,84.1,46.3,83.9,46.2z"
			/>
	</g>
</g>
<g id="feature-1">
	<g>
		<path class="primary" d="M29.9,39.8H2.8C1.2,39.8,0,41,0,42.6v9.6c0,0.5,0.4,0.9,0.9,0.9s0.9-0.4,0.9-0.9v-9.6c0-0.5,0.4-0.9,0.9-0.9
			h27.1c0.5,0,0.9,0.4,0.9,0.9v34.9c0,0.5-0.4,0.9-0.9,0.9H2.8c-0.5,0-0.9-0.4-0.9-0.9V60.1c0-0.5-0.4-0.9-0.9-0.9S0,59.5,0,60.1
			v17.4c0,1.6,1.2,2.8,2.8,2.8h27.1c1.5,0,2.8-1.3,2.8-2.8V42.6C32.6,41,31.4,39.8,29.9,39.8z"/>
		<path class="primary" d="M1.6,55.7c-0.2-0.2-0.4-0.3-0.7-0.3s-0.5,0.1-0.7,0.3C0.1,55.9,0,56.1,0,56.3c0,0.2,0.1,0.5,0.3,0.7
			c0.2,0.2,0.4,0.3,0.7,0.3c0.2,0,0.5-0.1,0.7-0.3c0.2-0.2,0.3-0.4,0.3-0.7C1.8,56.1,1.7,55.9,1.6,55.7z"/>
		<path class="primary" d="M5.3,82.4c-0.2-0.2-0.4-0.3-0.7-0.3c-0.2,0-0.5,0.1-0.7,0.3c-0.2,0.2-0.3,0.4-0.3,0.7c0,0.2,0.1,0.5,0.3,0.7
			C4.1,83.9,4.4,84,4.6,84c0.2,0,0.5-0.1,0.7-0.3c0.2-0.2,0.3-0.4,0.3-0.7C5.5,82.8,5.4,82.6,5.3,82.4z"/>
		<path class="primary" d="M35.4,43.5c-0.5,0-0.9,0.4-0.9,0.9v36.7c0,0.5-0.4,0.9-0.9,0.9H8.3c-0.5,0-0.9,0.4-0.9,0.9
			c0,0.5,0.4,0.9,0.9,0.9h25.2c1.5,0,2.8-1.3,2.8-2.8V44.5C36.3,43.9,35.9,43.5,35.4,43.5z"/>
		<path class="primary" d="M39.1,47.3c-0.5,0-0.9,0.4-0.9,0.9V85c0,0.5-0.4,0.9-0.9,0.9H8.3c-0.5,0-0.9,0.4-0.9,0.9
			c0,0.5,0.4,0.9,0.9,0.9h28.9c1.5,0,2.8-1.3,2.8-2.8V48.2C40,47.7,39.6,47.3,39.1,47.3z"/>
		<path class="primary" d="M14.9,46.7H6.1c-0.5,0-0.9,0.4-0.9,0.9v9c0,0.5,0.4,0.9,0.9,0.9h8.8c0.5,0,0.9-0.4,0.9-0.9v-9
			C15.8,47.1,15.4,46.7,14.9,46.7z M14,55.7H7v-7.1h7V55.7z"/>
		<path class="primary" d="M12,61.8c-0.4-0.4-0.9-0.4-1.3,0l-2.4,2.5l-1.1-1.2c-0.4-0.4-0.9-0.4-1.3,0c-0.4,0.4-0.4,1,0,1.3l1.8,1.8
			c0.2,0.2,0.4,0.3,0.7,0.3c0.2,0,0.5-0.1,0.7-0.3l3.1-3.2C12.3,62.8,12.3,62.2,12,61.8z"/>
		<path class="primary" d="M27.1,63.1H16.3c-0.5,0-0.9,0.4-0.9,0.9c0,0.5,0.4,0.9,0.9,0.9h10.7c0.5,0,0.9-0.4,0.9-0.9
			C28,63.5,27.6,63.1,27.1,63.1z"/>
		<path class="primary" d="M26.5,46.7h-6.4c-0.5,0-0.9,0.4-0.9,0.9c0,0.5,0.4,0.9,0.9,0.9h6.4c0.5,0,0.9-0.4,0.9-0.9
			C27.5,47.1,27,46.7,26.5,46.7z"/>
		<path class="primary" d="M26.5,51.2h-6.4c-0.5,0-0.9,0.4-0.9,0.9c0,0.5,0.4,0.9,0.9,0.9h6.4c0.5,0,0.9-0.4,0.9-0.9S27,51.2,26.5,51.2z
			"/>
		<path class="primary" d="M26.5,55.7h-6.4c-0.5,0-0.9,0.4-0.9,0.9s0.4,0.9,0.9,0.9h6.4c0.5,0,0.9-0.4,0.9-0.9S27,55.7,26.5,55.7z"/>
		<path class="primary" d="M12,69c-0.4-0.4-0.9-0.4-1.3,0l-2.4,2.5l-1.1-1.2c-0.4-0.4-0.9-0.4-1.3,0c-0.4,0.4-0.4,1,0,1.3l1.8,1.8
			c0.2,0.2,0.4,0.3,0.7,0.3c0.2,0,0.5-0.1,0.7-0.3l3.1-3.2C12.3,70,12.3,69.4,12,69z"/>
		<path class="primary" d="M27.1,70.2H16.3c-0.5,0-0.9,0.4-0.9,0.9c0,0.5,0.4,0.9,0.9,0.9h10.7c0.5,0,0.9-0.4,0.9-0.9
			C28,70.7,27.6,70.2,27.1,70.2z"/>
	</g>
	<g>
		<path class="primary" d="M29.9,39.8H2.8C1.2,39.8,0,41,0,42.6v9.6c0,0.5,0.4,0.9,0.9,0.9s0.9-0.4,0.9-0.9v-9.6
			c0-0.5,0.4-0.9,0.9-0.9h27.1c0.5,0,0.9,0.4,0.9,0.9v34.9c0,0.5-0.4,0.9-0.9,0.9H2.8c-0.5,0-0.9-0.4-0.9-0.9V60.1
			c0-0.5-0.4-0.9-0.9-0.9S0,59.5,0,60.1v17.4c0,1.6,1.2,2.8,2.8,2.8h27.1c1.5,0,2.8-1.3,2.8-2.8V42.6C32.6,41,31.4,39.8,29.9,39.8z"
			/>
		<path class="primary" d="M1.6,55.7c-0.2-0.2-0.4-0.3-0.7-0.3s-0.5,0.1-0.7,0.3C0.1,55.9,0,56.1,0,56.3c0,0.2,0.1,0.5,0.3,0.7
			c0.2,0.2,0.4,0.3,0.7,0.3c0.2,0,0.5-0.1,0.7-0.3c0.2-0.2,0.3-0.4,0.3-0.7C1.8,56.1,1.7,55.9,1.6,55.7z"/>
		<path class="primary" d="M5.3,82.4c-0.2-0.2-0.4-0.3-0.7-0.3c-0.2,0-0.5,0.1-0.7,0.3c-0.2,0.2-0.3,0.4-0.3,0.7
			c0,0.2,0.1,0.5,0.3,0.7C4.1,83.9,4.4,84,4.6,84c0.2,0,0.5-0.1,0.7-0.3c0.2-0.2,0.3-0.4,0.3-0.7C5.5,82.8,5.4,82.6,5.3,82.4z"/>
		<path class="primary" d="M35.4,43.5c-0.5,0-0.9,0.4-0.9,0.9v36.7c0,0.5-0.4,0.9-0.9,0.9H8.3c-0.5,0-0.9,0.4-0.9,0.9
			c0,0.5,0.4,0.9,0.9,0.9h25.2c1.5,0,2.8-1.3,2.8-2.8V44.5C36.3,43.9,35.9,43.5,35.4,43.5z"/>
		<path class="primary" d="M39.1,47.3c-0.5,0-0.9,0.4-0.9,0.9V85c0,0.5-0.4,0.9-0.9,0.9H8.3c-0.5,0-0.9,0.4-0.9,0.9
			c0,0.5,0.4,0.9,0.9,0.9h28.9c1.5,0,2.8-1.3,2.8-2.8V48.2C40,47.7,39.6,47.3,39.1,47.3z"/>
		<path class="primary" d="M14.9,46.7H6.1c-0.5,0-0.9,0.4-0.9,0.9v9c0,0.5,0.4,0.9,0.9,0.9h8.8c0.5,0,0.9-0.4,0.9-0.9v-9
			C15.8,47.1,15.4,46.7,14.9,46.7z M14,55.7H7v-7.1h7V55.7z"/>
		<path class="primary" d="M12,61.8c-0.4-0.4-0.9-0.4-1.3,0l-2.4,2.5l-1.1-1.2c-0.4-0.4-0.9-0.4-1.3,0c-0.4,0.4-0.4,1,0,1.3l1.8,1.8
			c0.2,0.2,0.4,0.3,0.7,0.3c0.2,0,0.5-0.1,0.7-0.3l3.1-3.2C12.3,62.8,12.3,62.2,12,61.8z"/>
		<path class="primary" d="M27.1,63.1H16.3c-0.5,0-0.9,0.4-0.9,0.9c0,0.5,0.4,0.9,0.9,0.9h10.7c0.5,0,0.9-0.4,0.9-0.9
			C28,63.5,27.6,63.1,27.1,63.1z"/>
		<path class="primary" d="M26.5,46.7h-6.4c-0.5,0-0.9,0.4-0.9,0.9c0,0.5,0.4,0.9,0.9,0.9h6.4c0.5,0,0.9-0.4,0.9-0.9
			C27.5,47.1,27,46.7,26.5,46.7z"/>
		<path class="primary" d="M26.5,51.2h-6.4c-0.5,0-0.9,0.4-0.9,0.9c0,0.5,0.4,0.9,0.9,0.9h6.4c0.5,0,0.9-0.4,0.9-0.9
			S27,51.2,26.5,51.2z"/>
		<path class="primary" d="M26.5,55.7h-6.4c-0.5,0-0.9,0.4-0.9,0.9s0.4,0.9,0.9,0.9h6.4c0.5,0,0.9-0.4,0.9-0.9S27,55.7,26.5,55.7z"
			/>
		<path class="primary" d="M12,69c-0.4-0.4-0.9-0.4-1.3,0l-2.4,2.5l-1.1-1.2c-0.4-0.4-0.9-0.4-1.3,0c-0.4,0.4-0.4,1,0,1.3l1.8,1.8
			c0.2,0.2,0.4,0.3,0.7,0.3c0.2,0,0.5-0.1,0.7-0.3l3.1-3.2C12.3,70,12.3,69.4,12,69z"/>
		<path class="primary" d="M27.1,70.2H16.3c-0.5,0-0.9,0.4-0.9,0.9c0,0.5,0.4,0.9,0.9,0.9h10.7c0.5,0,0.9-0.4,0.9-0.9
			C28,70.7,27.6,70.2,27.1,70.2z"/>
	</g>
</g>
<g id="logo">
	<g id="orbit_x5F_app">
		<g>
			<path class="dark" d="M22.6,17.1c0,5.6-4,9.7-9.5,9.7c-5.5,0-9.5-4.1-9.5-9.7c0-5.6,4-9.7,9.5-9.7C18.6,7.4,22.6,11.5,22.6,17.1z
				 M18.2,17.1c0-3.8-2.4-5.7-5.1-5.7c-2.7,0-5.1,2-5.1,5.7c0,3.8,2.4,5.8,5.1,5.8C15.8,22.9,18.2,20.9,18.2,17.1z"/>
			<path class="dark" d="M36.4,12.2c-0.5-0.1-1-0.1-1.4-0.1c-3.4,0-4.9,2-4.9,5.4v8.7h-4.4V7.9h4.3v2.9c0.9-2,2.9-3.2,5.3-3.2
				c0.5,0,1,0.1,1.2,0.1V12.2z"/>
			<path class="dark" d="M38.9,26.2V0.4h4.3v9.8C44,8.8,46.1,7.4,49,7.4c5.5,0,8.5,4.2,8.5,9.5c0,5.5-3.3,9.7-8.6,9.7
				c-2.6,0-4.6-1.1-5.6-2.9v2.4H38.9z M48.1,11.3c-2.8,0-4.9,2.1-4.9,5.7c0,3.6,2.1,5.8,4.9,5.8c2.9,0,4.9-2.2,4.9-5.8
				C53,13.4,51,11.3,48.1,11.3z"/>
			<path class="dark" d="M62.7,0c1.6,0,2.9,1.3,2.9,2.9c0,1.6-1.3,2.8-2.9,2.8c-1.5,0-2.8-1.2-2.8-2.8C59.8,1.3,61.1,0,62.7,0z
				 M60.5,26.2V7.9h4.3v18.3H60.5z"/>
			<path class="dark" d="M74.9,7.9h3.8v3.9h-3.8v8.5c0,1.6,0.7,2.3,2.3,2.3c0.6,0,1.3-0.1,1.5-0.2V26c-0.3,0.1-1.1,0.4-2.7,0.4
				c-3.4,0-5.5-2-5.5-5.4v-9.2h-3.4V7.9h0.9c2,0,2.8-1.2,2.8-2.9V2.3h4V7.9z"/>
			<path class="dark" d="M94.6,15.7l4.7-0.7c1.1-0.2,1.4-0.7,1.4-1.3c0-1.5-1.1-2.8-3.5-2.8c-2.3,0-3.6,1.5-3.8,3.3l-4-0.9
				c0.3-3.2,3.2-6,7.7-6c5.6,0,7.8,3.2,7.8,6.8v9.1c0,1.7,0.2,2.7,0.2,2.9h-4.1c0-0.1-0.2-0.9-0.2-2.3c-0.9,1.4-2.7,2.9-5.6,2.9
				c-3.8,0-6.2-2.6-6.2-5.5C89,18,91.5,16.2,94.6,15.7z M100.6,18.6v-0.8l-4.8,0.7c-1.4,0.2-2.4,1-2.4,2.5c0,1.2,0.9,2.4,2.7,2.4
				C98.5,23.4,100.6,22.2,100.6,18.6z"/>
			<path class="dark" d="M109.1,32V7.9h4.2v2.5c0.9-1.6,3-2.9,5.8-2.9c5.4,0,8.5,4.1,8.5,9.5c0,5.5-3.3,9.6-8.6,9.6
				c-2.6,0-4.6-1.1-5.6-2.5V32H109.1z M118.3,11.4c-2.9,0-4.9,2.3-4.9,5.7c0,3.5,2.1,5.7,4.9,5.7c2.9,0,4.9-2.3,4.9-5.7
				C123.2,13.6,121.2,11.4,118.3,11.4z"/>
			<path class="dark" d="M130.7,32V7.9h4.2v2.5c0.9-1.6,3-2.9,5.8-2.9c5.4,0,8.5,4.1,8.5,9.5c0,5.5-3.3,9.6-8.6,9.6
				c-2.6,0-4.6-1.1-5.6-2.5V32H130.7z M139.9,11.4c-2.9,0-4.9,2.3-4.9,5.7c0,3.5,2.1,5.7,4.9,5.7c2.9,0,4.9-2.3,4.9-5.7
				C144.8,13.6,142.8,11.4,139.9,11.4z"/>
		</g>
		<g>
			<path class="dark" d="M22.6,17.1c0,5.6-4,9.7-9.5,9.7c-5.5,0-9.5-4.1-9.5-9.7c0-5.6,4-9.7,9.5-9.7C18.6,7.4,22.6,11.5,22.6,17.1z
				 M18.2,17.1c0-3.8-2.4-5.7-5.1-5.7c-2.7,0-5.1,2-5.1,5.7c0,3.8,2.4,5.8,5.1,5.8C15.8,22.9,18.2,20.9,18.2,17.1z"/>
			<path class="dark" d="M36.4,12.2c-0.5-0.1-1-0.1-1.4-0.1c-3.4,0-4.9,2-4.9,5.4v8.7h-4.4V7.9h4.3v2.9c0.9-2,2.9-3.2,5.3-3.2
				c0.5,0,1,0.1,1.2,0.1V12.2z"/>
			<path class="dark" d="M38.9,26.2V0.4h4.3v9.8C44,8.8,46.1,7.4,49,7.4c5.5,0,8.5,4.2,8.5,9.5c0,5.5-3.3,9.7-8.6,9.7
				c-2.6,0-4.6-1.1-5.6-2.9v2.4H38.9z M48.1,11.3c-2.8,0-4.9,2.1-4.9,5.7c0,3.6,2.1,5.8,4.9,5.8c2.9,0,4.9-2.2,4.9-5.8
				C53,13.4,51,11.3,48.1,11.3z"/>
			<path class="dark" d="M62.7,0c1.6,0,2.9,1.3,2.9,2.9c0,1.6-1.3,2.8-2.9,2.8c-1.5,0-2.8-1.2-2.8-2.8C59.8,1.3,61.1,0,62.7,0z
				 M60.5,26.2V7.9h4.3v18.3H60.5z"/>
			<path class="dark" d="M74.9,7.9h3.8v3.9h-3.8v8.5c0,1.6,0.7,2.3,2.3,2.3c0.6,0,1.3-0.1,1.5-0.2V26c-0.3,0.1-1.1,0.4-2.7,0.4
				c-3.4,0-5.5-2-5.5-5.4v-9.2h-3.4V7.9h0.9c2,0,2.8-1.2,2.8-2.9V2.3h4V7.9z"/>
			<path class="dark" d="M94.6,15.7l4.7-0.7c1.1-0.2,1.4-0.7,1.4-1.3c0-1.5-1.1-2.8-3.5-2.8c-2.3,0-3.6,1.5-3.8,3.3l-4-0.9
				c0.3-3.2,3.2-6,7.7-6c5.6,0,7.8,3.2,7.8,6.8v9.1c0,1.7,0.2,2.7,0.2,2.9h-4.1c0-0.1-0.2-0.9-0.2-2.3c-0.9,1.4-2.7,2.9-5.6,2.9
				c-3.8,0-6.2-2.6-6.2-5.5C89,18,91.5,16.2,94.6,15.7z M100.6,18.6v-0.8l-4.8,0.7c-1.4,0.2-2.4,1-2.4,2.5c0,1.2,0.9,2.4,2.7,2.4
				C98.5,23.4,100.6,22.2,100.6,18.6z"/>
			<path class="dark" d="M109.1,32V7.9h4.2v2.5c0.9-1.6,3-2.9,5.8-2.9c5.4,0,8.5,4.1,8.5,9.5c0,5.5-3.3,9.6-8.6,9.6
				c-2.6,0-4.6-1.1-5.6-2.5V32H109.1z M118.3,11.4c-2.9,0-4.9,2.3-4.9,5.7c0,3.5,2.1,5.7,4.9,5.7c2.9,0,4.9-2.3,4.9-5.7
				C123.2,13.6,121.2,11.4,118.3,11.4z"/>
			<path class="dark" d="M130.7,32V7.9h4.2v2.5c0.9-1.6,3-2.9,5.8-2.9c5.4,0,8.5,4.1,8.5,9.5c0,5.5-3.3,9.6-8.6,9.6
				c-2.6,0-4.6-1.1-5.6-2.5V32H130.7z M139.9,11.4c-2.9,0-4.9,2.3-4.9,5.7c0,3.5,2.1,5.7,4.9,5.7c2.9,0,4.9-2.3,4.9-5.7
				C144.8,13.6,142.8,11.4,139.9,11.4z"/>
		</g>
	</g>
	<path id="r" class="dark" d="M154.6,14.1c-0.5,0-0.9-0.1-1.3-0.3c-0.4-0.2-0.8-0.4-1.1-0.7c-0.3-0.3-0.5-0.7-0.7-1.1
		c-0.2-0.4-0.3-0.8-0.3-1.3v0c0-0.5,0.1-0.9,0.3-1.3c0.2-0.4,0.4-0.8,0.7-1.1c0.3-0.3,0.7-0.6,1.1-0.7c0.4-0.2,0.9-0.3,1.3-0.3
		c0.5,0,0.9,0.1,1.3,0.3c0.4,0.2,0.8,0.4,1.1,0.7c0.3,0.3,0.5,0.7,0.7,1.1c0.2,0.4,0.3,0.8,0.3,1.3v0c0,0.5-0.1,0.9-0.3,1.3
		c-0.2,0.4-0.4,0.8-0.7,1.1c-0.3,0.3-0.7,0.6-1.1,0.7C155.5,14,155.1,14.1,154.6,14.1z M154.6,13.6c0.4,0,0.8-0.1,1.1-0.2
		c0.3-0.2,0.6-0.4,0.9-0.6c0.3-0.3,0.5-0.6,0.6-0.9c0.1-0.3,0.2-0.7,0.2-1.1v0c0-0.4-0.1-0.8-0.2-1.1c-0.1-0.3-0.3-0.6-0.6-0.9
		s-0.6-0.5-0.9-0.6c-0.3-0.1-0.7-0.2-1.1-0.2c-0.4,0-0.8,0.1-1.1,0.2c-0.3,0.2-0.6,0.4-0.9,0.6c-0.3,0.3-0.5,0.6-0.6,0.9
		c-0.1,0.3-0.2,0.7-0.2,1.1v0c0,0.4,0.1,0.8,0.2,1.1c0.1,0.3,0.3,0.6,0.6,0.9c0.3,0.3,0.6,0.5,0.9,0.6
		C153.8,13.5,154.2,13.6,154.6,13.6z M153.4,9h1.4c0.4,0,0.8,0.1,1,0.3c0.2,0.2,0.3,0.4,0.3,0.7v0c0,0.3-0.1,0.5-0.2,0.6
		c-0.1,0.2-0.3,0.3-0.5,0.4l0.8,1.1h-0.8l-0.7-1h0h-0.5v1h-0.7V9z M154.8,10.6c0.2,0,0.3,0,0.4-0.1c0.1-0.1,0.1-0.2,0.1-0.3v0
		c0-0.2,0-0.3-0.1-0.3c-0.1-0.1-0.2-0.1-0.4-0.1h-0.7v0.9H154.8z"/>
	<rect id="line" y="15" class="primary" width="25.7" height="4.4"/>
</g>
</svg>
