<svg xmlns="http://www.w3.org/2000/svg" viewBox="0 0 32 44">
  <defs>
    <style>
      .cls-1 {
        fill: #417ec0;
      }

      .primary {
        fill: #0f8bfe;
      }
    </style>
  </defs>
  <title>callcenter</title>
  <g id="Camada_2" data-name="Camada 2">
    <g id="orbit_app">
      <g id="callcenter">
        <g>
          <path class="cls-1" d="M32,41.1,31.5,39a.5.5,0,0,0-.7-.5.7.7,0,0,0-.6.7l.5,2.1a1.3,1.3,0,0,1-1.2,1.4H25.7V39.8a.7.7,0,1,0-1.4,0v2.9H13a.7.7,0,0,0-.6.7.6.6,0,0,0,.6.6H29.5A2.5,2.5,0,0,0,32,41.1Z"/>
          <path class="cls-1" d="M30.9,36l-.2-1.1a4.3,4.3,0,0,0-2.9-3.3c-.4-.2-.9-.3-7.6-1.9v-.5h7.1a1.3,1.3,0,0,0,1.3-1.3V19.5a3.1,3.1,0,0,0,.7-2.1,3.1,3.1,0,0,0-.7-2.1V12.4a12.2,12.2,0,0,0-3.7-8.8,12.6,12.6,0,0,0-16.5-1,.6.6,0,0,0,.8,1A11.4,11.4,0,0,1,24,4.5a11.1,11.1,0,0,1,3.3,7.9V14a2,2,0,0,0-1.1-1.1v-.5a10.2,10.2,0,0,0-20.4,0v.5a1.8,1.8,0,0,0-1,1.1V12.5A10.9,10.9,0,0,1,7.2,5.6.7.7,0,0,0,7,4.7a.6.6,0,0,0-.9.1,12.6,12.6,0,0,0-2.6,7.7v2.8a3.1,3.1,0,0,0-.7,2.1,3.1,3.1,0,0,0,.7,2.1v8.2a1.6,1.6,0,0,0,1.6,1.5h6.7v.5L4.3,31.5H4.2a4.5,4.5,0,0,0-2.9,3.3C.8,37.5.4,39.3,0,41.2A2.4,2.4,0,0,0,2.4,44H10a.6.6,0,0,0,.6-.6.7.7,0,0,0-.6-.7H7.7V39.8a.7.7,0,0,0-.7-.7.7.7,0,0,0-.6.7v2.9h-4a1.1,1.1,0,0,1-1.1-1.3l1.3-6.2a3.3,3.3,0,0,1,2.6-2.6l4-.9L11,33.8h0l2.4,2.7A3.5,3.5,0,0,0,16,37.8h0a3.5,3.5,0,0,0,2.6-1.3l4.3-4.8,4,.9h0c0,.1,0,.1.4.2a2.9,2.9,0,0,1,2.1,2.4l.2,1.1a.9.9,0,0,0,.8.5A.6.6,0,0,0,30.9,36ZM11.5,25.8h2a1.8,1.8,0,0,0,1.7,1.1h1.6a1.8,1.8,0,1,0,0-3.6H15.2a1.7,1.7,0,0,0-1.7,1.2H11.3L10,24.3a7.3,7.3,0,0,1-1.7-4.7V18.1a.5.5,0,0,1,.2-.4H9.7a13.9,13.9,0,0,0,11-5.4A3.3,3.3,0,0,0,23.3,14a.7.7,0,0,1,.4.5v5.2A7.7,7.7,0,0,1,11.5,25.8Zm3.1-.7a.6.6,0,0,1,.6-.5h1.6a.5.5,0,1,1,0,1H15.2A.6.6,0,0,1,14.6,25.1Zm12.8-9.2h.1a2.4,2.4,0,0,1,.5,1.4,2.5,2.5,0,0,1-.5,1.5h-.1Zm-.1,5v7H20.2v-.4a9.1,9.1,0,0,0,4.6-5.7,1.1,1.1,0,0,0,.8.2A1.8,1.8,0,0,0,27.3,20.9Zm-2.2-6.3a.5.5,0,0,1,1,0h0v5.5h0a.5.5,0,1,1-1,0ZM16,3.6a8.8,8.8,0,0,1,8.9,8.8v.5l-.5.3a1.3,1.3,0,0,0-.9-.4,2.3,2.3,0,0,1-1.8-1.4,1.1,1.1,0,0,0-1.9-.1,12.7,12.7,0,0,1-10.1,5H8.3V14.6a1.8,1.8,0,0,0-1.2-1.7v-.5h0A8.8,8.8,0,0,1,16,3.6ZM7.5,22.4a.8.8,0,0,1-.2-.5h0C7.4,22,7.4,22.2,7.5,22.4ZM6,20.2V14.7H6a.5.5,0,0,1,1,0v5.6a.6.6,0,0,1-.5.6.6.6,0,0,1-.5-.6ZM4.6,18.9h0a2.5,2.5,0,0,1-.5-1.5A2.4,2.4,0,0,1,4.6,16h0Zm.5,9c-.2,0-.3-.1-.3-.2V20.9A2,2,0,0,0,5.9,22a5,5,0,0,0,1.2,2.1,5.7,5.7,0,0,0,2.1,1.3l.7.7a8.5,8.5,0,0,0,1.9,1.4v.4Zm14,6.1-1.5,1.7a2.1,2.1,0,0,1-1.6.8h0a2.1,2.1,0,0,1-1.6-.8L12.9,34Zm1.1-1.3H11.8l-1.2-1.4,2.1-.5a.7.7,0,0,0,.4-.6h0V28.1a9.7,9.7,0,0,0,2.9.4,9.7,9.7,0,0,0,2.9-.4v2.1h0a.6.6,0,0,0,.5.6l2,.5Z"/>
        </g>
        <g>
          <path class="primary" d="M32,41.1,31.5,39a.5.5,0,0,0-.7-.5.7.7,0,0,0-.6.7l.5,2.1a1.3,1.3,0,0,1-1.2,1.4H25.7V39.8a.7.7,0,1,0-1.4,0v2.9H13a.7.7,0,0,0-.6.7.6.6,0,0,0,.6.6H29.5A2.5,2.5,0,0,0,32,41.1Z"/>
          <path class="primary" d="M30.9,36l-.2-1.1a4.3,4.3,0,0,0-2.9-3.3c-.4-.2-.9-.3-7.6-1.9v-.5h7.1a1.3,1.3,0,0,0,1.3-1.3V19.5a3.1,3.1,0,0,0,.7-2.1,3.1,3.1,0,0,0-.7-2.1V12.4a12.2,12.2,0,0,0-3.7-8.8,12.6,12.6,0,0,0-16.5-1,.6.6,0,0,0,.8,1A11.4,11.4,0,0,1,24,4.5a11.1,11.1,0,0,1,3.3,7.9V14a2,2,0,0,0-1.1-1.1v-.5a10.2,10.2,0,0,0-20.4,0v.5a1.8,1.8,0,0,0-1,1.1V12.5A10.9,10.9,0,0,1,7.2,5.6.7.7,0,0,0,7,4.7a.6.6,0,0,0-.9.1,12.6,12.6,0,0,0-2.6,7.7v2.8a3.1,3.1,0,0,0-.7,2.1,3.1,3.1,0,0,0,.7,2.1v8.2a1.6,1.6,0,0,0,1.6,1.5h6.7v.5L4.3,31.5H4.2a4.5,4.5,0,0,0-2.9,3.3C.8,37.5.4,39.3,0,41.2A2.4,2.4,0,0,0,2.4,44H10a.6.6,0,0,0,.6-.6.7.7,0,0,0-.6-.7H7.7V39.8a.7.7,0,0,0-.7-.7.7.7,0,0,0-.6.7v2.9h-4a1.1,1.1,0,0,1-1.1-1.3l1.3-6.2a3.3,3.3,0,0,1,2.6-2.6l4-.9L11,33.8h0l2.4,2.7A3.5,3.5,0,0,0,16,37.8h0a3.5,3.5,0,0,0,2.6-1.3l4.3-4.8,4,.9h0c0,.1,0,.1.4.2a2.9,2.9,0,0,1,2.1,2.4l.2,1.1a.9.9,0,0,0,.8.5A.6.6,0,0,0,30.9,36ZM11.5,25.8h2a1.8,1.8,0,0,0,1.7,1.1h1.6a1.8,1.8,0,1,0,0-3.6H15.2a1.7,1.7,0,0,0-1.7,1.2H11.3L10,24.3a7.3,7.3,0,0,1-1.7-4.7V18.1a.5.5,0,0,1,.2-.4H9.7a13.9,13.9,0,0,0,11-5.4A3.3,3.3,0,0,0,23.3,14a.7.7,0,0,1,.4.5v5.2A7.7,7.7,0,0,1,11.5,25.8Zm3.1-.7a.6.6,0,0,1,.6-.5h1.6a.5.5,0,1,1,0,1H15.2A.6.6,0,0,1,14.6,25.1Zm12.8-9.2h.1a2.4,2.4,0,0,1,.5,1.4,2.5,2.5,0,0,1-.5,1.5h-.1Zm-.1,5v7H20.2v-.4a9.1,9.1,0,0,0,4.6-5.7,1.1,1.1,0,0,0,.8.2A1.8,1.8,0,0,0,27.3,20.9Zm-2.2-6.3a.5.5,0,0,1,1,0h0v5.5h0a.5.5,0,1,1-1,0ZM16,3.6a8.8,8.8,0,0,1,8.9,8.8v.5l-.5.3a1.3,1.3,0,0,0-.9-.4,2.3,2.3,0,0,1-1.8-1.4,1.1,1.1,0,0,0-1.9-.1,12.7,12.7,0,0,1-10.1,5H8.3V14.6a1.8,1.8,0,0,0-1.2-1.7v-.5h0A8.8,8.8,0,0,1,16,3.6ZM7.5,22.4a.8.8,0,0,1-.2-.5h0C7.4,22,7.4,22.2,7.5,22.4ZM6,20.2V14.7H6a.5.5,0,0,1,1,0v5.6a.6.6,0,0,1-.5.6.6.6,0,0,1-.5-.6ZM4.6,18.9h0a2.5,2.5,0,0,1-.5-1.5A2.4,2.4,0,0,1,4.6,16h0Zm.5,9c-.2,0-.3-.1-.3-.2V20.9A2,2,0,0,0,5.9,22a5,5,0,0,0,1.2,2.1,5.7,5.7,0,0,0,2.1,1.3l.7.7a8.5,8.5,0,0,0,1.9,1.4v.4Zm14,6.1-1.5,1.7a2.1,2.1,0,0,1-1.6.8h0a2.1,2.1,0,0,1-1.6-.8L12.9,34Zm1.1-1.3H11.8l-1.2-1.4,2.1-.5a.7.7,0,0,0,.4-.6h0V28.1a9.7,9.7,0,0,0,2.9.4,9.7,9.7,0,0,0,2.9-.4v2.1h0a.6.6,0,0,0,.5.6l2,.5Z"/>
        </g>
      </g>
    </g>
  </g>
</svg>
