<svg xmlns="http://www.w3.org/2000/svg" viewBox="0 0 64 40">
  <defs>
    <style>
      .cls-1 {
        fill: #fff780;
      }

      .cls-2 {
        fill: #ffc02e;
      }

      .cls-3 {
        fill: #ffa73b;
      }
    </style>
  </defs>
  <title>crow</title>
  <g id="Camada_2" data-name="Camada 2">
    <g id="orbit_app">
      <g id="crow">
        <path class="cls-1" d="M52.4,34H11.6a2.1,2.1,0,0,1-1.6-.8C4.7,25.4,4.2,10.6,4.2,8.4V8.1A1.8,1.8,0,0,1,6.1,6.3h0A1.9,1.9,0,0,1,8,8.1v.3a9.9,9.9,0,0,0,10,9.5A9.9,9.9,0,0,0,28,8.1a1.8,1.8,0,0,1,1.8-1.8h4.4A1.8,1.8,0,0,1,36,8.1a10,10,0,0,0,20,.3V8.1a1.9,1.9,0,0,1,1.9-1.8h0a1.8,1.8,0,0,1,1.9,1.8v.3c0,2.2-.5,17-5.8,24.8A2.1,2.1,0,0,1,52.4,34Z"/>
        <path class="cls-2" d="M57.9,6.3h0A1.9,1.9,0,0,0,56,8.1v.3a10,10,0,0,1-20-.3,1.8,1.8,0,0,0-1.8-1.8H32V34H52.4a2.1,2.1,0,0,0,1.6-.8c5.3-7.8,5.8-22.6,5.8-24.8V8.1A1.8,1.8,0,0,0,57.9,6.3Z"/>
        <path class="cls-2" d="M32,0a6,6,0,0,0-6.1,6A6.1,6.1,0,0,0,38.1,6,6,6,0,0,0,32,0Z"/>
        <path class="cls-3" d="M32,0V11.9A6,6,0,0,0,38.1,6,6,6,0,0,0,32,0Z"/>
        <path class="cls-2" d="M6.1,4.6A6,6,0,0,0,0,10.5a6,6,0,0,0,6.1,6,6.1,6.1,0,0,0,6.1-6A6.1,6.1,0,0,0,6.1,4.6Z"/>
        <path class="cls-3" d="M57.9,4.6a6.1,6.1,0,0,0-6.1,5.9,6.1,6.1,0,0,0,6.1,6,6,6,0,0,0,6.1-6A6,6,0,0,0,57.9,4.6Z"/>
        <path class="cls-2" d="M52.4,40H11.6a1.9,1.9,0,0,1-1.9-1.8V32.7H54.3v5.5A1.9,1.9,0,0,1,52.4,40Z"/>
        <path class="cls-3" d="M32,40H52.4a1.9,1.9,0,0,0,1.9-1.8V32.7H32Z"/>
      </g>
    </g>
  </g>
</svg>
