<svg xmlns="http://www.w3.org/2000/svg" viewBox="0 0 32 36">
  <defs>
    <style>
      .cls-1 {
        fill: #417ec0;
      }

      .primary {
        fill: #0f8bfe;
      }
    </style>
  </defs>
  <title>email</title>
  <g id="Camada_2" data-name="Camada 2">
    <g id="orbit_app">
      <g id="email">
        <g>
          <path class="cls-1" d="M16,4.2a7.5,7.5,0,0,0-7.5,7.4A7.2,7.2,0,0,0,12,17.8a7.5,7.5,0,0,0,7.4.4,1,1,0,0,0,.5-1.4,1.1,1.1,0,0,0-1.4-.5,5.7,5.7,0,0,1-5.4-.3,5.1,5.1,0,0,1-2.4-4.4,5.3,5.3,0,1,1,10.6,0,1,1,0,0,1-1,1.1,1,1,0,0,1-1.1-1.1h0A3.2,3.2,0,1,0,16,14.8a3,3,0,0,0,2.1-.8,3.3,3.3,0,0,0,5.4-2.4A7.5,7.5,0,0,0,16,4.2Zm1.1,7.6a1.2,1.2,0,0,1-1.1.9,1.1,1.1,0,1,1,0-2.2,1.3,1.3,0,0,1,1.1,1A.2.2,0,0,0,17.1,11.8Z"/>
          <path class="cls-1" d="M32,13.8a1.1,1.1,0,0,0-.3-.7l-4-3.9V1.1a1,1,0,0,0-1-1.1H5.3a1,1,0,0,0-1,1.1V9.2l-4,3.9h0a1.1,1.1,0,0,0-.3.7H0V32.8A3.2,3.2,0,0,0,3.2,36H28.8A3.2,3.2,0,0,0,32,32.8V13.9Zm-4.3-1.6,1.7,1.7-1.7,1.6ZM6.4,9.6h0V2.1H25.6V9.6h0v8l-5.8,5.7H12.2L6.4,17.6ZM4.3,12.2v3.3L2.6,13.9ZM2.1,32.4v-16l8.1,8Zm1.5,1.5,8.6-8.4h7.6l8.6,8.4Zm26.3-1.5-8.1-8,8.1-8Z"/>
        </g>
        <g>
          <path class="primary" d="M16,4.2a7.5,7.5,0,0,0-7.5,7.4A7.2,7.2,0,0,0,12,17.8a7.5,7.5,0,0,0,7.4.4,1,1,0,0,0,.5-1.4,1.1,1.1,0,0,0-1.4-.5,5.7,5.7,0,0,1-5.4-.3,5.1,5.1,0,0,1-2.4-4.4,5.3,5.3,0,1,1,10.6,0,1,1,0,0,1-1,1.1,1,1,0,0,1-1.1-1.1h0A3.2,3.2,0,1,0,16,14.8a3,3,0,0,0,2.1-.8,3.3,3.3,0,0,0,5.4-2.4A7.5,7.5,0,0,0,16,4.2Zm1.1,7.6a1.2,1.2,0,0,1-1.1.9,1.1,1.1,0,1,1,0-2.2,1.3,1.3,0,0,1,1.1,1A.2.2,0,0,0,17.1,11.8Z"/>
          <path class="primary" d="M32,13.8a1.1,1.1,0,0,0-.3-.7l-4-3.9V1.1a1,1,0,0,0-1-1.1H5.3a1,1,0,0,0-1,1.1V9.2l-4,3.9h0a1.1,1.1,0,0,0-.3.7H0V32.8A3.2,3.2,0,0,0,3.2,36H28.8A3.2,3.2,0,0,0,32,32.8V13.9Zm-4.3-1.6,1.7,1.7-1.7,1.6ZM6.4,9.6h0V2.1H25.6V9.6h0v8l-5.8,5.7H12.2L6.4,17.6ZM4.3,12.2v3.3L2.6,13.9ZM2.1,32.4v-16l8.1,8Zm1.5,1.5,8.6-8.4h7.6l8.6,8.4Zm26.3-1.5-8.1-8,8.1-8Z"/>
        </g>
      </g>
    </g>
  </g>
</svg>
