<svg xmlns="http://www.w3.org/2000/svg" viewBox="0 0 48 48">
  <defs>
    <style>
      .cls-1 {
        fill: #0f8bfe;
      }
    </style>
  </defs>
  <title>feature-5</title>
  <g id="Camada_2" data-name="Camada 2">
    <g id="orbit_app">
      <g id="feature-5">
        <g>
          <path class="cls-1" d="M17.3.3a.9.9,0,0,0-.7-.3.7.7,0,0,0-.6.3.7.7,0,0,0-.3.6.9.9,0,0,0,.3.7.7.7,0,0,0,.6.3.9.9,0,0,0,.7-.3.9.9,0,0,0,.3-.7A.7.7,0,0,0,17.3.3Z"/>
          <path class="cls-1" d="M48,17.5a.7.7,0,0,0-.4-.7l-4.7-3.4V2.8A2.8,2.8,0,0,0,40.1,0H20.3a.9.9,0,0,0-.9.9.9.9,0,0,0,.9,1H40.1a1,1,0,0,1,1,.9V21.2L29.6,30.6l-2.9-2.1a4.5,4.5,0,0,0-5.4,0l-2.9,2.1L6.9,21.2V2.8a1,1,0,0,1,1-.9H13a.9.9,0,0,0,.9-1A.9.9,0,0,0,13,0H7.9A2.8,2.8,0,0,0,5.1,2.8V13.4L.4,16.8h0a.8.8,0,0,0-.4.7V43.3A4.7,4.7,0,0,0,4.7,48H43.3A4.7,4.7,0,0,0,48,43.3V17.5Zm-5.1-1.8,2.6,1.9-2.6,2.1Zm-37.8,0v4L2.5,17.6ZM1.9,19.5,16.8,31.7,1.9,42.5ZM43.3,46.1H4.7a2.8,2.8,0,0,1-2.5-1.5L22.4,30a2.7,2.7,0,0,1,3.2,0L41.7,41.6H32.3a.9.9,0,0,0-.9,1,.9.9,0,0,0,.9.9h12l1.5,1.1A2.8,2.8,0,0,1,43.3,46.1Zm2.8-3.6L31.2,31.7,46.1,19.5Z"/>
          <path class="cls-1" d="M28.6,11.2a.9.9,0,0,0-1.3,0l-4.6,4.6-2-2a.9.9,0,1,0-1.3,1.3L22,17.8a.9.9,0,0,0,.7.3,1.1,1.1,0,0,0,.7-.3l5.2-5.3A.9.9,0,0,0,28.6,11.2Z"/>
          <path class="cls-1" d="M24,5.1a9.4,9.4,0,1,0,9.4,9.4A9.4,9.4,0,0,0,24,5.1ZM24,22a7.6,7.6,0,1,1,7.5-7.5A7.5,7.5,0,0,1,24,22Z"/>
          <path class="cls-1" d="M28.8,41.9a1.1,1.1,0,0,0-.7-.3.9.9,0,0,0-.7.3,1.4,1.4,0,0,0-.2.7,1.1,1.1,0,0,0,.2.6.9.9,0,0,0,.7.3.9.9,0,0,0,.9-.9A1.4,1.4,0,0,0,28.8,41.9Z"/>
        </g>
        <g>
          <path class="cls-1" d="M17.3.3a.9.9,0,0,0-.7-.3.7.7,0,0,0-.6.3.7.7,0,0,0-.3.6.9.9,0,0,0,.3.7.7.7,0,0,0,.6.3.9.9,0,0,0,.7-.3.9.9,0,0,0,.3-.7A.7.7,0,0,0,17.3.3Z"/>
          <path class="cls-1" d="M48,17.5a.7.7,0,0,0-.4-.7l-4.7-3.4V2.8A2.8,2.8,0,0,0,40.1,0H20.3a.9.9,0,0,0-.9.9.9.9,0,0,0,.9,1H40.1a1,1,0,0,1,1,.9V21.2L29.6,30.6l-2.9-2.1a4.5,4.5,0,0,0-5.4,0l-2.9,2.1L6.9,21.2V2.8a1,1,0,0,1,1-.9H13a.9.9,0,0,0,.9-1A.9.9,0,0,0,13,0H7.9A2.8,2.8,0,0,0,5.1,2.8V13.4L.4,16.8h0a.8.8,0,0,0-.4.7V43.3A4.7,4.7,0,0,0,4.7,48H43.3A4.7,4.7,0,0,0,48,43.3V17.5Zm-5.1-1.8,2.6,1.9-2.6,2.1Zm-37.8,0v4L2.5,17.6ZM1.9,19.5,16.8,31.7,1.9,42.5ZM43.3,46.1H4.7a2.8,2.8,0,0,1-2.5-1.5L22.4,30a2.7,2.7,0,0,1,3.2,0L41.7,41.6H32.3a.9.9,0,0,0-.9,1,.9.9,0,0,0,.9.9h12l1.5,1.1A2.8,2.8,0,0,1,43.3,46.1Zm2.8-3.6L31.2,31.7,46.1,19.5Z"/>
          <path class="cls-1" d="M28.6,11.2a.9.9,0,0,0-1.3,0l-4.6,4.6-2-2a.9.9,0,1,0-1.3,1.3L22,17.8a.9.9,0,0,0,.7.3,1.1,1.1,0,0,0,.7-.3l5.2-5.3A.9.9,0,0,0,28.6,11.2Z"/>
          <path class="cls-1" d="M24,5.1a9.4,9.4,0,1,0,9.4,9.4A9.4,9.4,0,0,0,24,5.1ZM24,22a7.6,7.6,0,1,1,7.5-7.5A7.5,7.5,0,0,1,24,22Z"/>
          <path class="cls-1" d="M28.8,41.9a1.1,1.1,0,0,0-.7-.3.9.9,0,0,0-.7.3,1.4,1.4,0,0,0-.2.7,1.1,1.1,0,0,0,.2.6.9.9,0,0,0,.7.3.9.9,0,0,0,.9-.9A1.4,1.4,0,0,0,28.8,41.9Z"/>
        </g>
      </g>
    </g>
  </g>
</svg>
