<svg xmlns="http://www.w3.org/2000/svg" viewBox="0 0 46 48">
  <defs>
    <style>
      .cls-1 {
        fill: #417ec0;
      }

      .primary {
        fill: #0f8bfe;
      }
    </style>
  </defs>
  <title>feature-6</title>
  <g id="Camada_2" data-name="Camada 2">
    <g id="orbit_app">
      <g id="feature-6">
        <g>
          <path class="cls-1" d="M18.8,29.6a6.5,6.5,0,0,0,2.1-4.8V21.1a4.2,4.2,0,0,0,.9-2.7V14.6a.9.9,0,0,0-.9-1H13.1a5.8,5.8,0,0,0-5.7,5.7v5.5a6.5,6.5,0,0,0,2.1,4.8A9.8,9.8,0,0,0,0,39.4v7.7a.9.9,0,0,0,.9.9H27.4a.9.9,0,0,0,.9-.9V39.4A9.8,9.8,0,0,0,18.8,29.6ZM13.1,15.5h6.8v2.9a2.7,2.7,0,0,1-2.6,2.7h-8V19.3h0A3.8,3.8,0,0,1,13.1,15.5ZM9.3,24.8V22.9h8a4.7,4.7,0,0,0,1.7-.3v2.2a4.9,4.9,0,0,1-9.7,0ZM18,31.5l-3.7,6.2-3.7-6.2Zm8.4,14.6H24.3V39.6a1,1,0,0,0-1-1,1,1,0,0,0-.9,1v6.5H6.2V39.6a1,1,0,0,0-1-1,1,1,0,0,0-.9,1v6.5H1.9V39.4a7.9,7.9,0,0,1,6.6-7.8l5,8.4a.9.9,0,0,0,.8.5,1,1,0,0,0,.8-.5l5-8.3a7.8,7.8,0,0,1,6.3,7.7v6.7Z"/>
          <path class="cls-1" d="M41.3,0H35.9a.9.9,0,0,0-.9.9.9.9,0,0,0,.9,1h5.4a2.8,2.8,0,0,1,2.8,2.8V17.2a2.9,2.9,0,0,1-2.8,2.9H37.8l-.6.2-4.5,4.5V21a.9.9,0,0,0-.9-.9H23.7a.9.9,0,0,0,0,1.8h7.1V27a1.1,1.1,0,0,0,.6.9h.4a.7.7,0,0,0,.6-.3l5.8-5.8h3.1A4.7,4.7,0,0,0,46,17.2V4.7A4.7,4.7,0,0,0,41.3,0Z"/>
          <path class="cls-1" d="M33.2.3a.9.9,0,0,0-.7-.3,1.1,1.1,0,0,0-.7.3,1.1,1.1,0,0,0-.2.6,1.4,1.4,0,0,0,.2.7,1.1,1.1,0,0,0,.7.3.9.9,0,0,0,.7-.3.9.9,0,0,0,.3-.7A.7.7,0,0,0,33.2.3Z"/>
          <path class="cls-1" d="M29.1,0H23.7A4.7,4.7,0,0,0,19,4.7V9.9a.9.9,0,0,0,1,.9.9.9,0,0,0,.9-.9V4.7a2.8,2.8,0,0,1,2.8-2.8h5.4a.9.9,0,0,0,.9-1A.9.9,0,0,0,29.1,0Z"/>
          <path class="cls-1" d="M20.2,40H18.9a1,1,0,0,0-1,1,.9.9,0,0,0,1,.9h1.3a.9.9,0,0,0,.9-.9A1,1,0,0,0,20.2,40Z"/>
          <path class="cls-1" d="M12.6,24.5a.9.9,0,0,0-.7-.3,1.1,1.1,0,0,0-.7.3,1.4,1.4,0,0,0-.2.7,1.1,1.1,0,0,0,.2.6,1.1,1.1,0,0,0,.7.3.9.9,0,0,0,.7-.3.7.7,0,0,0,.3-.6A.9.9,0,0,0,12.6,24.5Z"/>
          <path class="cls-1" d="M17,24.5a.7.7,0,0,0-.6-.3,1,1,0,0,0-1,1,.7.7,0,0,0,.3.6.9.9,0,0,0,.7.3.7.7,0,0,0,.6-.3.7.7,0,0,0,.3-.6A.9.9,0,0,0,17,24.5Z"/>
          <path class="cls-1" d="M36,8.4a3.4,3.4,0,0,0-3.2-3.2,3.3,3.3,0,0,0-2.7.9A3.6,3.6,0,0,0,29,8.6a.9.9,0,0,0,1,1,.9.9,0,0,0,.9-1,1.6,1.6,0,0,1,.5-1.1A1.8,1.8,0,0,1,32.6,7a1.6,1.6,0,0,1,1.5,1.5,1.6,1.6,0,0,1-1.2,1.7,1.6,1.6,0,0,0-1.3,1.6v1.9a.9.9,0,0,0,.9.9,1,1,0,0,0,1-.9V12A3.6,3.6,0,0,0,36,8.4Z"/>
          <path class="cls-1" d="M33.2,16.1a.9.9,0,0,0-.7-.3,1.1,1.1,0,0,0-.7.3,1.4,1.4,0,0,0-.2.7.9.9,0,0,0,.9.9.9.9,0,0,0,.7-.3.7.7,0,0,0,.3-.6A.9.9,0,0,0,33.2,16.1Z"/>
        </g>
        <g>
          <path class="primary" d="M18.8,29.6a6.5,6.5,0,0,0,2.1-4.8V21.1a4.2,4.2,0,0,0,.9-2.7V14.6a.9.9,0,0,0-.9-1H13.1a5.8,5.8,0,0,0-5.7,5.7v5.5a6.5,6.5,0,0,0,2.1,4.8A9.8,9.8,0,0,0,0,39.4v7.7a.9.9,0,0,0,.9.9H27.4a.9.9,0,0,0,.9-.9V39.4A9.8,9.8,0,0,0,18.8,29.6ZM13.1,15.5h6.8v2.9a2.7,2.7,0,0,1-2.6,2.7h-8V19.3h0A3.8,3.8,0,0,1,13.1,15.5ZM9.3,24.8V22.9h8a4.7,4.7,0,0,0,1.7-.3v2.2a4.9,4.9,0,0,1-9.7,0ZM18,31.5l-3.7,6.2-3.7-6.2Zm8.4,14.6H24.3V39.6a1,1,0,0,0-1-1,1,1,0,0,0-.9,1v6.5H6.2V39.6a1,1,0,0,0-1-1,1,1,0,0,0-.9,1v6.5H1.9V39.4a7.9,7.9,0,0,1,6.6-7.8l5,8.4a.9.9,0,0,0,.8.5,1,1,0,0,0,.8-.5l5-8.3a7.8,7.8,0,0,1,6.3,7.7v6.7Z"/>
          <path class="primary" d="M41.3,0H35.9a.9.9,0,0,0-.9.9.9.9,0,0,0,.9,1h5.4a2.8,2.8,0,0,1,2.8,2.8V17.2a2.9,2.9,0,0,1-2.8,2.9H37.8l-.6.2-4.5,4.5V21a.9.9,0,0,0-.9-.9H23.7a.9.9,0,0,0,0,1.8h7.1V27a1.1,1.1,0,0,0,.6.9h.4a.7.7,0,0,0,.6-.3l5.8-5.8h3.1A4.7,4.7,0,0,0,46,17.2V4.7A4.7,4.7,0,0,0,41.3,0Z"/>
          <path class="primary" d="M33.2.3a.9.9,0,0,0-.7-.3,1.1,1.1,0,0,0-.7.3,1.1,1.1,0,0,0-.2.6,1.4,1.4,0,0,0,.2.7,1.1,1.1,0,0,0,.7.3.9.9,0,0,0,.7-.3.9.9,0,0,0,.3-.7A.7.7,0,0,0,33.2.3Z"/>
          <path class="primary" d="M29.1,0H23.7A4.7,4.7,0,0,0,19,4.7V9.9a.9.9,0,0,0,1,.9.9.9,0,0,0,.9-.9V4.7a2.8,2.8,0,0,1,2.8-2.8h5.4a.9.9,0,0,0,.9-1A.9.9,0,0,0,29.1,0Z"/>
          <path class="primary" d="M20.2,40H18.9a1,1,0,0,0-1,1,.9.9,0,0,0,1,.9h1.3a.9.9,0,0,0,.9-.9A1,1,0,0,0,20.2,40Z"/>
          <path class="primary" d="M12.6,24.5a.9.9,0,0,0-.7-.3,1.1,1.1,0,0,0-.7.3,1.4,1.4,0,0,0-.2.7,1.1,1.1,0,0,0,.2.6,1.1,1.1,0,0,0,.7.3.9.9,0,0,0,.7-.3.7.7,0,0,0,.3-.6A.9.9,0,0,0,12.6,24.5Z"/>
          <path class="primary" d="M17,24.5a.7.7,0,0,0-.6-.3,1,1,0,0,0-1,1,.7.7,0,0,0,.3.6.9.9,0,0,0,.7.3.7.7,0,0,0,.6-.3.7.7,0,0,0,.3-.6A.9.9,0,0,0,17,24.5Z"/>
          <path class="primary" d="M36,8.4a3.4,3.4,0,0,0-3.2-3.2,3.3,3.3,0,0,0-2.7.9A3.6,3.6,0,0,0,29,8.6a.9.9,0,0,0,1,1,.9.9,0,0,0,.9-1,1.6,1.6,0,0,1,.5-1.1A1.8,1.8,0,0,1,32.6,7a1.6,1.6,0,0,1,1.5,1.5,1.6,1.6,0,0,1-1.2,1.7,1.6,1.6,0,0,0-1.3,1.6v1.9a.9.9,0,0,0,.9.9,1,1,0,0,0,1-.9V12A3.6,3.6,0,0,0,36,8.4Z"/>
          <path class="primary" d="M33.2,16.1a.9.9,0,0,0-.7-.3,1.1,1.1,0,0,0-.7.3,1.4,1.4,0,0,0-.2.7.9.9,0,0,0,.9.9.9.9,0,0,0,.7-.3.7.7,0,0,0,.3-.6A.9.9,0,0,0,33.2,16.1Z"/>
        </g>
      </g>
    </g>
  </g>
</svg>
