<svg xmlns="http://www.w3.org/2000/svg" viewBox="0 0 48 48">
  <defs>
    <style>
      .cls-1 {
        fill: #417ec0;
      }

      .primary {
        fill: #0f8bfe;
      }
    </style>
  </defs>
  <title>feature-4</title>
  <g id="Camada_2" data-name="Camada 2">
    <g id="orbit_app">
      <g id="feature-4">
        <g>
          <path class="cls-1" d="M14.1,29.3a1.4,1.4,0,0,1,1.9.6l2.7,4.9a1,1,0,0,0,1,.4,1,1,0,0,0,.7-.9V27.2a.9.9,0,1,0-1.8,0v3.4L17.7,29a3.3,3.3,0,0,0-4.4-1.4,3.4,3.4,0,0,0-1.8,3.7l1.7,7.1A13,13,0,0,0,15.4,43l3.3,4.6a.9.9,0,0,0,.8.4l.5-.2a.8.8,0,0,0,.2-1.3l-3.3-4.6A9.9,9.9,0,0,1,15.1,38l-1.7-7.1A1.3,1.3,0,0,1,14.1,29.3Z"/>
          <path class="cls-1" d="M35.3,25.3a4.1,4.1,0,0,0-1.6.3,3,3,0,0,0-2.9-2,3.8,3.8,0,0,0-1.6.4,3.3,3.3,0,0,0-4.3-1.5V18a3.2,3.2,0,1,0-6.3,0v1.6a.9.9,0,0,0,1.8,0V18a1.3,1.3,0,0,1,1.3-1.3A1.3,1.3,0,0,1,23.1,18V31.2a.9.9,0,1,0,1.8,0V25.4A1.4,1.4,0,0,1,26.3,24a1.3,1.3,0,0,1,1.3,1.4v5.8a.9.9,0,1,0,1.8,0V26.8a1.3,1.3,0,0,1,1.4-1.3,1.3,1.3,0,0,1,1.3,1.3v4.4a.9.9,0,0,0,.9.9,1,1,0,0,0,1-.9V28.4a1.3,1.3,0,0,1,1.3-1.3,1.3,1.3,0,0,1,1.3,1.3v8a18.7,18.7,0,0,1-1,6.2l-1.3,4.2a1,1,0,0,0,.6,1.2h.3a1,1,0,0,0,.9-.7l1.3-4.2a21.9,21.9,0,0,0,1.1-6.7v-8A3.2,3.2,0,0,0,35.3,25.3Z"/>
          <path class="cls-1" d="M47.9,5a1.6,1.6,0,0,0-1.3-1.1l-2.8-.4L42.5.9A1.5,1.5,0,0,0,41.1,0h0a1.4,1.4,0,0,0-1.4.9L38.4,3.5l-2.9.4A1.6,1.6,0,0,0,34.2,5a1.6,1.6,0,0,0,.4,1.6l2.1,2-.5,2.9a1.6,1.6,0,0,0,.6,1.5,1.7,1.7,0,0,0,1,.3,1,1,0,0,0,.7-.2l2.6-1.3,2.5,1.3a1.5,1.5,0,0,0,1.7-.1,1.4,1.4,0,0,0,.6-1.5l-.5-2.9,2.1-2A1.4,1.4,0,0,0,47.9,5ZM44,7.4a1.7,1.7,0,0,0-.4,1.4l.4,2.4-2.2-1.1a1.4,1.4,0,0,0-1.5,0l-2.1,1.1.4-2.4a1.5,1.5,0,0,0-.5-1.4L36.4,5.7l2.4-.4A1.7,1.7,0,0,0,40,4.5l1.1-2.3,1.1,2.3a1.5,1.5,0,0,0,1.2.8l2.4.4Z"/>
          <path class="cls-1" d="M30.8,5a1.4,1.4,0,0,0-1.2-1.1l-2.9-.4L25.4.9A1.5,1.5,0,0,0,24,0h0a1.5,1.5,0,0,0-1.4.9L21.3,3.5l-2.9.4A1.4,1.4,0,0,0,17.2,5a1.4,1.4,0,0,0,.4,1.6l2,2-.5,2.9a1.5,1.5,0,0,0,.7,1.5,1.4,1.4,0,0,0,.9.3,1,1,0,0,0,.7-.2L24,11.8l2.6,1.3a1.4,1.4,0,0,0,1.6-.1,1.5,1.5,0,0,0,.7-1.5l-.5-2.9,2-2A1.4,1.4,0,0,0,30.8,5ZM26.9,7.4a1.7,1.7,0,0,0-.4,1.4l.4,2.4-2.2-1.1a1.2,1.2,0,0,0-1.4,0l-2.2,1.1.4-2.4a1.7,1.7,0,0,0-.4-1.4L19.3,5.7l2.4-.4a1.7,1.7,0,0,0,1.2-.8L24,2.2l1.1,2.3a1.7,1.7,0,0,0,1.2.8l2.4.4Z"/>
          <path class="cls-1" d="M13.8,5a1.6,1.6,0,0,0-1.3-1.1L9.6,3.5,8.3.9A1.4,1.4,0,0,0,6.9,0h0A1.5,1.5,0,0,0,5.5.9L4.2,3.5l-2.8.4A1.6,1.6,0,0,0,.1,5,1.4,1.4,0,0,0,.5,6.6l2.1,2-.5,2.9A1.4,1.4,0,0,0,2.7,13l.9.3a1.2,1.2,0,0,0,.8-.2l2.5-1.3,2.6,1.3a1.5,1.5,0,0,0,1.7-.1,1.6,1.6,0,0,0,.6-1.5l-.5-2.9,2.1-2A1.6,1.6,0,0,0,13.8,5ZM9.9,7.4a1.5,1.5,0,0,0-.5,1.4l.4,2.4L7.7,10.1a1.4,1.4,0,0,0-1.5,0L4,11.2l.4-2.4A1.7,1.7,0,0,0,4,7.4L2.2,5.7l2.4-.4a1.5,1.5,0,0,0,1.2-.8L6.9,2.2,8,4.5a1.7,1.7,0,0,0,1.2.8l2.4.4Z"/>
          <path class="cls-1" d="M20.2,22.8a1.1,1.1,0,0,0-.7-.3.9.9,0,0,0-.7.3,1.4,1.4,0,0,0-.2.7,1.4,1.4,0,0,0,.2.6.9.9,0,0,0,.7.3,1.1,1.1,0,0,0,.7-.3,1.4,1.4,0,0,0,.2-.6A1.4,1.4,0,0,0,20.2,22.8Z"/>
        </g>
        <g>
          <path class="primary" d="M14.1,29.3a1.4,1.4,0,0,1,1.9.6l2.7,4.9a1,1,0,0,0,1,.4,1,1,0,0,0,.7-.9V27.2a.9.9,0,1,0-1.8,0v3.4L17.7,29a3.3,3.3,0,0,0-4.4-1.4,3.4,3.4,0,0,0-1.8,3.7l1.7,7.1A13,13,0,0,0,15.4,43l3.3,4.6a.9.9,0,0,0,.8.4l.5-.2a.8.8,0,0,0,.2-1.3l-3.3-4.6A9.9,9.9,0,0,1,15.1,38l-1.7-7.1A1.3,1.3,0,0,1,14.1,29.3Z"/>
          <path class="primary" d="M35.3,25.3a4.1,4.1,0,0,0-1.6.3,3,3,0,0,0-2.9-2,3.8,3.8,0,0,0-1.6.4,3.3,3.3,0,0,0-4.3-1.5V18a3.2,3.2,0,1,0-6.3,0v1.6a.9.9,0,0,0,1.8,0V18a1.3,1.3,0,0,1,1.3-1.3A1.3,1.3,0,0,1,23.1,18V31.2a.9.9,0,1,0,1.8,0V25.4A1.4,1.4,0,0,1,26.3,24a1.3,1.3,0,0,1,1.3,1.4v5.8a.9.9,0,1,0,1.8,0V26.8a1.3,1.3,0,0,1,1.4-1.3,1.3,1.3,0,0,1,1.3,1.3v4.4a.9.9,0,0,0,.9.9,1,1,0,0,0,1-.9V28.4a1.3,1.3,0,0,1,1.3-1.3,1.3,1.3,0,0,1,1.3,1.3v8a18.7,18.7,0,0,1-1,6.2l-1.3,4.2a1,1,0,0,0,.6,1.2h.3a1,1,0,0,0,.9-.7l1.3-4.2a21.9,21.9,0,0,0,1.1-6.7v-8A3.2,3.2,0,0,0,35.3,25.3Z"/>
          <path class="primary" d="M47.9,5a1.6,1.6,0,0,0-1.3-1.1l-2.8-.4L42.5.9A1.5,1.5,0,0,0,41.1,0h0a1.4,1.4,0,0,0-1.4.9L38.4,3.5l-2.9.4A1.6,1.6,0,0,0,34.2,5a1.6,1.6,0,0,0,.4,1.6l2.1,2-.5,2.9a1.6,1.6,0,0,0,.6,1.5,1.7,1.7,0,0,0,1,.3,1,1,0,0,0,.7-.2l2.6-1.3,2.5,1.3a1.5,1.5,0,0,0,1.7-.1,1.4,1.4,0,0,0,.6-1.5l-.5-2.9,2.1-2A1.4,1.4,0,0,0,47.9,5ZM44,7.4a1.7,1.7,0,0,0-.4,1.4l.4,2.4-2.2-1.1a1.4,1.4,0,0,0-1.5,0l-2.1,1.1.4-2.4a1.5,1.5,0,0,0-.5-1.4L36.4,5.7l2.4-.4A1.7,1.7,0,0,0,40,4.5l1.1-2.3,1.1,2.3a1.5,1.5,0,0,0,1.2.8l2.4.4Z"/>
          <path class="primary" d="M30.8,5a1.4,1.4,0,0,0-1.2-1.1l-2.9-.4L25.4.9A1.5,1.5,0,0,0,24,0h0a1.5,1.5,0,0,0-1.4.9L21.3,3.5l-2.9.4A1.4,1.4,0,0,0,17.2,5a1.4,1.4,0,0,0,.4,1.6l2,2-.5,2.9a1.5,1.5,0,0,0,.7,1.5,1.4,1.4,0,0,0,.9.3,1,1,0,0,0,.7-.2L24,11.8l2.6,1.3a1.4,1.4,0,0,0,1.6-.1,1.5,1.5,0,0,0,.7-1.5l-.5-2.9,2-2A1.4,1.4,0,0,0,30.8,5ZM26.9,7.4a1.7,1.7,0,0,0-.4,1.4l.4,2.4-2.2-1.1a1.2,1.2,0,0,0-1.4,0l-2.2,1.1.4-2.4a1.7,1.7,0,0,0-.4-1.4L19.3,5.7l2.4-.4a1.7,1.7,0,0,0,1.2-.8L24,2.2l1.1,2.3a1.7,1.7,0,0,0,1.2.8l2.4.4Z"/>
          <path class="primary" d="M13.8,5a1.6,1.6,0,0,0-1.3-1.1L9.6,3.5,8.3.9A1.4,1.4,0,0,0,6.9,0h0A1.5,1.5,0,0,0,5.5.9L4.2,3.5l-2.8.4A1.6,1.6,0,0,0,.1,5,1.4,1.4,0,0,0,.5,6.6l2.1,2-.5,2.9A1.4,1.4,0,0,0,2.7,13l.9.3a1.2,1.2,0,0,0,.8-.2l2.5-1.3,2.6,1.3a1.5,1.5,0,0,0,1.7-.1,1.6,1.6,0,0,0,.6-1.5l-.5-2.9,2.1-2A1.6,1.6,0,0,0,13.8,5ZM9.9,7.4a1.5,1.5,0,0,0-.5,1.4l.4,2.4L7.7,10.1a1.4,1.4,0,0,0-1.5,0L4,11.2l.4-2.4A1.7,1.7,0,0,0,4,7.4L2.2,5.7l2.4-.4a1.5,1.5,0,0,0,1.2-.8L6.9,2.2,8,4.5a1.7,1.7,0,0,0,1.2.8l2.4.4Z"/>
          <path class="primary" d="M20.2,22.8a1.1,1.1,0,0,0-.7-.3.9.9,0,0,0-.7.3,1.4,1.4,0,0,0-.2.7,1.4,1.4,0,0,0,.2.6.9.9,0,0,0,.7.3,1.1,1.1,0,0,0,.7-.3,1.4,1.4,0,0,0,.2-.6A1.4,1.4,0,0,0,20.2,22.8Z"/>
        </g>
      </g>
    </g>
  </g>
</svg>
