<svg xmlns="http://www.w3.org/2000/svg" viewBox="0 0 48 48">
  <defs>
    <style>
      .cls-1 {
        fill: #417ec0;
      }

      .primary {
        fill: #0f8bfe;
      }
    </style>
  </defs>
  <title>feature-2</title>
  <g id="Camada_2" data-name="Camada 2">
    <g id="orbit_app">
      <g id="feature-2">
        <g>
          <path class="cls-1" d="M5.9,46.4a.9.9,0,0,0-.7-.3.7.7,0,0,0-.6.3.9.9,0,0,0-.3.7.7.7,0,0,0,.3.6.7.7,0,0,0,.6.3.9.9,0,0,0,.7-.3.7.7,0,0,0,.3-.6A.9.9,0,0,0,5.9,46.4Z"/>
          <path class="cls-1" d="M35,39.8a.9.9,0,0,0-.7-.3.9.9,0,0,0-.9.9,1.4,1.4,0,0,0,.2.7,1.1,1.1,0,0,0,.7.3.9.9,0,0,0,.7-.3,1.5,1.5,0,0,0,.3-.7A1.1,1.1,0,0,0,35,39.8Z"/>
          <path class="cls-1" d="M45,15.2a4.1,4.1,0,0,0,1.1-2.8v-.8a3.9,3.9,0,1,0-7.8,0v.8a4.1,4.1,0,0,0,1.1,2.8,5.4,5.4,0,0,0-2.9,4.1H32.2a2.9,2.9,0,0,0-2.9,2.8,3,3,0,0,0,.2,1h-11a3,3,0,0,0,.2-1,2.9,2.9,0,0,0-2.9-2.8H11.5a5.4,5.4,0,0,0-2.9-4.1,4.2,4.2,0,0,0,1.2-2.8v-.8a4,4,0,0,0-4-3.9,3.9,3.9,0,0,0-3.9,3.9v.8A4.1,4.1,0,0,0,3,15.2a5.7,5.7,0,0,0-3,5.1V30.8a5.3,5.3,0,0,0,5.3,5.3h7.5V45a2,2,0,0,0,.2,1.1H9.3a.9.9,0,0,0-1,1,.9.9,0,0,0,1,.9H42.8a.9.9,0,0,0,.9-.9.9.9,0,0,0-.9-1H35a2,2,0,0,0,.3-1.1V44a1.1,1.1,0,0,0-1-1,1,1,0,0,0-.9,1v1a1.1,1.1,0,0,1-2.2,0V33.2a2.7,2.7,0,0,1,2.7-2.6H46.1v.2a3.4,3.4,0,0,1-3.4,3.4H34.3a.9.9,0,0,0-.9,1v1.5a.9.9,0,0,0,.9.9,1,1,0,0,0,1-.9v-.6h7.4A5.3,5.3,0,0,0,48,30.8V20.3A5.7,5.7,0,0,0,45,15.2Zm-4.9-3.6a2.1,2.1,0,0,1,4.2,0v.8a2.1,2.1,0,0,1-4.2,0Zm-36.3,0a2,2,0,0,1,2-2,2.1,2.1,0,0,1,2.1,2v.8a2.1,2.1,0,0,1-2.1,2,2,2,0,0,1-2-2ZM1.9,20.3a3.9,3.9,0,0,1,3.9-4,4,4,0,0,1,4,4,.9.9,0,0,0,.9.9h5.1a.9.9,0,0,1,1,.9,1,1,0,0,1-1,1H10.4a4.2,4.2,0,0,1-3.6-2.2,1,1,0,0,0-1.2-.4.9.9,0,0,0-.4,1.3,5.8,5.8,0,0,0,4.6,3.1v3.8H1.9Zm11.5,8.4H11.6V24.9h1.8a3.9,3.9,0,0,0,0,3.8ZM16.8,45a1.1,1.1,0,0,1-2.2,0V35.2a.9.9,0,0,0-.9-1H5.3a3.4,3.4,0,0,1-3.4-3.4v-.2H14.1a2.7,2.7,0,0,1,2.7,2.6Zm4.4,1.1H18.5a3.6,3.6,0,0,0,.2-1.1V33.2a4.5,4.5,0,0,0-.9-2.6h3.4Zm3.7,0H23.1V30.6h1.8Zm4.6,0H26.8V30.6h3.4a4.5,4.5,0,0,0-.9,2.6V45A3.6,3.6,0,0,0,29.5,46.1Zm1.8-17.4H16.7a1.9,1.9,0,0,1,0-3.8H31.3a1.9,1.9,0,0,1,0,3.8Zm5.1-3.5v3.5H34.6a3.9,3.9,0,0,0,0-3.8h1.8Zm9.7,3.5H38.3V25.2c0-.1-.1-.2-.1-.3a5.8,5.8,0,0,0,4.6-3.1.9.9,0,0,0-.4-1.3,1,1,0,0,0-1.2.4,4.2,4.2,0,0,1-3.6,2.2H32.2a1,1,0,0,1-1-1,.9.9,0,0,1,1-.9h5.1a1,1,0,0,0,1-.9,3.9,3.9,0,1,1,7.8,0Z"/>
          <path class="cls-1" d="M30.8,0H17.3a2.9,2.9,0,0,0-2.9,2.8V12a2.8,2.8,0,0,0,2.9,2.8h3.2l2.8,2.8a1,1,0,0,0,1.4,0l2.8-2.8h3.3A2.8,2.8,0,0,0,33.6,12V2.8A2.9,2.9,0,0,0,30.8,0Zm.9,12a.9.9,0,0,1-.9.9H27.1a.9.9,0,0,0-.7.3L24,15.6l-2.4-2.4a.9.9,0,0,0-.7-.3H17.3a.9.9,0,0,1-1-.9V2.8a.9.9,0,0,1,1-.9H30.8a.9.9,0,0,1,.9.9Z"/>
          <path class="cls-1" d="M20.3,6.4a1.1,1.1,0,0,0-.7-.3.9.9,0,0,0-.7.3,1.4,1.4,0,0,0-.2.6,1.4,1.4,0,0,0,.2.7.9.9,0,0,0,.7.3,1.1,1.1,0,0,0,.7-.3,1.4,1.4,0,0,0,.2-.7A1.4,1.4,0,0,0,20.3,6.4Z"/>
          <path class="cls-1" d="M24.7,6.4a1,1,0,0,0-1.4,0,1.4,1.4,0,0,0-.2.6,1.4,1.4,0,0,0,.2.7,1,1,0,0,0,1.4,0,1.4,1.4,0,0,0,.2-.7A1.4,1.4,0,0,0,24.7,6.4Z"/>
          <path class="cls-1" d="M29.1,6.4a.9.9,0,0,0-.7-.3,1.1,1.1,0,0,0-.7.3,1.4,1.4,0,0,0-.2.6,1.4,1.4,0,0,0,.2.7,1.1,1.1,0,0,0,.7.3.9.9,0,0,0,.7-.3,1.4,1.4,0,0,0,.2-.7A1.4,1.4,0,0,0,29.1,6.4Z"/>
        </g>
        <g>
          <path class="primary" d="M5.9,46.4a.9.9,0,0,0-.7-.3.7.7,0,0,0-.6.3.9.9,0,0,0-.3.7.7.7,0,0,0,.3.6.7.7,0,0,0,.6.3.9.9,0,0,0,.7-.3.7.7,0,0,0,.3-.6A.9.9,0,0,0,5.9,46.4Z"/>
          <path class="primary" d="M35,39.8a.9.9,0,0,0-.7-.3.9.9,0,0,0-.9.9,1.4,1.4,0,0,0,.2.7,1.1,1.1,0,0,0,.7.3.9.9,0,0,0,.7-.3,1.5,1.5,0,0,0,.3-.7A1.1,1.1,0,0,0,35,39.8Z"/>
          <path class="primary" d="M45,15.2a4.1,4.1,0,0,0,1.1-2.8v-.8a3.9,3.9,0,1,0-7.8,0v.8a4.1,4.1,0,0,0,1.1,2.8,5.4,5.4,0,0,0-2.9,4.1H32.2a2.9,2.9,0,0,0-2.9,2.8,3,3,0,0,0,.2,1h-11a3,3,0,0,0,.2-1,2.9,2.9,0,0,0-2.9-2.8H11.5a5.4,5.4,0,0,0-2.9-4.1,4.2,4.2,0,0,0,1.2-2.8v-.8a4,4,0,0,0-4-3.9,3.9,3.9,0,0,0-3.9,3.9v.8A4.1,4.1,0,0,0,3,15.2a5.7,5.7,0,0,0-3,5.1V30.8a5.3,5.3,0,0,0,5.3,5.3h7.5V45a2,2,0,0,0,.2,1.1H9.3a.9.9,0,0,0-1,1,.9.9,0,0,0,1,.9H42.8a.9.9,0,0,0,.9-.9.9.9,0,0,0-.9-1H35a2,2,0,0,0,.3-1.1V44a1.1,1.1,0,0,0-1-1,1,1,0,0,0-.9,1v1a1.1,1.1,0,0,1-2.2,0V33.2a2.7,2.7,0,0,1,2.7-2.6H46.1v.2a3.4,3.4,0,0,1-3.4,3.4H34.3a.9.9,0,0,0-.9,1v1.5a.9.9,0,0,0,.9.9,1,1,0,0,0,1-.9v-.6h7.4A5.3,5.3,0,0,0,48,30.8V20.3A5.7,5.7,0,0,0,45,15.2Zm-4.9-3.6a2.1,2.1,0,0,1,4.2,0v.8a2.1,2.1,0,0,1-4.2,0Zm-36.3,0a2,2,0,0,1,2-2,2.1,2.1,0,0,1,2.1,2v.8a2.1,2.1,0,0,1-2.1,2,2,2,0,0,1-2-2ZM1.9,20.3a3.9,3.9,0,0,1,3.9-4,4,4,0,0,1,4,4,.9.9,0,0,0,.9.9h5.1a.9.9,0,0,1,1,.9,1,1,0,0,1-1,1H10.4a4.2,4.2,0,0,1-3.6-2.2,1,1,0,0,0-1.2-.4.9.9,0,0,0-.4,1.3,5.8,5.8,0,0,0,4.6,3.1v3.8H1.9Zm11.5,8.4H11.6V24.9h1.8a3.9,3.9,0,0,0,0,3.8ZM16.8,45a1.1,1.1,0,0,1-2.2,0V35.2a.9.9,0,0,0-.9-1H5.3a3.4,3.4,0,0,1-3.4-3.4v-.2H14.1a2.7,2.7,0,0,1,2.7,2.6Zm4.4,1.1H18.5a3.6,3.6,0,0,0,.2-1.1V33.2a4.5,4.5,0,0,0-.9-2.6h3.4Zm3.7,0H23.1V30.6h1.8Zm4.6,0H26.8V30.6h3.4a4.5,4.5,0,0,0-.9,2.6V45A3.6,3.6,0,0,0,29.5,46.1Zm1.8-17.4H16.7a1.9,1.9,0,0,1,0-3.8H31.3a1.9,1.9,0,0,1,0,3.8Zm5.1-3.5v3.5H34.6a3.9,3.9,0,0,0,0-3.8h1.8Zm9.7,3.5H38.3V25.2c0-.1-.1-.2-.1-.3a5.8,5.8,0,0,0,4.6-3.1.9.9,0,0,0-.4-1.3,1,1,0,0,0-1.2.4,4.2,4.2,0,0,1-3.6,2.2H32.2a1,1,0,0,1-1-1,.9.9,0,0,1,1-.9h5.1a1,1,0,0,0,1-.9,3.9,3.9,0,1,1,7.8,0Z"/>
          <path class="primary" d="M30.8,0H17.3a2.9,2.9,0,0,0-2.9,2.8V12a2.8,2.8,0,0,0,2.9,2.8h3.2l2.8,2.8a1,1,0,0,0,1.4,0l2.8-2.8h3.3A2.8,2.8,0,0,0,33.6,12V2.8A2.9,2.9,0,0,0,30.8,0Zm.9,12a.9.9,0,0,1-.9.9H27.1a.9.9,0,0,0-.7.3L24,15.6l-2.4-2.4a.9.9,0,0,0-.7-.3H17.3a.9.9,0,0,1-1-.9V2.8a.9.9,0,0,1,1-.9H30.8a.9.9,0,0,1,.9.9Z"/>
          <path class="primary" d="M20.3,6.4a1.1,1.1,0,0,0-.7-.3.9.9,0,0,0-.7.3,1.4,1.4,0,0,0-.2.6,1.4,1.4,0,0,0,.2.7.9.9,0,0,0,.7.3,1.1,1.1,0,0,0,.7-.3,1.4,1.4,0,0,0,.2-.7A1.4,1.4,0,0,0,20.3,6.4Z"/>
          <path class="primary" d="M24.7,6.4a1,1,0,0,0-1.4,0,1.4,1.4,0,0,0-.2.6,1.4,1.4,0,0,0,.2.7,1,1,0,0,0,1.4,0,1.4,1.4,0,0,0,.2-.7A1.4,1.4,0,0,0,24.7,6.4Z"/>
          <path class="primary" d="M29.1,6.4a.9.9,0,0,0-.7-.3,1.1,1.1,0,0,0-.7.3,1.4,1.4,0,0,0-.2.6,1.4,1.4,0,0,0,.2.7,1.1,1.1,0,0,0,.7.3.9.9,0,0,0,.7-.3,1.4,1.4,0,0,0,.2-.7A1.4,1.4,0,0,0,29.1,6.4Z"/>
        </g>
      </g>
    </g>
  </g>
</svg>
