<svg xmlns="http://www.w3.org/2000/svg" viewBox="0 0 48 48">
  <defs>
    <style>
      .cls-1 {
        fill: #417ec0;
      }

      .primary {
        fill: #0f8bfe;
      }
    </style>
  </defs>
  <title>feature-3</title>
  <g id="Camada_2" data-name="Camada 2">
    <g id="orbit_app">
      <g id="feature-3">
        <g>
          <path class="cls-1" d="M43.2,25.2a4.4,4.4,0,0,0,.7-2.2v-.8a3.9,3.9,0,0,0-4-3.9,3.9,3.9,0,0,0-2.7,1.1,14,14,0,0,0-26.4,0,3.9,3.9,0,0,0-2.7-1.1,3.9,3.9,0,0,0-4,3.9V23a4.4,4.4,0,0,0,.7,2.2A6,6,0,0,0,0,31.1V33a.9.9,0,0,0,.9.9H5.8a1,1,0,0,0,1-.9,1,1,0,0,0-1-1H1.9v-.9A4.1,4.1,0,0,1,6,26.9h4.5a13.2,13.2,0,0,0,1.8,4.4L1.6,42a3.5,3.5,0,0,0,2.5,6,3.5,3.5,0,0,0,2.5-1l5.9-5.9a1.2,1.2,0,0,0,0-1.4,1,1,0,0,0-1.3,0L5.3,45.6a1.6,1.6,0,0,1-2.4,0,1.7,1.7,0,0,1,0-2.3L13.4,32.8A14,14,0,0,0,24,37.7,13.8,13.8,0,0,0,37.5,26.9H42a4.1,4.1,0,0,1,4.1,4.2V32H37.3a.9.9,0,0,0-.9,1,.9.9,0,0,0,.9.9h9.8A.9.9,0,0,0,48,33V31.1A6,6,0,0,0,43.2,25.2ZM10.1,23a2,2,0,0,1-2,2A2,2,0,0,1,6,23v-.8a2.1,2.1,0,0,1,2.1-2.1,2.1,2.1,0,0,1,2,2.1ZM24,35.8a12,12,0,1,1,12-12A12,12,0,0,1,24,35.8ZM42,23a2,2,0,0,1-2.1,2,2,2,0,0,1-2-2v-.8a2.1,2.1,0,1,1,4.1,0Z"/>
          <path class="cls-1" d="M24,13.7A10.1,10.1,0,0,0,13.9,23.8a10,10,0,0,0,3.2,7.4.1.1,0,0,0,.1.1,9.9,9.9,0,0,0,13.6,0,.1.1,0,0,0,.1-.1,10,10,0,0,0,3.2-7.4A10.1,10.1,0,0,0,24,13.7Zm0,18.4a8.3,8.3,0,0,1-5.1-1.8,5.7,5.7,0,0,1,10.2,0A8.3,8.3,0,0,1,24,32.1Zm-2-8.7v-.7a2,2,0,0,1,4,0v.7a2,2,0,0,1-4,0Zm8.5,5.5a8.1,8.1,0,0,0-3.6-3,3.7,3.7,0,0,0,1-2.5v-.7a3.9,3.9,0,0,0-7.8,0v.7a3.7,3.7,0,0,0,1,2.5,8.1,8.1,0,0,0-3.6,3,8,8,0,0,1-1.7-5.1A8.2,8.2,0,0,1,24,15.6a8.3,8.3,0,0,1,8.3,8.2A8.1,8.1,0,0,1,30.5,28.9Z"/>
          <path class="cls-1" d="M15,37.2l-.7-.2-.6.2a1.1,1.1,0,0,0-.3.7.9.9,0,0,0,.3.7l.6.2.7-.2a.9.9,0,0,0,.3-.7A1.1,1.1,0,0,0,15,37.2Z"/>
          <path class="cls-1" d="M24,0a.9.9,0,0,0-.9.9V4.1a1,1,0,0,0,.9,1,1.1,1.1,0,0,0,1-1V.9A1,1,0,0,0,24,0Z"/>
          <path class="cls-1" d="M24.7,6.6a.9.9,0,0,0-.7-.3.7.7,0,0,0-.6.3.7.7,0,0,0-.3.6.9.9,0,0,0,.3.7.7.7,0,0,0,.6.3,1,1,0,0,0,1-1A.7.7,0,0,0,24.7,6.6Z"/>
          <path class="cls-1" d="M32,3.7a1,1,0,0,0-1.4,0L29,5.3a1,1,0,0,0,0,1.4l.7.2.6-.2L32,5A1,1,0,0,0,32,3.7Z"/>
          <path class="cls-1" d="M19,5.3,17.4,3.7a1,1,0,0,0-1.4,0A1,1,0,0,0,16,5l1.7,1.7.7.2.6-.2A1,1,0,0,0,19,5.3Z"/>
        </g>
        <g>
          <path class="primary" d="M43.2,25.2a4.4,4.4,0,0,0,.7-2.2v-.8a3.9,3.9,0,0,0-4-3.9,3.9,3.9,0,0,0-2.7,1.1,14,14,0,0,0-26.4,0,3.9,3.9,0,0,0-2.7-1.1,3.9,3.9,0,0,0-4,3.9V23a4.4,4.4,0,0,0,.7,2.2A6,6,0,0,0,0,31.1V33a.9.9,0,0,0,.9.9H5.8a1,1,0,0,0,1-.9,1,1,0,0,0-1-1H1.9v-.9A4.1,4.1,0,0,1,6,26.9h4.5a13.2,13.2,0,0,0,1.8,4.4L1.6,42a3.5,3.5,0,0,0,2.5,6,3.5,3.5,0,0,0,2.5-1l5.9-5.9a1.2,1.2,0,0,0,0-1.4,1,1,0,0,0-1.3,0L5.3,45.6a1.6,1.6,0,0,1-2.4,0,1.7,1.7,0,0,1,0-2.3L13.4,32.8A14,14,0,0,0,24,37.7,13.8,13.8,0,0,0,37.5,26.9H42a4.1,4.1,0,0,1,4.1,4.2V32H37.3a.9.9,0,0,0-.9,1,.9.9,0,0,0,.9.9h9.8A.9.9,0,0,0,48,33V31.1A6,6,0,0,0,43.2,25.2ZM10.1,23a2,2,0,0,1-2,2A2,2,0,0,1,6,23v-.8a2.1,2.1,0,0,1,2.1-2.1,2.1,2.1,0,0,1,2,2.1ZM24,35.8a12,12,0,1,1,12-12A12,12,0,0,1,24,35.8ZM42,23a2,2,0,0,1-2.1,2,2,2,0,0,1-2-2v-.8a2.1,2.1,0,1,1,4.1,0Z"/>
          <path class="primary" d="M24,13.7A10.1,10.1,0,0,0,13.9,23.8a10,10,0,0,0,3.2,7.4.1.1,0,0,0,.1.1,9.9,9.9,0,0,0,13.6,0,.1.1,0,0,0,.1-.1,10,10,0,0,0,3.2-7.4A10.1,10.1,0,0,0,24,13.7Zm0,18.4a8.3,8.3,0,0,1-5.1-1.8,5.7,5.7,0,0,1,10.2,0A8.3,8.3,0,0,1,24,32.1Zm-2-8.7v-.7a2,2,0,0,1,4,0v.7a2,2,0,0,1-4,0Zm8.5,5.5a8.1,8.1,0,0,0-3.6-3,3.7,3.7,0,0,0,1-2.5v-.7a3.9,3.9,0,0,0-7.8,0v.7a3.7,3.7,0,0,0,1,2.5,8.1,8.1,0,0,0-3.6,3,8,8,0,0,1-1.7-5.1A8.2,8.2,0,0,1,24,15.6a8.3,8.3,0,0,1,8.3,8.2A8.1,8.1,0,0,1,30.5,28.9Z"/>
          <path class="primary" d="M15,37.2l-.7-.2-.6.2a1.1,1.1,0,0,0-.3.7.9.9,0,0,0,.3.7l.6.2.7-.2a.9.9,0,0,0,.3-.7A1.1,1.1,0,0,0,15,37.2Z"/>
          <path class="primary" d="M24,0a.9.9,0,0,0-.9.9V4.1a1,1,0,0,0,.9,1,1.1,1.1,0,0,0,1-1V.9A1,1,0,0,0,24,0Z"/>
          <path class="primary" d="M24.7,6.6a.9.9,0,0,0-.7-.3.7.7,0,0,0-.6.3.7.7,0,0,0-.3.6.9.9,0,0,0,.3.7.7.7,0,0,0,.6.3,1,1,0,0,0,1-1A.7.7,0,0,0,24.7,6.6Z"/>
          <path class="primary" d="M32,3.7a1,1,0,0,0-1.4,0L29,5.3a1,1,0,0,0,0,1.4l.7.2.6-.2L32,5A1,1,0,0,0,32,3.7Z"/>
          <path class="primary" d="M19,5.3,17.4,3.7a1,1,0,0,0-1.4,0A1,1,0,0,0,16,5l1.7,1.7.7.2.6-.2A1,1,0,0,0,19,5.3Z"/>
        </g>
      </g>
    </g>
  </g>
</svg>
