<svg xmlns="http://www.w3.org/2000/svg" viewBox="0 0 40 48">
  <defs>
    <style>
      .cls-1 {
        fill: #417ec0;
      }

      .primary {
        fill: #0f8bfe;
      }
    </style>
  </defs>
  <title>feature-1</title>
  <g id="Camada_2" data-name="Camada 2">
    <g id="orbit_app">
      <g id="feature-1">
        <g>
          <path class="cls-1" d="M29.9,0H2.8A2.8,2.8,0,0,0,0,2.8v9.6a.9.9,0,1,0,1.8,0V2.8a1,1,0,0,1,1-.9H29.9a.9.9,0,0,1,.9.9V37.7a.9.9,0,0,1-.9.9H2.8a1,1,0,0,1-1-.9V20.3a1,1,0,0,0-.9-1,1,1,0,0,0-.9,1V37.7a2.8,2.8,0,0,0,2.8,2.8H29.9a2.8,2.8,0,0,0,2.7-2.8V2.8A2.8,2.8,0,0,0,29.9,0Z"/>
          <path class="cls-1" d="M1.6,15.9a.9.9,0,0,0-.7-.3.7.7,0,0,0-.6.3.9.9,0,0,0-.3.7.7.7,0,0,0,.3.6.7.7,0,0,0,.6.3.9.9,0,0,0,.7-.3,1.1,1.1,0,0,0,.2-.6A1.4,1.4,0,0,0,1.6,15.9Z"/>
          <path class="cls-1" d="M5.3,42.7a.9.9,0,0,0-.7-.3.7.7,0,0,0-.6.3.7.7,0,0,0-.3.6A.9.9,0,0,0,4,44a.7.7,0,0,0,.6.3.9.9,0,0,0,.7-.3,1.4,1.4,0,0,0,.2-.7A1.1,1.1,0,0,0,5.3,42.7Z"/>
          <path class="cls-1" d="M35.4,3.8a.9.9,0,0,0-.9.9V41.4a.9.9,0,0,1-1,1H8.3a.9.9,0,0,0-.9.9,1,1,0,0,0,.9,1H33.5a2.8,2.8,0,0,0,2.8-2.9V4.7A.9.9,0,0,0,35.4,3.8Z"/>
          <path class="cls-1" d="M39.1,7.5a.9.9,0,0,0-.9.9V45.2a1,1,0,0,1-1,.9H8.3a.9.9,0,0,0-.9,1,.9.9,0,0,0,.9.9H37.2A2.8,2.8,0,0,0,40,45.2V8.4A.9.9,0,0,0,39.1,7.5Z"/>
          <path class="cls-1" d="M14.9,6.9H6.1a1,1,0,0,0-.9,1v9a.9.9,0,0,0,.9.9h8.8a.9.9,0,0,0,.9-.9v-9A1,1,0,0,0,14.9,6.9Zm-.9,9H7V8.8h7Z"/>
          <path class="cls-1" d="M12,22.1a.9.9,0,0,0-1.3,0L8.2,24.6,7.1,23.4a.9.9,0,0,0-1.3,0,.9.9,0,0,0,0,1.3l1.8,1.8a.7.7,0,0,0,.6.3.9.9,0,0,0,.7-.3L12,23.4A1,1,0,0,0,12,22.1Z"/>
          <path class="cls-1" d="M27.1,23.3H16.3a1,1,0,0,0-.9,1,.9.9,0,0,0,.9.9H27.1a.9.9,0,0,0,.9-.9A1,1,0,0,0,27.1,23.3Z"/>
          <path class="cls-1" d="M26.5,6.9H20.1a1,1,0,0,0-.9,1,.9.9,0,0,0,.9.9h6.4a1,1,0,0,0,1-.9A1.1,1.1,0,0,0,26.5,6.9Z"/>
          <path class="cls-1" d="M26.5,11.4H20.1a1,1,0,0,0-.9,1,.9.9,0,0,0,.9.9h6.4a1,1,0,0,0,1-.9A1.1,1.1,0,0,0,26.5,11.4Z"/>
          <path class="cls-1" d="M26.5,15.9H20.1a1,1,0,0,0-.9,1,.9.9,0,0,0,.9.9h6.4a1,1,0,0,0,1-.9A1.1,1.1,0,0,0,26.5,15.9Z"/>
          <path class="cls-1" d="M12,29.2a1,1,0,0,0-1.3,0L8.2,31.7,7.1,30.6a.9.9,0,0,0-1.3,0,.9.9,0,0,0,0,1.3l1.8,1.8a.7.7,0,0,0,.6.3.9.9,0,0,0,.7-.3L12,30.6A1.2,1.2,0,0,0,12,29.2Z"/>
          <path class="cls-1" d="M27.1,30.5H16.3a.9.9,0,0,0,0,1.8H27.1a.9.9,0,0,0,0-1.8Z"/>
        </g>
        <g>
          <path class="primary" d="M29.9,0H2.8A2.8,2.8,0,0,0,0,2.8v9.6a.9.9,0,1,0,1.8,0V2.8a1,1,0,0,1,1-.9H29.9a.9.9,0,0,1,.9.9V37.7a.9.9,0,0,1-.9.9H2.8a1,1,0,0,1-1-.9V20.3a1,1,0,0,0-.9-1,1,1,0,0,0-.9,1V37.7a2.8,2.8,0,0,0,2.8,2.8H29.9a2.8,2.8,0,0,0,2.7-2.8V2.8A2.8,2.8,0,0,0,29.9,0Z"/>
          <path class="primary" d="M1.6,15.9a.9.9,0,0,0-.7-.3.7.7,0,0,0-.6.3.9.9,0,0,0-.3.7.7.7,0,0,0,.3.6.7.7,0,0,0,.6.3.9.9,0,0,0,.7-.3,1.1,1.1,0,0,0,.2-.6A1.4,1.4,0,0,0,1.6,15.9Z"/>
          <path class="primary" d="M5.3,42.7a.9.9,0,0,0-.7-.3.7.7,0,0,0-.6.3.7.7,0,0,0-.3.6A.9.9,0,0,0,4,44a.7.7,0,0,0,.6.3.9.9,0,0,0,.7-.3,1.4,1.4,0,0,0,.2-.7A1.1,1.1,0,0,0,5.3,42.7Z"/>
          <path class="primary" d="M35.4,3.8a.9.9,0,0,0-.9.9V41.4a.9.9,0,0,1-1,1H8.3a.9.9,0,0,0-.9.9,1,1,0,0,0,.9,1H33.5a2.8,2.8,0,0,0,2.8-2.9V4.7A.9.9,0,0,0,35.4,3.8Z"/>
          <path class="primary" d="M39.1,7.5a.9.9,0,0,0-.9.9V45.2a1,1,0,0,1-1,.9H8.3a.9.9,0,0,0-.9,1,.9.9,0,0,0,.9.9H37.2A2.8,2.8,0,0,0,40,45.2V8.4A.9.9,0,0,0,39.1,7.5Z"/>
          <path class="primary" d="M14.9,6.9H6.1a1,1,0,0,0-.9,1v9a.9.9,0,0,0,.9.9h8.8a.9.9,0,0,0,.9-.9v-9A1,1,0,0,0,14.9,6.9Zm-.9,9H7V8.8h7Z"/>
          <path class="primary" d="M12,22.1a.9.9,0,0,0-1.3,0L8.2,24.6,7.1,23.4a.9.9,0,0,0-1.3,0,.9.9,0,0,0,0,1.3l1.8,1.8a.7.7,0,0,0,.6.3.9.9,0,0,0,.7-.3L12,23.4A1,1,0,0,0,12,22.1Z"/>
          <path class="primary" d="M27.1,23.3H16.3a1,1,0,0,0-.9,1,.9.9,0,0,0,.9.9H27.1a.9.9,0,0,0,.9-.9A1,1,0,0,0,27.1,23.3Z"/>
          <path class="primary" d="M26.5,6.9H20.1a1,1,0,0,0-.9,1,.9.9,0,0,0,.9.9h6.4a1,1,0,0,0,1-.9A1.1,1.1,0,0,0,26.5,6.9Z"/>
          <path class="primary" d="M26.5,11.4H20.1a1,1,0,0,0-.9,1,.9.9,0,0,0,.9.9h6.4a1,1,0,0,0,1-.9A1.1,1.1,0,0,0,26.5,11.4Z"/>
          <path class="primary" d="M26.5,15.9H20.1a1,1,0,0,0-.9,1,.9.9,0,0,0,.9.9h6.4a1,1,0,0,0,1-.9A1.1,1.1,0,0,0,26.5,15.9Z"/>
          <path class="primary" d="M12,29.2a1,1,0,0,0-1.3,0L8.2,31.7,7.1,30.6a.9.9,0,0,0-1.3,0,.9.9,0,0,0,0,1.3l1.8,1.8a.7.7,0,0,0,.6.3.9.9,0,0,0,.7-.3L12,30.6A1.2,1.2,0,0,0,12,29.2Z"/>
          <path class="primary" d="M27.1,30.5H16.3a.9.9,0,0,0,0,1.8H27.1a.9.9,0,0,0,0-1.8Z"/>
        </g>
      </g>
    </g>
  </g>
</svg>
