<svg xmlns="http://www.w3.org/2000/svg" viewBox="0 0 32 32">
  <defs>
    <style>
      .cls-1 {
        fill: #417ec0;
      }

      .primary {
        fill: #0f8bfe;
      }
    </style>
  </defs>
  <title>gear</title>
  <g id="Camada_2" data-name="Camada 2">
    <g id="orbit_app">
      <g id="gear">
        <g>
          <path class="cls-1" d="M32,19.9V12.1H27.4a5.8,5.8,0,0,0-.5-1.4l3.2-3.2L24.5,1.9,21.3,5.1l-1.4-.5V0H12.1V4.6l-1.4.5L7.5,1.9,1.9,7.5l3.2,3.2a5.8,5.8,0,0,0-.5,1.4H0v7.8H4.6a5.8,5.8,0,0,0,.5,1.4L1.9,24.5l5.6,5.6,3.2-3.2,1.4.5V32h7.8V27.4l1.4-.5,3.2,3.2,5.6-5.6-3.2-3.2a5.8,5.8,0,0,0,.5-1.4Zm-4.7,4.6-2.8,2.8-2.8-2.9-.7.4-2.3,1L18,26v4H14V26l-.7-.2-2.3-1-.7-.4L7.5,27.3,4.7,24.5l2.9-2.8L7.2,21a16,16,0,0,1-1-2.3L6,18H2V14H6l.2-.7a16,16,0,0,1,1-2.3l.4-.7L4.7,7.5,7.5,4.7l2.8,2.9.7-.4,2.3-1L14,6V2h4V6l.7.2,2.3,1,.7.4,2.8-2.9,2.8,2.8-2.9,2.8.4.7a16,16,0,0,1,1,2.3l.2.7h4v4H26l-.2.7a16,16,0,0,1-1,2.3l-.4.7Z"/>
          <path class="cls-1" d="M16,9.8A6.2,6.2,0,1,0,22.2,16,6.2,6.2,0,0,0,16,9.8Zm0,10.4A4.2,4.2,0,1,1,20.2,16,4.2,4.2,0,0,1,16,20.2Z"/>
        </g>
        <g>
          <path class="primary" d="M32,19.9V12.1H27.4a5.8,5.8,0,0,0-.5-1.4l3.2-3.2L24.5,1.9,21.3,5.1l-1.4-.5V0H12.1V4.6l-1.4.5L7.5,1.9,1.9,7.5l3.2,3.2a5.8,5.8,0,0,0-.5,1.4H0v7.8H4.6a5.8,5.8,0,0,0,.5,1.4L1.9,24.5l5.6,5.6,3.2-3.2,1.4.5V32h7.8V27.4l1.4-.5,3.2,3.2,5.6-5.6-3.2-3.2a5.8,5.8,0,0,0,.5-1.4Zm-4.7,4.6-2.8,2.8-2.8-2.9-.7.4-2.3,1L18,26v4H14V26l-.7-.2-2.3-1-.7-.4L7.5,27.3,4.7,24.5l2.9-2.8L7.2,21a16,16,0,0,1-1-2.3L6,18H2V14H6l.2-.7a16,16,0,0,1,1-2.3l.4-.7L4.7,7.5,7.5,4.7l2.8,2.9.7-.4,2.3-1L14,6V2h4V6l.7.2,2.3,1,.7.4,2.8-2.9,2.8,2.8-2.9,2.8.4.7a16,16,0,0,1,1,2.3l.2.7h4v4H26l-.2.7a16,16,0,0,1-1,2.3l-.4.7Z"/>
          <path class="primary" d="M16,9.8A6.2,6.2,0,1,0,22.2,16,6.2,6.2,0,0,0,16,9.8Zm0,10.4A4.2,4.2,0,1,1,20.2,16,4.2,4.2,0,0,1,16,20.2Z"/>
        </g>
      </g>
    </g>
  </g>
</svg>
