<svg xmlns="http://www.w3.org/2000/svg" viewBox="0 0 158 32">
  <defs>
    <style>
      .cls-1 {
        fill: #031627;
      }

      .primary {
        fill: #0f8bfe;
      }
    </style>
  </defs>
  <title>logo</title>
  <g id="Camada_2" data-name="Camada 2">
    <g id="orbit_app">
      <g id="logo">
        <g id="orbit_app-2" data-name="orbit_app">
          <g>
            <path class="cls-1" d="M22.6,17.1a9.3,9.3,0,0,1-9.5,9.7,9.3,9.3,0,0,1-9.5-9.7,9.3,9.3,0,0,1,9.5-9.7A9.3,9.3,0,0,1,22.6,17.1Zm-4.4,0c0-3.8-2.4-5.8-5.1-5.8S8,13.3,8,17.1s2.4,5.8,5.1,5.8S18.2,20.9,18.2,17.1Z"/>
            <path class="cls-1" d="M36.4,12.2H35c-3.4,0-5,2-5,5.4v8.7H25.7V7.9h4.2v3a5.6,5.6,0,0,1,5.3-3.2h1.2Z"/>
            <path class="cls-1" d="M38.9,26.2V.4h4.3v9.8A6.6,6.6,0,0,1,49,7.4c5.5,0,8.4,4.2,8.4,9.6s-3.2,9.7-8.6,9.7a6.3,6.3,0,0,1-5.6-2.9v2.4Zm9.2-14.9c-2.8,0-4.9,2.1-4.9,5.7s2.1,5.8,4.9,5.8S53,20.6,53,17,51,11.3,48.1,11.3Z"/>
            <path class="cls-1" d="M62.7,0a2.9,2.9,0,0,1,2.8,2.9,2.9,2.9,0,0,1-5.7,0A2.9,2.9,0,0,1,62.7,0ZM60.5,26.2V7.9h4.3V26.2Z"/>
            <path class="cls-1" d="M74.9,7.9h3.8v3.9H74.9v8.5c0,1.6.7,2.3,2.3,2.3l1.5-.2V26a6.8,6.8,0,0,1-2.6.4c-3.4,0-5.5-2-5.5-5.4V11.8H67.2V7.9h.9a2.5,2.5,0,0,0,2.8-2.8V2.3h4Z"/>
            <path class="cls-1" d="M94.6,15.7l4.7-.7a1.2,1.2,0,0,0,1.3-1.3c0-1.5-1-2.8-3.4-2.8a3.6,3.6,0,0,0-3.8,3.3l-4-.9c.4-3.1,3.2-5.9,7.7-5.9s7.8,3.2,7.8,6.8v9.1a25.5,25.5,0,0,0,.2,2.9h-4a7,7,0,0,1-.2-2.3,6.4,6.4,0,0,1-5.6,2.9c-3.9,0-6.3-2.7-6.3-5.5S91.5,16.2,94.6,15.7Zm6,2.9v-.8l-4.7.7A2.5,2.5,0,0,0,93.4,21a2.5,2.5,0,0,0,2.7,2.4C98.5,23.4,100.6,22.2,100.6,18.6Z"/>
            <path class="cls-1" d="M109.1,32V7.9h4.2v2.5a6.5,6.5,0,0,1,5.8-2.9c5.4,0,8.5,4.1,8.5,9.6s-3.4,9.6-8.6,9.6a6.6,6.6,0,0,1-5.6-2.6V32Zm9.2-20.6c-2.9,0-5,2.2-5,5.7s2.1,5.7,5,5.7,4.9-2.3,4.9-5.7S121.2,11.4,118.3,11.4Z"/>
            <path class="cls-1" d="M130.7,32V7.9h4.2v2.5a6.5,6.5,0,0,1,5.8-2.9c5.4,0,8.5,4.1,8.5,9.6s-3.4,9.6-8.6,9.6a6.6,6.6,0,0,1-5.6-2.6V32Zm9.2-20.6c-2.9,0-5,2.2-5,5.7s2.1,5.7,5,5.7,4.9-2.3,4.9-5.7S142.8,11.4,139.9,11.4Z"/>
          </g>
        </g>
        <path id="r" class="cls-1" d="M154.6,14.1a2.8,2.8,0,0,1-1.3-.3,4.1,4.1,0,0,1-1.1-.7,4.1,4.1,0,0,1-.7-1.1,2.8,2.8,0,0,1-.3-1.3h0a2.8,2.8,0,0,1,.3-1.3,4.1,4.1,0,0,1,.7-1.1,4.1,4.1,0,0,1,1.1-.7,3,3,0,0,1,2.6,0,3,3,0,0,1,1.1.7,2.6,2.6,0,0,1,.7,1.1,2.8,2.8,0,0,1,.3,1.3h0a2.8,2.8,0,0,1-.3,1.3,2.6,2.6,0,0,1-.7,1.1,4.1,4.1,0,0,1-1.1.7A2.8,2.8,0,0,1,154.6,14.1Zm0-.5a2,2,0,0,0,1.1-.3,1.5,1.5,0,0,0,.9-.6,1.5,1.5,0,0,0,.6-.9,2,2,0,0,0,.3-1.1h0a2,2,0,0,0-.3-1.1,1.5,1.5,0,0,0-.6-.9,1.5,1.5,0,0,0-.9-.6,2.2,2.2,0,0,0-2.2,0,1.5,1.5,0,0,0-.9.6,1.5,1.5,0,0,0-.6.9,2,2,0,0,0-.2,1.1h0a2,2,0,0,0,.2,1.1,1.5,1.5,0,0,0,.6.9,1.5,1.5,0,0,0,.9.6A2,2,0,0,0,154.6,13.6ZM153.4,9h1.4a1.3,1.3,0,0,1,1,.4c.2.1.2.4.2.7h0a1.3,1.3,0,0,1-.1.6l-.5.4.7,1.1h-.8l-.7-1h-.5v1h-.7Zm1.4,1.6.4-.2c.1,0,.1-.2.1-.3h0c0-.2,0-.3-.1-.3l-.4-.2h-.7v1Z"/>
        <rect id="line" class="primary" y="15" width="25.7" height="4.44"/>
      </g>
    </g>
  </g>
</svg>
