<svg xmlns="http://www.w3.org/2000/svg" viewBox="0 0 32 36">
  <defs>
    <style>
      .cls-1 {
        fill: #417ec0;
      }

      .primary {
        fill: #0f8bfe;
      }
    </style>
  </defs>
  <title>marker</title>
  <g id="Camada_2" data-name="Camada 2">
    <g id="orbit_app">
      <g id="marker">
        <g>
          <path class="cls-1" d="M22.1,23.8l3.5-5.4a11.6,11.6,0,0,0,2.1-6.7,11.7,11.7,0,0,0-23.4,0,11.3,11.3,0,0,0,2.2,6.8l3.4,5.3C6.2,24.3,0,26,0,29.7c0,1.3.9,3.2,5.1,4.7A34.8,34.8,0,0,0,16,36c7.7,0,16-2.1,16-6.3S25.8,24.3,22.1,23.8ZM8.3,17.3a.1.1,0,0,1-.1-.1,9.3,9.3,0,0,1-1.8-5.5,9.6,9.6,0,0,1,19.2,0,9,9,0,0,1-1.8,5.4L16,29.3ZM16,33.9c-8.4,0-13.9-2.4-13.9-4.2s2.8-3.2,9.1-4l3.9,6.1a1.1,1.1,0,0,0,1.8,0l3.9-6.1c6.3.8,9.1,2.8,9.1,4S24.4,33.9,16,33.9Z"/>
          <path class="cls-1" d="M16,6.4a5.3,5.3,0,0,0-5.3,5.3,5.3,5.3,0,0,0,10.6,0A5.3,5.3,0,0,0,16,6.4Zm0,8.4a3.2,3.2,0,1,1,3.2-3.1A3.1,3.1,0,0,1,16,14.8Z"/>
        </g>
        <g>
          <path class="primary" d="M22.1,23.8l3.5-5.4a11.6,11.6,0,0,0,2.1-6.7,11.7,11.7,0,0,0-23.4,0,11.3,11.3,0,0,0,2.2,6.8l3.4,5.3C6.2,24.3,0,26,0,29.7c0,1.3.9,3.2,5.1,4.7A34.8,34.8,0,0,0,16,36c7.7,0,16-2.1,16-6.3S25.8,24.3,22.1,23.8ZM8.3,17.3a.1.1,0,0,1-.1-.1,9.3,9.3,0,0,1-1.8-5.5,9.6,9.6,0,0,1,19.2,0,9,9,0,0,1-1.8,5.4L16,29.3ZM16,33.9c-8.4,0-13.9-2.4-13.9-4.2s2.8-3.2,9.1-4l3.9,6.1a1.1,1.1,0,0,0,1.8,0l3.9-6.1c6.3.8,9.1,2.8,9.1,4S24.4,33.9,16,33.9Z"/>
          <path class="primary" d="M16,6.4a5.3,5.3,0,0,0-5.3,5.3,5.3,5.3,0,0,0,10.6,0A5.3,5.3,0,0,0,16,6.4Zm0,8.4a3.2,3.2,0,1,1,3.2-3.1A3.1,3.1,0,0,1,16,14.8Z"/>
        </g>
      </g>
    </g>
  </g>
</svg>
