<svg xmlns="http://www.w3.org/2000/svg" viewBox="0 0 32 32">
  <defs>
    <style>
      .cls-1 {
        fill: #417ec0;
      }

      .primary {
        fill: #0f8bfe;
      }
    </style>
  </defs>
  <title>phone</title>
  <g id="Camada_2" data-name="Camada 2">
    <g id="orbit_app">
      <g id="phone">
        <g>
          <path class="cls-1" d="M25.5,19.7a3.2,3.2,0,0,0-4.7,0h-.1l-2,2.1-.3-.2-.8-.4A24,24,0,0,1,12,16.1a11,11,0,0,1-1.8-2.8L12,11.6l.3-.3a3.3,3.3,0,0,0,0-4.8L9.8,4,8.6,2.8a3.2,3.2,0,0,0-4.8,0l-.9.9h0L1.5,5.1A4.6,4.6,0,0,0,0,8.3a12.4,12.4,0,0,0,.9,5A29.5,29.5,0,0,0,6.1,22a31.2,31.2,0,0,0,10.6,8.2A15.5,15.5,0,0,0,22.8,32h.4a5.1,5.1,0,0,0,3.9-1.7,18.5,18.5,0,0,1,1.4-1.4,4.6,4.6,0,0,0,.7-.7,3.1,3.1,0,0,0,0-4.8C28,22.2,26.8,20.9,25.5,19.7Zm-15-9.5-2,1.9a1.7,1.7,0,0,0-.3,1.8,15.4,15.4,0,0,0,2.2,3.5,22.2,22.2,0,0,0,6.1,5.5l1,.6.5.2a1.4,1.4,0,0,0,1.9-.3c.8-.7,1.5-1.5,2.3-2.3a1.2,1.2,0,0,1,1.9,0c1.2,1.3,2.4,2.5,3.7,3.7a1.3,1.3,0,0,1,0,2l-.8.7-1.4,1.4a2.9,2.9,0,0,1-2.7,1,11.6,11.6,0,0,1-5.3-1.5,30.1,30.1,0,0,1-9.9-7.8,26.2,26.2,0,0,1-4.9-8,9.5,9.5,0,0,1-.7-4.2,2.7,2.7,0,0,1,.8-1.9L4.4,5.1l.9-.9a1.1,1.1,0,0,1,1.8,0A8,8,0,0,1,8.4,5.5l2.4,2.4c.7.7.7,1.3,0,1.9Z"/>
          <path class="cls-1" d="M17.4,8.5a7.6,7.6,0,0,1,3.9,2.2,7.8,7.8,0,0,1,2.1,3.6,1.1,1.1,0,0,0,.9.7h.6a.9.9,0,0,0,.6-.4.9.9,0,0,0,.1-.7,10.6,10.6,0,0,0-2.7-4.7h0a10.4,10.4,0,0,0-5-2.8.9.9,0,0,0-1.1.7v.5A1,1,0,0,0,17.4,8.5Z"/>
          <path class="cls-1" d="M32,13.4a17.6,17.6,0,0,0-4.8-8.5h0A17.7,17.7,0,0,0,18.1,0a.7.7,0,0,0-.6.2.7.7,0,0,0-.4.6v.4a1,1,0,0,0,.7,1,15.7,15.7,0,0,1,8,4.3,15.9,15.9,0,0,1,4.1,7.4.8.8,0,0,0,.8.7h.7l.6-.4A1.5,1.5,0,0,0,32,13.4Z"/>
        </g>
        <g>
          <path class="primary" d="M25.5,19.7a3.2,3.2,0,0,0-4.7,0h-.1l-2,2.1-.3-.2-.8-.4A24,24,0,0,1,12,16.1a11,11,0,0,1-1.8-2.8L12,11.6l.3-.3a3.3,3.3,0,0,0,0-4.8L9.8,4,8.6,2.8a3.2,3.2,0,0,0-4.8,0l-.9.9h0L1.5,5.1A4.6,4.6,0,0,0,0,8.3a12.4,12.4,0,0,0,.9,5A29.5,29.5,0,0,0,6.1,22a31.2,31.2,0,0,0,10.6,8.2A15.5,15.5,0,0,0,22.8,32h.4a5.1,5.1,0,0,0,3.9-1.7,18.5,18.5,0,0,1,1.4-1.4,4.6,4.6,0,0,0,.7-.7,3.1,3.1,0,0,0,0-4.8C28,22.2,26.8,20.9,25.5,19.7Zm-15-9.5-2,1.9a1.7,1.7,0,0,0-.3,1.8,15.4,15.4,0,0,0,2.2,3.5,22.2,22.2,0,0,0,6.1,5.5l1,.6.5.2a1.4,1.4,0,0,0,1.9-.3c.8-.7,1.5-1.5,2.3-2.3a1.2,1.2,0,0,1,1.9,0c1.2,1.3,2.4,2.5,3.7,3.7a1.3,1.3,0,0,1,0,2l-.8.7-1.4,1.4a2.9,2.9,0,0,1-2.7,1,11.6,11.6,0,0,1-5.3-1.5,30.1,30.1,0,0,1-9.9-7.8,26.2,26.2,0,0,1-4.9-8,9.5,9.5,0,0,1-.7-4.2,2.7,2.7,0,0,1,.8-1.9L4.4,5.1l.9-.9a1.1,1.1,0,0,1,1.8,0A8,8,0,0,1,8.4,5.5l2.4,2.4c.7.7.7,1.3,0,1.9Z"/>
          <path class="primary" d="M17.4,8.5a7.6,7.6,0,0,1,3.9,2.2,7.8,7.8,0,0,1,2.1,3.6,1.1,1.1,0,0,0,.9.7h.6a.9.9,0,0,0,.6-.4.9.9,0,0,0,.1-.7,10.6,10.6,0,0,0-2.7-4.7h0a10.4,10.4,0,0,0-5-2.8.9.9,0,0,0-1.1.7v.5A1,1,0,0,0,17.4,8.5Z"/>
          <path class="primary" d="M32,13.4a17.6,17.6,0,0,0-4.8-8.5h0A17.7,17.7,0,0,0,18.1,0a.7.7,0,0,0-.6.2.7.7,0,0,0-.4.6v.4a1,1,0,0,0,.7,1,15.7,15.7,0,0,1,8,4.3,15.9,15.9,0,0,1,4.1,7.4.8.8,0,0,0,.8.7h.7l.6-.4A1.5,1.5,0,0,0,32,13.4Z"/>
        </g>
      </g>
    </g>
  </g>
</svg>
