<svg xmlns="http://www.w3.org/2000/svg" viewBox="0 0 32 32">
  <defs>
    <style>

      .primary {
        fill: #0f8bfe;
      }
    </style>
  </defs>
  <title>tick</title>
  <g id="Camada_2" data-name="Camada 2">
    <g id="orbit_app">
      <g id="tick">
        <g>
          <path class="primary" d="M31.1,4.4a1.2,1.2,0,0,0-1.7,0L14.9,18.8,9.7,13.1a1.2,1.2,0,0,0-1.7,0,1.2,1.2,0,0,0-.1,1.7L14,21.4a1.1,1.1,0,0,0,.8.3h.1a1.1,1.1,0,0,0,.8-.3L31.1,6.1A1.1,1.1,0,0,0,31.1,4.4Z"/>
          <path class="primary" d="M30.8,14.8A1.2,1.2,0,0,0,29.6,16,13.6,13.6,0,1,1,16,2.4a1.2,1.2,0,0,0,1.2-1.2A1.2,1.2,0,0,0,16,0,16,16,0,1,0,32,16,1.2,1.2,0,0,0,30.8,14.8Z"/>
        </g>
      </g>
    </g>
  </g>
</svg>
